<mxfile modified="2021-05-29T12:02:40.007Z" host="app.diagrams.net" agent="5.0 (Macintosh; Intel Mac OS X 10_15_7) AppleWebKit/605.1.15 (KHTML, like Gecko) Version/14.1 Safari/605.1.15" etag="9j-7CK37QTrCYkyjLoNQ" version="14.7.3" type="github">
  <diagram name="Page-1" id="197159a0-c6a4-9194-75a8-e4174976684c">
    <mxGraphModel dx="3944" dy="886" grid="1" gridSize="10" guides="1" tooltips="1" connect="1" arrows="1" fold="1" page="1" pageScale="1.5" pageWidth="1654" pageHeight="1169" background="none" math="0" shadow="0">
      <root>
        <mxCell id="0" style=";html=1;" />
        <mxCell id="1" style=";html=1;" parent="0" />
        <mxCell id="92VvLEKEfrq9LcXsSdEX-45" value="192.168.100.154:/dr-vol" style="rounded=1;whiteSpace=wrap;html=1;fillColor=#fff2cc;strokeColor=#d6b656;horizontal=1;verticalAlign=bottom;" parent="1" vertex="1">
          <mxGeometry x="-1170" y="1200" width="310" height="350" as="geometry" />
        </mxCell>
        <mxCell id="92VvLEKEfrq9LcXsSdEX-39" value="&lt;span style=&quot;background-color: rgb(255 , 255 , 255)&quot;&gt;V01.k8s.shift.com&lt;/span&gt;" style="rounded=1;whiteSpace=wrap;html=1;fillColor=#ffe6cc;strokeColor=#d79b00;horizontal=1;verticalAlign=bottom;" parent="1" vertex="1">
          <mxGeometry x="-1150" y="1215.59" width="270" height="140" as="geometry" />
        </mxCell>
        <mxCell id="zVgAzkZR-FTV_eOpLG_5-31" value="&lt;span style=&quot;background-color: rgb(255 , 255 , 255)&quot;&gt;192.168.100.0/24&lt;/span&gt;" style="line;strokeWidth=3;html=1;fillColor=none;gradientColor=none;fontSize=14;strokeColor=#808080;" parent="1" vertex="1">
          <mxGeometry x="-2336.24" y="1720" width="1796.24" height="10" as="geometry" />
        </mxCell>
        <mxCell id="zVgAzkZR-FTV_eOpLG_5-229" style="edgeStyle=orthogonalEdgeStyle;rounded=0;orthogonalLoop=1;jettySize=auto;html=1;fontSize=12;" parent="1" edge="1">
          <mxGeometry relative="1" as="geometry">
            <mxPoint x="-1289.8599999999997" y="1340.59" as="targetPoint" />
          </mxGeometry>
        </mxCell>
        <mxCell id="zVgAzkZR-FTV_eOpLG_5-311" style="edgeStyle=orthogonalEdgeStyle;rounded=0;orthogonalLoop=1;jettySize=auto;html=1;fontSize=12;" parent="1" target="zVgAzkZR-FTV_eOpLG_5-31" edge="1">
          <mxGeometry relative="1" as="geometry">
            <Array as="points">
              <mxPoint x="-2316" y="1710" />
              <mxPoint x="-2316" y="1710" />
            </Array>
            <mxPoint x="-2316" y="1644" as="sourcePoint" />
          </mxGeometry>
        </mxCell>
        <mxCell id="zVgAzkZR-FTV_eOpLG_5-222" style="edgeStyle=orthogonalEdgeStyle;rounded=0;orthogonalLoop=1;jettySize=auto;html=1;fontSize=12;" parent="1" source="zVgAzkZR-FTV_eOpLG_5-202" target="zVgAzkZR-FTV_eOpLG_5-221" edge="1">
          <mxGeometry relative="1" as="geometry" />
        </mxCell>
        <mxCell id="zVgAzkZR-FTV_eOpLG_5-202" value="&lt;span style=&quot;background-color: rgb(255 , 255 , 255)&quot;&gt;ESXi:192.168.100.117&lt;/span&gt;" style="shadow=0;dashed=0;html=1;labelPosition=center;verticalLabelPosition=bottom;verticalAlign=top;align=center;outlineConnect=0;shape=mxgraph.veeam.3d.vmware_host;fillColor=#FFFFFF;" parent="1" vertex="1">
          <mxGeometry x="-1739.9999999999998" y="1566.59" width="110" height="98" as="geometry" />
        </mxCell>
        <mxCell id="zVgAzkZR-FTV_eOpLG_5-266" style="edgeStyle=orthogonalEdgeStyle;rounded=0;orthogonalLoop=1;jettySize=auto;html=1;fontSize=12;" parent="1" source="zVgAzkZR-FTV_eOpLG_5-208" target="zVgAzkZR-FTV_eOpLG_5-221" edge="1">
          <mxGeometry relative="1" as="geometry">
            <Array as="points">
              <mxPoint x="-1924" y="1560" />
              <mxPoint x="-1829" y="1560" />
            </Array>
          </mxGeometry>
        </mxCell>
        <mxCell id="zVgAzkZR-FTV_eOpLG_5-208" value="&lt;span style=&quot;background-color: rgb(255 , 255 , 255)&quot;&gt;vnic:192.168.100.120&lt;br&gt;&lt;/span&gt;" style="shadow=0;dashed=0;html=1;labelPosition=center;verticalLabelPosition=bottom;verticalAlign=top;align=center;outlineConnect=0;shape=mxgraph.veeam.3d.service_vnic;fillColor=#FFFFFF;" parent="1" vertex="1">
          <mxGeometry x="-1960" y="1448.09" width="72" height="64" as="geometry" />
        </mxCell>
        <mxCell id="zVgAzkZR-FTV_eOpLG_5-211" style="edgeStyle=orthogonalEdgeStyle;rounded=0;orthogonalLoop=1;jettySize=auto;html=1;" parent="1" edge="1">
          <mxGeometry relative="1" as="geometry">
            <mxPoint x="-1289.9499999999998" y="1450.5900000000001" as="targetPoint" />
          </mxGeometry>
        </mxCell>
        <mxCell id="zVgAzkZR-FTV_eOpLG_5-223" style="edgeStyle=orthogonalEdgeStyle;rounded=0;orthogonalLoop=1;jettySize=auto;html=1;fontSize=12;" parent="1" source="zVgAzkZR-FTV_eOpLG_5-221" target="zVgAzkZR-FTV_eOpLG_5-31" edge="1">
          <mxGeometry relative="1" as="geometry">
            <Array as="points">
              <mxPoint x="-1829" y="1630" />
              <mxPoint x="-1829" y="1630" />
            </Array>
          </mxGeometry>
        </mxCell>
        <mxCell id="zVgAzkZR-FTV_eOpLG_5-221" value="&lt;span style=&quot;background-color: rgb(255 , 255 , 255)&quot;&gt;vSwitch&lt;/span&gt;" style="shadow=0;dashed=0;html=1;labelPosition=center;verticalLabelPosition=bottom;verticalAlign=top;align=center;outlineConnect=0;shape=mxgraph.veeam.3d.vnic;fillColor=#FFFFFF;" parent="1" vertex="1">
          <mxGeometry x="-1860.2399999999998" y="1584.59" width="62" height="62" as="geometry" />
        </mxCell>
        <mxCell id="zVgAzkZR-FTV_eOpLG_5-227" style="edgeStyle=orthogonalEdgeStyle;rounded=0;orthogonalLoop=1;jettySize=auto;html=1;fontSize=12;" parent="1" target="zVgAzkZR-FTV_eOpLG_5-208" edge="1">
          <mxGeometry relative="1" as="geometry">
            <mxPoint x="-1924.0000000000002" y="1398.0900000000001" as="sourcePoint" />
          </mxGeometry>
        </mxCell>
        <mxCell id="zVgAzkZR-FTV_eOpLG_5-232" value="GitLab:30080" style="shape=image;aspect=fixed;image=data:image/png,iVBORw0KGgoAAAANSUhEUgAAANIAAADBCAYAAAC62+53AAAABHNCSVQICAgIfAhkiAAAIABJREFUeJztnWlwXNeZnt/33NsrGju47yKxEuAuiZIoQiRFSbZlydrssgVAlqdqnKRcM/6VmqSS8Wh+pGpSNUnZVc7ijGtiUiNnPDOeuLI48WRsU7YlWZYsiSZFAiDFTaQoiqZImTu6z5sfICmQxNLL3Rq8zz82+n7nQxNv33PPOd/7ERHj0IaeRqbyfwrocQiNEn9N6E8X/mTvj8LOLSZ4jtzf/iAs/1jAahAfEvZv8/nM15bseOt02LmNhWEnMJYj6+dnlK15GTQrr/+JCgb43Px/3Pt34WQWEwaHNnc9RdrvAnTGvk7gjXz+/N1Ldhy6GFZuN2LCTmAsytb8/s0iAgA6Fvh3u5/qSgafVUwY7H6qK0nYP79RRAAgYLVxs78fRl4TESkhAXh24h9xYd1vsSW4VGLCpP6k7ge5YMI3SJP8rQRPZIR0aEvrbePfjT5G1BNB5RMTLnaK/2uSq470di0LKp+piIyQUHCemvpN+ox6e13/k4kJEz0FB8Knp3yjq8cDSKcoIiMkOsXcbdh8OPFBr//ZxITJ4VOdm2A4Y6r3SdGZoURCSEcf6F4AcV0x72XeRubDi/EHg6IFcvs7mzsX+ZpMkURCSIVC/kmQxS3FGzyup3DTSk7M9EBfg7HCo0W9maQLPOZzSkURCSHJsvi7DDnryKnOu31MJyZE3v1Z5waSc4p9P4u/e/lK6EI60Ns1m9RdpVxDG40PL8YHWCjp/1bA3Yfvb5/rVzrFErqQXMc+CbKkPEQ9oYidyoipHAEUzGdKuog0tAx9ehe6kESUfnehmX90U+cdPqQTEyJH7++8E+DCUq+zKOHRwCdCFdKx3rYWCBvKuXaqDbuY6sOitGndVUht3L91xUyv8ymFUIU04prHQZa7wfpkPL2bZlhT5hSNTkoXi1vp84lQhUSUMa27djGXHNrSucrDdGJC5NDmjjUgl5Z7vbVOqDOU0IR0oHdlA8T7KolRwsZdTMQxrHSjXZuPPNjV5E02pROakBzn4mdAVFoWUcT5vJiqwDqVnZsjE8rbqc/n+URoQiK9WGlh2+FNncsrjxMTJoe3dnTLoKPSOFR4q3ehCOnkPe21Vrjfi1g05a30xEQHFip4Vh6DqAeGP7GszotYpRKKkC5k8GmSaS9iSSYWUpVT1l7iuDCVvuR+yptYpRGKkOTRNxAAgFxxdFN7u2fxYgLl3a2drQB7vIqnkDZnAxfSsYfXZmH4oJcxC2BkCrxiSsNarxeM9InjW1fUeBtzagIX0siFC58E6OkvKuPhHS4mWORxfRmZzdvLD3kaswgCFxKt94sDBNce2tJ6m9dxY/zlQG/7YoCrvY5rK9noL5NAhTT8iWUpkJ/0I7aRE/oJ4JjScB1TfEFnCUh4+EDvIk8Ws4olUCGlLiYfBOnL8mTBs5WfmKCQT3cOkrWOk97qR+yJCFRILLFoqxSMsP7oA90T+6DFRIojm1vnAbrTr/gM+Is1MCG9tnZtQjAP+zYASWttaUVhMaFh6T7hx7TuKhIfDdKZNzAhzWq4sAWEr4cKVYhPOVQLlM93DLKh7sPCJl/HGENgQpIC+CMn7z30YEfRxhkx4fDO5u5ZoO7xexzlg5veBSKkUedM+l94RRrmzSO+jxNTES4Kj41nju85ho8F5cwbiJAOnezqLcY50wsYxJ0vpiK8O1s3BWTLUef4vUEMFYiQjAmuAE/gpmO9bS1BjRdTGke3dDRTui+o8azfz2JX8F1I+hqMpOA2S0k3b9zQCrxiJseCj1bg01E6NE/oa/7/nfs+wJFfdN1dinOmF/i5XxVTGYWgj+8Qsw+/2F6SAWk5+C6kMCxlBbP10IaexqDHjZmc/fffVm+gwJvFmQCmd74KSQClEHrYEEmTKvhypi+mfFI29WmAqaDHlcFTflu3+SqkUTfU0p0zvSBKvXNiRgnN1JNm/rubu273cwhfhRSuG6oeOtHblQtv/JixHHt4bRbCA2GN73fbVL+fkcKrXCUzFxx8IrTxY64jf/H8wyCzoSUg+Wrd5puQDm7pXF2Jc6YXmNgfPDKwEPL/Bbnk6NYu35x5fRNSFFxQJXzqyPr5mbDzuNU50LsobRn+7KDgo5j9m9opxGndVYiccnWhzctjRnHd1EMka8POQ/BveueLkA5v6lwOstOP2KXCePUudGSj4T1Isv3Qlq4uP2L7IqQouZ8KeiTIAq+Y63lt7dqEDEIxbRwPYz12Lboa14+g0XI/ZX39SXlijxxTOjMazz1AMDKnTPxaBvdcSO9u7WwFucLruJUQd/cLD8KfO0DZ0Kz0w5nXcyHZKNYDEY8GVeAV8zHq7XVhTeRO4udFz709vJ/aReTB8nrYfNg9cV/YWdxqHHHe3wQycrVhdLyfoXgqpFHnTKz1MqZXRGFf61aDFXfh8wtz+8GtbUs8jehlMMfV435aLFWChMf0FPz3CYgBMFrQaRVd/wxjjafTO0+FxEit1t0AOevd33b67lwTM8q7L3XcG3RBZynIetv+xTMhHejtmi1gvVfxfCGunA0MjUR1WjcKqbsO398+16t4ngnJdeyTIEPrSVsMknnC7wKvmNGCThhvp06eQxpaeuYl4tkffmAWS5VAzjt6f6dvftMxoxzb0rEeZOR92K2H3f08EdKx3rYWCBu8iOU3FvH0zm8KkdwCuRlSG/dvXTHTi1ieCCnvuk8EarFUCdY8GU/v/EUmQPu1iqDj2sueTEE9EVJVuZuSiw9v7vC8S1zMKIc2dawlUDXdE+mRPVjFQjrQu7JBML1eJBMUJrIbhdWPYXVM664hbDryYFfFXVIqFpJjRh4DUVVlCoJ5Muwcpi1Buup6AZnQSKHijeOKhVSdrqZsO7y1ozvsLKYbR+5v75FBR9h5lApZ+epdRUI6eU97rQUDd870AhaqYLm+yrBRPtkyCQK2Dn9iWUW9jSsS0oW08wjJQLtHe0VV7HtVGbTVejCYqfSIU1Fb1oqEVN1upuw58EBb1U1DosrRLR1tMKza6bIqnKGULaRjD6/Ngqpqhx6n4ITvdDRNKBT8NWD0HfKh41tX1JR7edlCGjl/4VMAyx44EiheBvcKOtX5fHQNMnvJ5sv23itbSNPCxZRmzaEtrVWzeRhVDvS2L5bkm4tpUNCWvwJdlpAO9C5KSwrdOdMLjNx4elchrounolrQWRI0D5frzFuWkJxEzYMgK1oujAoKuoPcNEQenqIOFSKnTN3Wci4tS0jTy71Udx59oDvyR/6jypHNrfMg3BF2Hl5R7gGDkoX02tq1CQtVtOYeKUjmC4XqOtYSIQTz5LSY1l1BYFnOvCULaVb9hfuj5JzpBQyohfy0xIPjNZGCbKg7hc2lXlaykPzufBYO2nDowY7IGnVElXc2d88CcHfYeXiNyigLKumWrJ/0uud+cPSvcdpZXOpAUSd/AbvOnDSemWHcCtS32GNuBlV7mmFCGgoHax6d9zlu2pEv9pKSqloLR9/rTa/hg9hlj+NCuN34vEZZ4KOTWBN2HtVEptG+4SQ4vYokMzqIbi4rHHlvI4AfF3tZaVM7FZ4AWYNuGjj4Xak5Rhk6WmGMfht2HtUCHZxyEugJOw9PcXSO3ciDrEOJjzBFC0lfgwGuWCwRS9CjtwGpxFQjDN1sk90TdhbVQm1TYTdQJT4dRSFhuXaKXHblhSf0veKdeYsWUn5Z6z3AGOfMJO/UEr5YfKLRJ9eEVNg5VAvZek2r3rxabF9E2tz18Suclb/YdtfEV1xP0UIar88NZ+geNeCtYmNEHeNolTE6HXYeUccYe8YkotUDqxJYr99whrlp9ZElWLcVJSQJhJxxNi3pcpnmIqH3ih0w0pCJmkbtDjuNqFPTiF3V5tMxEUzqhNo0C2Ti5h+aJ6XiVraLElJ+e+sdIBaOH4EzuIK/hcHlYmJFnWyTnUbzfn+omTafkUbQg+OgmcAkkvPzL7TeXkykooQ0lTmEHHSjVa8UEyvqOC5W0uBs2HlEFRqdMwlMj2ldF16WM/kUlUXWrBX3jCRNXWpQz42Yi58XFS/KkOlsg34TdhpRJduAnQCrf6Fhrl5CjhunfJ91iqr8nVJIl7cvXQMWufk6T+uUw96i3hthck027BQiy3T4bJTFMOazuEJEYsnl7yybctN5SiGZUmpNyDS7lKOrU0VfE0GcBFYS9nzYeUQNUhecpKp7WufqDJcjCSBb7CXFuMdOKSRZU2IFKeerm/sBVe9XF5HNNCCe3t1Apl47q9unQ8Jy7AWxqKSrMLWxy6RCuryto5vlOGcmcTtbq3uzNtdiiz6weKtQ7Z8JW7kDKZbcH4tk2+X/unT5ZO+ZVEhOBWbzatBGNOu1cq8PG9fFSkAXw84jKpC65Car92wdm/BrNerecq933MkfcaaY2lVQe0QaLNEyJHWk7BhhYpjL1tt4eneFTJ3dCVSpT0dSR7VUiwGW39V+iubNEwpJL3S2CqzsG8iYBq3ABRJV+eCea8GlsHOICrnmKv0sqIvswUcgK2rdInKFnm9vn+jnEwrJ5guetD6hYZu69YYXsYLGTamLUFU/F3gBobyTUlfYeZRFF1+Tw04vQllM7O0x8dTOy5LyDO/BfPszz+IFBptSddoZdhZhk67HW6zwGz0UFtifoca73saaZHo3rpD0l+2LBY+rRedwPeur78RArlnnws4hbGqa8lU3NWe9dmMOvbUJI9fpr8Z35h1XSDZhnwA8tlgiE1rGZjjVVYWazKgDUCHsPEJDssk0Jnw2iCQJfKhW1AH0vL7MWo7bvHn8O5JfzpkO5rIHh6vrD5MzUjm7K+wswiJdi50Tn46OIrK2W+/A0BfTT02wkn2TkPSd1nmQ1vuRBAAoydVsZ1U9L9U080zYOYRFrqXwUdg5lALb9KJJcK2PQ9yl7y69SaQ3Cck69nHPp3U3oHr1Ylb1lF2kM7YNmk7+FEUiKZkxy6Z+Y0SYaV9VA3v9HYS0efPoja/eLCTrBGAASWIRupHRO/6P5QGGs5NZ3HKVs+la7AJVFV5/zOogFrHD75vAKDdP764Tkl5YMouUZ8uFk8McuoFqsfWqmWGrapHECzJNtipO8dPROXUpH1SHFIkb9Zdds8e+dp2QrHU/U9ExilIhb8Py6niQz9Ro6a02vUtlVBVN2LQcb8IEOAUljXVHHhn70vVTuzDM5NPmLi3GjsDHLRVyfjJb/UWLxZJMa49x/Fn58hItxg6keU/wI1+/sn1NSPpOR7OATcEnBHCm7mEV2HrVttj3w84hKGpnRP93Va3dxZko2nvO07GhzXqhreXqv68JyZr8I+E5Z9LVMs1FUsfDGb84UlktDjuHoEjkSit+CxomdYIdmAGEZQtG1+Y/7hM2dmoXbrsWwxns4clI23o5XOymMRx2Gn6TSGvIEEvCzmNiNGK7cRw0s8JN42PNGADQt9trJW4JL6NR5KBbbYWXw85jMmpbCkfDzsFvci32WNg5TIY6+RLd8J1eZbBV37utHrgiJJvSoyDT4aY1CuucXszRL8LOYyIyNXZ+2Dn4TSan6P6Os/QSa+HzpmuxMGUvJR4Grk7totb6cQHWMKq2Xo5ZlkyhOjaSy8BN6iAMo3maIat9WIiVYadxPaP+4Eb/eU5WwANhp3M9zKhdabiK5Bm32hmFw2Hn4Bf1zfZg2DmMC3UWy2HAaLkYCXxI21bUGJutfRgleHwFhsPFWK7BKPZgSuYwe+p3VSfJWkawl66EHuwCGcENYmYKuPRJI+jTYacyISlzB5cqcpu1NOhwk3ba3ZUSro7QVeRqj3ibdiBN3yoSKob2EQOgbIuiIFAz70UTfhV2HjeSa9KBsHPwmpqW6B0iZoN9Qy2M9N8ogLvNdV34IgkdLNVtSNpI2Xpl6tUy9buqi0yDjdbvlMIxtXJRoOc/y0GYawBFdwP0KmQzV/A8jC6EncpVaNDluNHebykF19V7JCLkFKRLXK7TldpoBcRFQ2Aw7CyKQYbt6IiQcyvJ2qbpc8oh16IhMIhaniLp0qtyGSFhTwI5bETzw7DzKJqcuTdKtl6ZBtsYdg5ekamL0O8yBy8jZ6L+XPQx0g+N4+S/BURnyjQlc3g7a/V22GkAAF10O449EXYeleI6OEEHk5rEB4VyGMJ8TdmPKEKcd4RvGX5+/xES/zrsbIqGTKsd9YyErRdNTUtET2CUQLbF7gXDf6Cnow/ZoZqoHFcrBsL+Kz4zfNQAgNM3/Ocgvhl2UkVjOE89OACFb+uVqbO1YedQKTWR+B1ksRLvwHBe2JkUDfENp3/fvwfGlFG4fUNfofAVqEpamSS5Lgq2Xo6LFcZE4e5YHnRxionw27WojS/K9dVGyzukixS+4vYN/eHVl64rNXcGhr7pGK2lqsPvWg3qxcyQbb1IJ9dsI/HMVg61jYXd4RV0XmEGfsV6Td0YOQLIYq91cJczMHTdDO4mOy727XvbFC7fCeIbwaVXLiQWo5s14e7IZ+tVtV2+w86daR3CErWBnLINa+hQ212m1yWfHn7zph9Ndl3++dbHYPEXUd8UY94O4y3OVSGkk8HSyPFB55y1bAhl/DIxxp6Z3a4MGFK5ttEFruYhOWW0Vw0UnaHwT5yB4f820Tsm/RZw+4b/3knYVYAi3Q9WrmlVF8MzTyETNY2qOgPJmkbsCk1EANDF16tARK84BmsmExFQRFdzfn7/ESc1vJnAH0Ea8S5Bj8ngbiwMT/A1TTbc54wyyDYVEmGNrQXYgax3vYu8RwVAf+acr9vIp4enfHQo6UjIyLbWO0m8AESxLgSANKJB7OFHYdTz69Lxvc5laxmBpeSpodG5Oe0FJ4w9G9baXeo0bQjNAWgKrI7IRV/i6eGiv5hLesBLDAz/0kkV1gD6bunZBQCZYLtmI6EQPNmYyjSgKlxjASDXZN8KZePT1QdqZwsiKiLC/r2TSawqRURAiUICAH72nTNu//AXCDwDRbCbHc1M9uBEGLZeuSYb9JBlk6pX8KtkVF49PAbD6FUYSxcJftXp3/c4P/t2yZ7nZX+YTv/QNsflOkI3LQWGjVz2qA2B23o5Caw0JoJfLjdA2PPJVPCbsGrnL5iImnkJIOhta8wdTv/g18uNUdG3Er8wtNd8qPWje07R8lZgHXoxO2AxEdl0nSI/vcs2YicQ8FbBDP2SdRHcdKW2u+fP3p7sG6yov3HFt3f+wb5Lbt/QH4IjD0ERsxxeoBWs0b4gh8y12HyQ45VDTaOCnYOmcQCL2BVM76KiOQmNPOL2DQ/wy+9V3Gzas3my23fwR46bX0Xo/3gVs2LIGnXAhaPA2je6LlYC0T2vSOqSG+S0jjqL5bIwiMxqJq1+4litcgcO/A+vYnr6wMkvHHjf9A1/kuBXgYh4eDtcjG7tDWzqaZjL1tuKpgl+kmmwb4FB/VFL6NEuOFwazHhTobyg50xmeCufGfbUetrzlRsScvoHvy5iAxDstGpCUuYOLWFgm7W5ZlwKaqxSyTUG9wXHpdyBtImIjZYOiea+RP/wn/Cz8Lz8xrcl0ETf0K+cy2YNoOf9GqMU2KJ72aTXgxjLTaqHUbkjj4HQiJtUIJWwatSbag6qjerkEIW/dUx6daJv0DdP+UAe/grb2wYEfRNgLojxJoQ6hTdxHpfou0n8h0fN6xfORKu+JlOr1xsXWN9zYhrH1KMUyGa/x5ocXSDMv6hkWbtYAtmUc/qHtjl50wMGv7dzHWITu3EGkO9Tr5qmfMUrQV5T2xJEThqxXfpt2CIi9LrjuCuDEBEQkJAAgM8OHnTmzdko6Dko4OXXMcjhcizHL/0eJ5HmckIRWgpXwc2aTt+H6dIrdBlixa0E4hsmlbibX9gTmF1aKOv6+efbtkDYBmBuGOMDAI7i5zjq7+njU4fNmxfPcpWfYxRLqlZvNi+w/uYyR7/AgjAaI19BOgHwWXdg6H8HPXQoVYlu39A/OiN2FWH/VxjjAwDmah3rtMfPIXIthcD2r6aittnfXJTTEBYwNBst0v4/h86qMEQEhCQkAOCX9n1g+vZ9enTPyf9nlpsTYFptqIOrkg8oFksyo44wp7HXkGwi62OXCUen2Y4MwmgPJI0Ies4M73uQ/XvfC3z8K4RaJ391z8nKWUfZ4M+oGc5jDw+OFnH5AM3MdC1Cr5xN57Cb8KtxsSx6sA8OF/gTf5KRoUFLuz7RP/wnfA6hfmFFwnAiObB3l0lfvCMMwxUlsIat8s3WK9NkfbvjFZ1Ds385sFUvIsl1fsWfeGBtd1OJdcn+/b8OfOxxiNIhQgBAfnvrEwD+C8AAvaglHMCr+IB3eh+ax469zTmhGdRLmtNZOEY/jBdb8Css0dpgHYD0EWH+mdM/+FfBjTk1kbgjjcXtH/47R4VVEH4e3KgkFqkdaR+68FFzk5nwbI0TOe3xRUQpvYulWhqwjdavnILWRE1EQASFBAAceOews2DOJkHP+fb8ciPGNLCbF0l4vmlZO8OGUPo+Sq5RH3gelLrIbp6FgrJpG90bcs7X3sMv7tsfzJilEbmp3Y2MbG+/j7LPgwF5Qp/HS9iFuz2NWdDBY4PuYk9jFsnszsIBQyzxNGg3fh6cA5Deh8wz7sDg/w1mvPKI5B1pLIn+wZ86hcvdgL4XyIBZH2y9HC5OpDXkacwicNMa8lxEC/ViUCKi9APHOsujLiKgCoQEAHz20Gm3f/hzBJ4BvJ963cQs3MVab/3Pcy3Bt8msneHtmKrTbsyG9wsyNw00akRi+ocf4zN7q6JBQVUI6SpO/9A2h/Z2303+yYQ6NYuud7ZeqVoFvs+SymqhZ8ESOMl2NAFMeRZzHCTtseR6p3/w6yQi5QMyGVUlJCBIk38zCyvwHujNwVNDLk2kbWBm/4mUDhjHKyNPFdSNwyDneBNvAqjtLjK3J/uHwrOfLpOqExIA8NlDF6/0pnkM8q83kVyu0jJ6VgxW1yjvl9cnGqsJh7yKpQ7+nAms8SreOCOcofR5t294gAM7I29nNh5VKaSruP1D/91J2NV+mvyzURu9svVK1vr8jT52rPqCNyfrfbfR0iuOuHoqk/qoU9VCAq6Y/O8b3kTwq/6Y/JNYoBXIqOL9C7pqd5M+bPreQMLVERq2VRwoo4P+2WipIOg5JzW8gQNDB7yPHyxVLyQA4HOwTv/g1+VgA+BD0zGyBt00cPC7SkPlmuD7H01upgefgaNz6ELBFxst4bCATX4ZkYTBtBDSVRJPD7/qUKt9MfknlqBHb1dq65VpsC1epTQR6Vo7o7IIErq10w8bLdJ+30m7qxP9w6H3//WSyJ9sKJfC9rYBSf8B9NaaVycKO3jQ6S0/gHRin3MsP+LPSQ3HscdmtdmKDslqSWEHZ1TwO44fNTAjkjCYVneksVwz+Zfe8DIuZ5oNarLlH90nmWv2z++vdgaGKxERG/UmZxhPy8VJ7bY0d05XEQHTWEjAFZP/07oL0J95V6lKh8vMQiRUdjVmps76ViKSqbdlHySlq/fVqjnedTmXAPstc+7sHZWa1EedaTu1u5H89tatELaB3vTmYUG79TqWlbfTL/v+oPNBoUBPq1ZdBydmtudbgHJKGzTCtdgjx7NuhyehkS956a8dZab1HWksbv/wPzgorCT0Qy/iyeFydJVr60VT06JBL/IYS7bF7i1PRAC68LJXIqL0Y8flyltFRMAtJCQA4MA7J0zf8Kc8M/nPcSPmlleAWFNnPV9Wrqm3dWVdOFcvIUcPNl2vmNTvH97Kzw8Gfkg3TG6Zqd2NjGxrX0fa7wJcVlEg6aL28CDPltjmXiocHzIf2oLxZDmcLk7NacvXlfp8wxoNaTnno2IHIB0SzBcS/YMvVRanOrml7khjSQwMvuZcNmtAba8oEJlml3Is1daLdHJN3vnq1TYWdpe8SODotLqYRqUiov7GyV9edauKCLiFhQQA/L3B37l9wwMQPwvpdAWR5qub+4HSVgaz9cqUP+YNsRpVohgk9GAQRPmlFsLvCH3Z7Rv+LJ89VMHnV/3c0kK6ijsw+DdOwawGVP43ahK3s7W0HkwmgZXG0Ydlj3k1jrFnjFOa3zZbuQPJClyTpNcc11nr9A9/q+wY04hYSFfgs4MHnflzeysx+VeDNqJZrxU/KBM1DXq7nLHGkm3Sb0Akix62Cb9Wo+4tb7QrRiTpxD1BmtRHnVt2sWEy8tvaNoPYjnJM/q09jZ38HS4X5zxaGLGvvj+cuKPkccYwu7XwqkmguBhJHcVKZMAyHICkEzD2i27ffk+2EKYT8R1pHNyBoR87I3YVrf5nyRcb06AVuFCsrZeT4EpjVPapchqcNa6K2/+hLrIHH5Ujomsm9bGIxiUW0gTwS/s+MAPDj5Rj8k/DNnUXe8aPqZqm8ps355oKO0Gmi3pzF1+Tw9J6JEXEpD7qxEKahGsm/wW7tmST/wzvwQJbVKlAql5l/z9kG4u8dp5eRE1pNlqCBq10ZxRM6qNOLKQiSH5x/+6yTP5nc70aNOXdJpnkCmNUslcBYc87CUy5Wsd67ca8Em20rprUP7PP09Pz05V4saFE8ttuexx0/qJok/8CjuFNpVCYvKfqmaN85dwZs76UXGoa7Sv1czTpNXR1SmtwHii2AbU+IvVPnb59L5SSy61OfEcqEXfgne+XZPLvYK5W4MhUtl655tKX3HONU10jix4eKFpE1r7qFLQmFlHpxEIqg1JN/pngKrZqUuE5Sa0AdLHoHKhLTmryaZ1a7c+UwNqpo13ZG7pYvyGqJvVRJ57aVcjI9vb7CLt96m99CYfwS7zPCadip9/Dq+c/dIraD8o2Fl5tmDPJ3tFM+yoW8/apHYD0Pjgy4PYd/FEx48aMT3xHqpBE/+BPnVShGxZ/Pfk7SSxC92S2XrnG4ks7cg2c2Hps1EarYyoRXTOpj0VUMfEdyUMK29sGBPxHTHaaWjiAX6MFhXFsrqzOvLfXzQiTH/chNDKno3AWZpwFD0fnuAbviZOUh0gXSfNHpm/wG9Xkrx0nykreAAAC8UlEQVRl4juShzj9Q9scaR2Bib2riSXonsDWy7A+XTv1cnm6Tm+NKyIAWK6dk4moWk3qo04sJI/hwPAek7+0fnTPaQIPvBTv1OLxT4rXtuSnPFpU21y4MN7rWowdSJu7Jk5O290LZ9dVo0l91Imndj6S39b2KKBvg+PtISmvIe7maay87lXp1PE9Tp0mLNJTYe5y+yGE6yprWa/fqJ3tGHdaqDMkv+z0DU3xHBdTLvEdyUfcgaEfOEarJOy4+ad0uUxzkdTx614lm5K1mPA4UjannTeJKKkTatNMjC+iUZP6WES+EgvJZ9i37123f2h8k3/DGezhSZjrV+tqmwsfTRQv22JvOCmuEduN46C5wdpr1IhkupjUR51YSAFw9fCrHGyArl/+loNutV/fNiaZUce4xYWSTWTVft1r7XiZ7g02WqMm9Zunk0l91ImFFCCJp4dfdYzWQLjuCA5r0Yt5Y44c0cxM57D7xutTOe0ixtx5Zukl1F9vo0Xa7ztOatV0M6mPOrGQAoZ9+z5yB4aeHm0srbPXfjBPa5nD3qv/zDTbm1yJss0f+zsoi2EsHLtQoQsEv+r07XuCT/+mYh+ImNKIhRQSo42lzRiTf2bUiQxcnQGATA1boTHL55LSWY3uD1FnuVzO1U4bpHZbOXdMZ5P6qBMLKUTYNzhoLtTdec1whViEbg4BsqDmJnIf+96lavQ2DeddsdHaBfK2q4dNzSmtTQ7sLa3wMMZT4n2kiJDf3roVwHcAzuFv7U+139x34SPs+PDd0T5FjQsLOzI59HKp/amazX2APoDBl9ynh0v3lYjxnPiOFBHc/uF/cFRYReiHauJGNOu1TE63Xf15qgZL1KA31Mx7R03qzapYRNEhviNFDAm0z7f/gVT4l9zJS+/vcS7QSDPaVYuV1hH4n9x9w38aeyhEi1hIEWVkW/s6U7D/5uKLcEAwfTetTfGPb2V/7SgTCynC6NvttZcO458DQGoh/i1/b7Diruox/vD/AWPIJf+bSNGxAAAAAElFTkSuQmCC;labelPosition=center;verticalLabelPosition=bottom;align=center;verticalAlign=top;" parent="1" vertex="1">
          <mxGeometry x="-1483.26" y="1116.9999999999998" width="43.52" height="40" as="geometry" />
        </mxCell>
        <mxCell id="zVgAzkZR-FTV_eOpLG_5-237" style="edgeStyle=orthogonalEdgeStyle;rounded=0;orthogonalLoop=1;jettySize=auto;html=1;fontSize=12;" parent="1" source="zVgAzkZR-FTV_eOpLG_5-232" target="92VvLEKEfrq9LcXsSdEX-15" edge="1">
          <mxGeometry relative="1" as="geometry">
            <Array as="points">
              <mxPoint x="-1461" y="1190" />
              <mxPoint x="-1461" y="1190" />
            </Array>
            <mxPoint x="-1409.9" y="1250.34" as="targetPoint" />
          </mxGeometry>
        </mxCell>
        <mxCell id="zVgAzkZR-FTV_eOpLG_5-233" value="NextCloud:12345" style="shape=image;aspect=fixed;image=data:image/png,iVBORw0KGgoAAAANSUhEUgAAAOEAAADhCAMAAAAJbSJIAAAAclBMVEUAgsn///8AgMgAfMcAeMUAesYAe8YAdsUAfsi20+vn8fnG3e/h7ffr9PqDtt4Dg8lyrdrX5/Q3ks9sqdmnyuf2+v291+0cicy00upnp9iLuuB7sdxQnNNEl9GfxuXa6fWZwuNKmtLO4fEsjc5aodUAcMPOSomkAAALT0lEQVR4nO2d2aKiOBCGMQtEXEBR8LggLvP+rziAemSpSkLsHoHJd9EXpxXzk6SSSlIVZ4Lix1l4vAWB02eC4HYMs9jHZTjI3+OIMFcQQr4tQUleRuEyEsVdFK4izkX/tVUhgvNopalwtmbi2wU2QrD1TEPh/MSGVXtVCDvNVQqXA9ZXQNhSqtBP6LeL+DE08XGF04FX4APCppjCzPt24f4QXgYrPLBvl+yPwQ6QwhEJrEn8Vbgfk8Bc4r6pcDqWPvjCm9YVzsdVgwVsXlOYjGGYqEOSqsLl8Af6NnT5VngeWyd84J1/FZ7G10YLyOml8Do+M/OAXZ8K1+OswrwS1w+Fq7FWYV6Jq1JhNEyPXgcRlQr5t8vxF+GFwnjUCuNc4YgbadlMnckAlkTNIWTijHDOXYX5Tux+uxB/FTd2sjF3w7wjZk445m6Yd8TQOY5c4dG5jVzhzen39uDnjF3f/0GhxWKxWCwWi8VisVgsFovFYrFYLBaLZZQUcXQFQ4j56wohlDMWnO7hYXkI75eEMUbHc0SCUOZE6XVRDdWZbFebQ1LEcH67dB9DXHbctCLmniymkRhorOML4Z12W0Tek1nE6GArUrCDJAL53WDTgA9So2B7RfW92Q1QI/FCbX0Fm4GZVigeV8VhSOGdhO+66ss5DydE1z11aqCVavQGUY3taGp94kEYHI6lb9DBT3pvcIjobGLqnHreGUmwUIuQc+/1sWySGNqYKj89lkiCPyAwl/jfNtTca6XUdV0q1J4O+biJPriozE3uSedl4pSKD53pMrXN5ZBtdrvdZh+tudwNYB8amTeysOTc3WS3aF+WKTtcikRBxvq4CKd152CVrT20Kr1Phok6Cxf5EUK9dVZPtONPQ2o0jAp2B9LZ5A/MHDgUzN1DH6+WZHlMqOd5zDmFGzAd0JsrGJlMeJCBHSE+dnakicy1myaAxjJeEy/xISjTTj0+mndtRu9T2Rf2bYNKeIJ/xe82cSfsLrcZG956ZUzyjTRg7bZNOD9IvtMK3RViIy2Tf9fXKJyr9Fk5259GQBjDfz5Fu4mQOJF+/QcIC1VlmsyIZlNlP8pnTZrZevA2eg0wq1FqZCn2xazaFQgFjUKTu1a0aC19jQS/atLRgeKgSmbA11hTDd7PF4nmSLtX504gTN/mr38bhUCa0ELDqSUMqZ74t53Sk3aZdkqJTNkFIYkM7k5nrXVC4iF9+GVsxLFDmWJFxKin1dx/eYaFCdjnXekaNwZ3jNmjsEK/BkuJ0lpkHddXts/3AlbhWd96e7C9KV/gKwuLNqmkFulB/f06ZRQx3AsXXaZSHjiWTwvTyHRWlWvg0enk1vVZ+difS2Rn6H+6JfWBjXE+Cepg+d4/jb7Izm9rUmR+gcfCsJuTB7fFvRBag3MDLN8O1RwI6ywYh0zhrGtSHwpZqzmjRj71EmynBEvWqmD/DzQaO539GQ9qp4l8LooCunhG69QFUCPNuq+1EGhQQOd0ClLg90mAf36xWp3x1gJVocneLlP4jHW259VKMpUDVjco1h6md8EKbnt9Q5Sa5Eshd+3n+/tbWSZxxyztvt0TGaLP4S+/VXiRbrcPjNaHdG354ue1lEJyrx/WuGhZOgJb5bpXKVy9SZ1hai2hZ8xnNfc799bBT12aLxnebVg36prAc48mB8PVL6352a65QUXB8XjTHI9B76ApMMfT8T1MFzF1liOBgRacmi8a7Qicl+yhBSeh7ovGKW9Qa/dmCzlkHGrejVkj5P+0O2v5SfXsfGeaeQpzpCuEYAeAWmBj/u0Cwz3SmxBvtwI8Z9JAPfVvtr3XqwEqKK13RGi0RUZtdVMyTwhDVY/O4Pk8Ie2PNnKYAaudmMlXD8zmyVBli64lrTHg9cW2A3eul5+3m17L3L4UKl+0+XE82NOsgNkwwL9pNGig1GhvgtcsKphv/6nWwbaYQtHeNNkqFaLDtrIpmSvkijkTYmhgC18vBtBK0TpUGlPz4xQqhXgdto3ptmFp2qVOsapA5uhvzPdllau1mELadiQbbwNY0Joh47Z8G60AXQhSK1RN27BkskDlN7Z2gPEQaxFAp25gPh4qOwDg9j2+2P5oY7SD5jQ/cEHB9ZQapq4FOHDXQVbRoBW5xtwRqpgVvNOs3kTARlK1QvWz4SHfA8bRhqUEl4HuUF2oq7A5m9BHwwWeQ68dXFRtpvDmwGe2gFHEdzQrmPoWOhtfWfv1weugzc+BI5Hf2nrQ2GuemOdeVo5D5cObRScUWt9pDQWw2+c79bJ6SjtaYpiauMjcrMGyvoxB4cOCLUcSm0+H3u8nCU90dxfN5t66u7Oz98l+IhjikbdfMkfWmOYhZy6llHtr/UVxMx9Yf6Nws/Z4XiaXUezYzw44j4NPVVa7NN3MumyRoDNkGeAOD8Z2tknTKe5sQUlLO+3gV4GMD7ycIgXcVui26V75HvSK1fNNmPgf4I+oE4ADboVeDE8Dwnlnu27iPwkY1IM771yQC/CULZPsF0nYwL9OhMnD9hSea3W9UoJDNn/jUr3xqc4WPWZmsKNczNBAp7/TQQWsAeWvSbl0AwBONyU/I6V8M+B77rTP7YKjWnnzRvd2upEYgc4v7Fi8LQJNauXnWhpQ2Kko/bdOJ6IKpDeSENHtLPrhMa5yeDqufdEZcm7tua0A1y8KeoL6KdHpMrAvnxIwz1XzukGO1NJrUO0USLVQrRIRR78Wl791BG7+TIpjdBrmxkMEvBdaOkj01ctghOoeGPjhlS8hVa++9hM/7llZ7mF6XsdkctUZhtHDkHUWt2rZ8X0x+dWthB2xNlM7RknXWr0n0wxgZHf143aN4Q7fG54fUY2ESfyx+pkjgvk+FbZHbestVDtoi/azJK7P9egBQ3Du2t0kpW7O3fPaVhzVSLvMMXJnVzLlXUDRrNL9W3+f1AKKSC6PHGQdHnAOiBdKrOA06HoMiyUp3FZXIRyfojgmOU9/bpwxzvN/WHLP5L7aAjw/LVgIv5VtZhTQT9m9lfJhtb+h8TfKPam84Ofr9brSOBiE3bohWLJvilzsjsaJJ4jrJVEWr+a+789nu+WFycKLOh9XxpFEIObtm12Wu9m5KNMqzqKEfRgeLahbHiFj6gvlOx45x1FN94qr4h+FcjWiIv8kVP/snQyZb/BtXJMzyy2Bvb4z1P28FtNeC0Q9PX36f7e0uH0Uz92M+usjRJguvDan872FaO7ftInl7nmP4GuT2JRJNKAcPASJRpNWoGN+DucbuNo7cQ/mlwFV4APCTvrxE340jOxCDXKNevsq55/BJt4jDMmBUGWzHlz7rEKod0rx8ynb3f1T36cHEMqScNfuk/Ppcs0GMwCqEJzx5GeZbeKc3SZd3hM6itSedZ6pfFy3SJzz7cJYLBaLxWKxWCwWi8VisVgsFovFYrF8geDbBfjLBP8Dhdhp3JFAbo55mo5BQI5OOHKFoZMN9aCHHiJz4h7fzPMHcGPHH8CBzg9gvvNBVqcBQMjEMU5EMghElCs0TEQyDHicKzTOlzME+KRQOOJmWmS8cRTR3cOmSNJWpFjqmuBhMJTJTAqFhsmp+0+ZkKZMk4XlPR04j3QppULsPoiB88hT90h1thxEqEpHnjdmPJO5maf+7S2vkNanQuMk4/3llSn0lZBvOrau+HsDwG/Kwf7H/XXiHZb0TqoYjkliJb9jJW3kiCRWE1hWE2NqJszpP7ULDmupP6eDjs95QeoJ5OrJTdUJc/oPTerhnc30rfKEOf2HtDIutRLUzk8D1kjYqRVGBqTgna0HGg4o2BoIXAWTDK8idZqPnlEkA4nAoFXsOrk4IuUlzP3XmZexuCA9xOJVJRfm+fE+Ot6Cfm8wBsHtGGaxJDr+X8oKhY+sV5VcAAAAAElFTkSuQmCC;labelPosition=center;verticalLabelPosition=bottom;align=center;verticalAlign=top;" parent="1" vertex="1">
          <mxGeometry x="-1721" y="1107.4999999999998" width="42" height="42" as="geometry" />
        </mxCell>
        <mxCell id="zVgAzkZR-FTV_eOpLG_5-234" value="mattermost:4081" style="shape=image;aspect=fixed;image=data:image/png,iVBORw0KGgoAAAANSUhEUgAAAOEAAADhCAMAAAAJbSJIAAAA5FBMVEX///8kiv0dbspQof3MzMwki/7JyclOoP0Ag/0AZsgThv3QzsoAZMeRvPhDnP0dbcfU0MlAm/0Qhf0igu4ecdAjh/fp6enY2Ng1kv0tjv34/P8gfOTw8PD39/c+l/0fd9u61/7m8f8QasmdxPjV1dWozv7W5//x9/9Ypv3Q5P7i7f+axP4+f9C6z+yxyeoAX8Z6sv6Aq+aPseG3w9Olu9pkq/1/uP6lwecAc991puqrvtd4sf4qds1nl9iy0v6du+XE3P5QiNNso+zF1e4xhed1oNtKj+cvgNpKhtKGq99wpOtin+/s/N9cAAAUt0lEQVR4nO1daVviyhImISELGEhEJWEMEJUdR8Fl3HU83jse////ud0JgQDV1R02nfv4fjjLDB3yUnt1dZLJfOMb3/jGN77xjW984xvf+MZfgkan/tjbObu8bLez2Wy7fXl5ttN7rHcan31jK8Nrdeu9u6xtWwTaLOgf2Xb2rvfYbHmffaNLwevWdy41mxLLskGp2trlzmP3L2PZqF+1qdQQbrM8Lat9Vf9rlLZ51LbF2SVY2tle87Nvnguv26P0UrKbsLTsdq/5lfW1dXJpLU0vJmldnnxVde1caQx6muX7lUrFdV2Vgvyb/J/vMz9tXXU+m8wivHrbXrxhQq3iqqYpwTAl1a1ARDW7Xf9ayto6aS/cp0bISSxus6A0F36b9lHrs2lN4J1k5/gRdqoQtynUij93DSv7RTh6J3Pmp/luSnYTlrMkyXWPvoCu1mf5Wb4rpplMUVqzHOufzK9zmeS3vPSScJOS1KzLz/SrraskP6uyBnoRkoLUrKtPM8d6kp+9mnbOwXT9JMf6p/BrnNkJ9UzrOvlIuh377hPSnHoit94Av4jj9CfUHrfMz0tY4Ib4zXIk1rjVwNGZCtDeHL+Qoz0V4xad6slEgNY6wgMO15qI8WRbBK8mvnx98QFDZRKPtqOpjXZMcMMKmkBsjlZ7Cz61kx1rqFZZZwDEYVbiL928MU6i/PYEGCL2qhuP/iexa9uOBSYRW6O9UX/TGxPUtivACOrY/u3e5gn66W/PNB09CWcZIx5rqrUxijvWMhoacqu0z3on9U6z2W10u83n+snOWbvipKY41lRrZ6MEtTRB3tFNe6fO6PN27NQUXW2DFHsRQUvYBE1d0nodZozuZPXUBCfGuAlFHdug8M+uS5foRsSdvmQ4tTdEcRwmBH2Mo2t1vDCvLyPACP5GgkY9BUFTd3d4ydXz8gQnFOvrJNiJMhkRgqbun3Dz42dHWiWiVqLsZo0JXEMTJqj7df71urXq7u7eCiQjitr60vC2KEHdFWk2tIKgSFHeg67hugJxMqLYXhfBqB7kEzQlIQfXug9kWS6WdxkybO4wt3LmKFpX6yF4IkhQvxTSGu8lJLirMgg6O5muQKgM3c16qv6OGEHHfRa73oNBCdaYRmj65EOP/F2riOIavI0XehluoNfvBBsM7xyChCJVhVabK0Y79Dar9zWuKEGL82WmKtrOfCrMEzTn6wz9OfzkCY+hRJVLW9kU65ZAOahbfAtsdV+vh+8PkZNJrr1q1i9nKOpj42r6HE1Vwx+/vhrBKBJyqgn9jnOV5vVDXzYKRhBQgrKcXBtWCWdJLs7ReJnH01R3DVHxTOPXgw7q0FqDB8pNnqK8N1UJPVKynWQINI4mi3c4oZHGDO1sFYJhOoq7UdN8Ri7w+hYUkuwokgQvF5mov56m6x85iuqvmKC2QiPECUrsMSbvqb9AjwbC6eJsZpGhZCYY0gwWBb1Da/n9xSu+EapdNj/ZmKc3R9CPb22GoZNkmGnikVFdyZ+GsR43wgrLzL3rRX40F60mCKqTxbMMj2au1MW3XiurxP1LjRPqE/c4h9d+YY5buVyrkooiyWSq3xjDTBf9jakpapfLEaShkBMJGSrqvSWdJ2FXpbVSiOnacWCPGILRIkYT11Nt2aAYpmuojpoMJ9OUp/yKcm1XUoEsW0/GGJxhpsPT0+WSN1pSoDrqPMMLnwpz9KDF+kw/kMMw84h5VNNfrsgIRYjpqA5f1HswJvyqe6wSSZ+1HB7DTA/NbpYT4pGF6ygjVfP6xoQfu01harOruAwzbUyKRE8taBGKVlZDKwrTApc1irEJIvyIXs394nyGGTQNt8jdpg371AqxWA/HicZ9RLBY28MKQHd+sQBDNGa46S3Ra2uom9HBerAVS5DVghkvXvDBMwylf0BxnGCmaGe1djpLrOMidEAjjFpMtPzDCT4vrJxhqFbvQYptRE/V1DGRiBArKVzo9/L6EcEqniVAPniOYfAHun4Lu6qfsrfYsdFIAUghM24x8TR0LhDCDIvGG/QF2F4HEaKdJju9QkVogmngONBjLkZaCIQMhnLhCfoYpqd+qhKjwQn2kB9t/hQwwWlFyGEo/4QyQsyfkvQ0RT+DhApEhDrU2fbuqQC5BH04ai0ylO8hU8S6Gn6KgOGRsglxpC605o16mTJHRRcDIcRQ2iuTaxnn0J0hF1dTFFFNC4uFYCh8Db0MbzdJZzUEZhmqEr2Y8Qp8EAuKdtYSPRjWsxARhk33BYSBgiNBhgteZCipe+RqQR/6JJIqu+Jb321NYzstvQ6suC7MdmBAIF3HOYaSuktMsXANfPKRLUTTEg2JTRspKkARegE/0MOBkMEw8jYB9FWIECtZW0xNexrSQAQF8WTgey0hQawxvsBQUom3MaCgeIRYoiZYQ7WxUAHla63Qy+Bw4EDIZChRb1OEvgz5Jf2skJo2bMTPOJCqXRtcI1yoCLkMqSkakCVesX2Em7VFgn7dQpRUB67g9WWZo6PstiOToaTW5OAP8NkuqqZ1AYZXGqKkkK69EkcKzhxM4XA8AMRQIiGjAMVEmy1EXyQ39dqIkoKh4i3gFkzPnC8FGRJ/GkA1BtJ4c7MCdXAXU1IJSCtpqED5STrXw4EMqbMJIF+DVBiaxdxHmaBusZUULJsGBY4IHb7mwAyJEAsD4NOXiJoKGOIOMj8KKulDgIvQFPDgDBlKMqymbF/jatzJU1JXsG8W9IiBjIuwwifIqorUqiwDn24g36Zd8gyxpSFlhQYsaBocR8o3DJJGMZzHnmxAy5FGrq/x+qZN5CSoA6Xu1wYaC1mbG7M4YjBUa2DQRwrhCreCekTOajlQq+chwNIZAS+DMtwNHoCPd9gMVa6r6SFKakIq3pex7jZYTC6CXdiCVaKHxAvuaYw7JFbYwOdbaFGx2N2GwfSOag3sDiObGD5v+KSNlIaQI+4aiJKaoqMuzDRF3QVdDZJ9V3jByUbMsA58/rXA/DxZIeJHKepswwJTUywiQpqWQAM5kgaq3LWBiFC4z85ONVXQmTbZDFVOAYUdY9GhBcNfyE9SXwPDX0Pg8x5SQfl4c7+OVE5gcvKOmCGnKEwyZN6xuvsOLcC6NXX8qxBHA+rcG9vmGdvEEJA2qAlu0mQRhvioaw9plIKOEWMoPjTIivhMhmdIKwOv1XbYOgfmbJl/2V8FL0jN8AZawEpkKfDq4oy9EJ4uuUF6x+IPekASTZgh1t3HE0WkuIQ9I8IQjJ8wkKvADJHNUnh3cwJkD1IHvTCSXaRg+IEwBEWCnAzjRGHER8E5JqJfjKEpCP9hfy1szUjIB6vYKSxEhiBDzM8LH2X1/mHfL/w7IU1TsECYAkna4c0/TF0+RBl2scToOS1DvGJDcgWo3U3UBXHb/4jO8LwjDOHsvYFoKd4YwhiCX9VipwjqL6gsAODdI70sF+y7YK39NTNE9FqtgunIIk4L7OSWoXOYp8EZYiMYcL3OjqBqzRBLve+RKSNGdNsMQ7gqYTtTtQq2kRYwKBTZ/UhGyOlg5dPSDOvgCraroU35UwGG99i+B2PXChsAwxlmkRQFKrYJmAvoHmfA72MMDbmMNLPgRddIIovuNmPpkwMV2wR37CWyHMCDlAkMDGzIwWTs/g8RhngYxlJgaEgpgymMWqMUcW9Dt1cRJWXtPJ6nTdWFVjJ+G3Z7NpyKCQIsKg4KnCOzjKThJb0kxkCkL/2XsYatpnRkRA4MhnpnQhskDNmelKWkmf+yb5NlTWNcIG26X4w1bM8dClGWjXton5OkXn94p54ZESqTwRLZC5ThCGPI8otIWlMLKcqF/umCx2m8jw8nIiJkOX40VR+hDA8whrAk8JZCOaIYFO7fXhMkW4OH8ZlgbIucWWGeYgwPcIZYIs1ScA/bQCzHh6CCgtx/G16fnl4P6bnn8bkF1M2orOIE60O7OMN99vaqugvN74RAZs3UWIoRy8AgCBJH29CdK2ZfsI/0of+zjzP8jfh+aPQjAvsuCWoJinPgzPuxvs4LENv9zWH4zg40ewZzNxA9z6JWZQZHfEyF3edpGgjDd5zhj1tkAxmchoyAnmhX92pFgGORMxbO7rc8IRtezu0PlOHhCLnR8gtzHbKzPuY4L8diuco6nDi+VfYe0guWqo8OUYaZHFsaJLix0+grzrl5dW+3Vi5OUKaHS9EFyIxDCxuF9HM4wUyJXV2ou+AMVgSP+zRTIrG93Wq1Vq1G557xT5sVdhtrgHU9PkochgdDxNVgNTvWV0iwnD/RzQI24/CAudIhHg4Jw1s2Q1UOkGoPG8BODaxf3gqQARfzlsdwP4dkNTVETelzAtdHEBt7HxQQM3RzeLAg4SLPbmSo1YDtTTPolkA6zB+EnsVLgPQEsnk8WBDkMUMs/sQqdr63ESSIeBlSk/zECsphnkcwczxC/H4ZqWYJWmuhaDIfJxJiaJTZa53RMZfhQYnd91Zr4BGIKRproMgh6BWxaFgp8RwNcTV5djeK1OzgAM8Uq0vRrODduWsDOdth3uR5jobkbflbxCcyTpRN4WmreVTd4mxY9bGha/02z8nZKBQFU9OigQUMSvFsFYo6b0JlYGAVV0VR+AQzB4iaEm8qc4RIS6llNdXkb4z30dbcTZ5vhsQQFayCKsv8vYhuZTkxOhXuOOppAdsCcG4VvhkSQ8wpSH1RLQZF7iU8XqUB35/Aux3wqtlXcgJmSAwxj3S+JcaxwDk07bRi1H2BeeInA9sCMM/zImZIDFEZIdk3Pdwp8qCURykNR13o0ZItTmdnpIiYIUlNcyVkk21PlsU2PjNHruDD802HM20Xgz5XEvEzHyUxJaVqijX3a0UZLTGm8B5tAbdq6jb/4dEhBgV8C+BCUEmpmuaRiQV6klwWnSPpnJkoSfK3Z6IP7PCK6BaAVMnnxJSUqmke2YOiQgQPXDHwfOY6IEtTd9S7Z/ELvQWoCJ1hXlRJSX2hIHVweAZZaIN+gubjnU1o6o4Zgf6na989pno37im+l0pqX4VfV8TYz2EBI3oyR9rnora6ncfeztXZ3dnVTu+x00374KoGp4NMQgW3vJ/iUFGQvmm42wIeQt4k/gT00SkIRooirKTU15SQ5DTc+IQfA7Qx0AcYYUfizfOSYDCM8COn5JCfK9z4BB9bsSlc8/b7JXLH3A5NEopSwlK36PEqYlFxHRhED4dhg4pQNBhG2Cc/CbZ1GW7QB9t6T3iTbjiij21Qyf2K+5kQioLFxPEGvcDE0zrQDXhbjSQWphRhKESkiJLi3ettvDyzEX4T6kd9JbUIacDIX2APuQuTN97E0zowfhYj+iBGkpGmCRURiBCRfaiJKcqbVtSuzDVCUlSkF2EmtMQc5k6j1GbT7qYZjjXg2+Emsai0VkhBhIg6m3gcKNhk0BgE/IEG6maWESEVopLHN1uiQRJOk3gVXBvRhjh2E6aVX06EkRDR9DSmWBCr+dPjrcAnSBLSZUVIiyiOnk6k+GcTLjUa7OPECbrbpKQom2ZBslPcn5KYEVEM5FT1ohBOo6eCc2ZSzCxJ19JlpEkcUH+K/oKToa7Cw3pfZOtFGsp9mqaaIyJMU1TMIceJ+xTx9GFxnT71dfxEYp4NhrGeN1+CgeZuaH+YIp5bKzys6z32rYfxY92LNQ7B8/wS+doMjmnIQE1xEvrp5KFAN1wAT/Fz+XlP2DI/aKBY1s1EIOmpgm23RRR341Euo7i6xzmdvBiD+6xJN7y71AnpLEI95UTFiUulY7L91cxxMHkxBm+wTwoj4Yo6SnGgCHgbNTFEavSvl3Wr3ml/8mITYoK8wTDqZVbxozGoIvACf6ipU47F4TIZQGN4P+XHe2j2uOpdMl2bBY37SumcSzE5Cxz8fBmkc6ytwcvPQBYXoOTQzswKsT6J/ZDiDXfTU91NjHQHheBBmGRr8CAn3pvEfjViguBNSHBlI4xwQCnm/+VTlGbmnQNDfnl65dmk13x6kWdeS4O+OCIm+JuqqPBODBehU87/5m9dU1VNzgIHhhH0h6esIrk7GPbpRxIrigIKSgiGgXAtRhjhUJgiNO8cGIXC/cv70/XgtdltNBrd5uvg+unt5b4w+z62UH7oizHmCa4YCZMIvY0YRcIRms0PT1oUYsweukjJb6yia/IyMfYjinx3E3KUqmVoOB8FfSuU2PtznZuI4Jq8zCxFftAYcwyVNQVJ+t4kkeFoKQ4Tayc4dqhKCZk+nSMphcP5YtJjvhZqEeYwIrg2NzpPMX8h/CZmOpxfpaJEaJK/K1f5k/uJi17kN0VwQnGUZsAyYlkOX5tXnGFG/79cS8WOvlxhtEGCE4oKp15cZEnMcpcetaiVI9TC1+jtiZ1LSBL8UDZKMKbIr/oZNOeQ+hphRb9RglOKF+q6xvJT8JMuNk8wDhpKPpdSU1eHk82NCa49TIAUSdjgvzl7jTClYWk7BEkCFzEkPlVbZoh0OThW5EMJ1pqqwThUxpqaHwq8x34dMM1hfizAdSbbCMb+ZlvWaH6MLXDDPiaJ2BiV0oW9aVV1/ItSTHDjJjhFbIwkAA83GjhMdajEFrgNE0wg1lTy/ecb86qmdB4rqJJbrbW9BPaViRxzm+Foqje50uRbtqihMQ6PYzEqpdG5u257dNzz0YRf7ng7PnQeCTHmc8PK0kdlFmHqlWEuPzHAbbqYOUyskZK8+FiTsppm9mJKb4sxAsKP4wRHoqy+4AEEjJ5P1DPB73i7LnQR+0pSjsrtzSraajruv7dKUn6f4WEWsJ+bchyTdJbI50zTqdzM0FNyn2iAs0jKkZIsjYZZ10zBknzWzQ6JcibofRH5jXE4y5GSVG6HH77EFyYRneR/DG9zs/Qov8+JEEzMcYxYjm6H/1quEx20mJeaSf68Yv1+vx0pc+y+mPwm+HGQmyNJaRIoo4vh+c2H5vuViiu5lYrvax8358OL0fjv55DLHXy2/2ThcP94kWTMszQLkFtI7/irqecsfhwoIEkxkKVfVnwJLEvyL6EXgahrOpbkw19cOQEc7h8I0aTkDv46djEOf0Q0KRaIhX9IyP34W9klQIjuHxwcH4fM6D+Ojw8O9v8vqH3jG9/4xjf+P/A/y0PhyDol+RsAAAAASUVORK5CYII=;labelPosition=center;verticalLabelPosition=bottom;align=center;verticalAlign=top;" parent="1" vertex="1">
          <mxGeometry x="-1606.56" y="1111.1799999999996" width="38.32" height="38.32" as="geometry" />
        </mxCell>
        <mxCell id="zVgAzkZR-FTV_eOpLG_5-310" style="edgeStyle=orthogonalEdgeStyle;rounded=0;orthogonalLoop=1;jettySize=auto;html=1;fontSize=12;" parent="1" source="cCAjc8YfBACK6hqS6SB_-1" target="zVgAzkZR-FTV_eOpLG_5-31" edge="1">
          <mxGeometry relative="1" as="geometry">
            <Array as="points">
              <mxPoint x="-2125" y="1680" />
              <mxPoint x="-2125" y="1680" />
            </Array>
            <mxPoint x="-2121" y="1644" as="sourcePoint" />
          </mxGeometry>
        </mxCell>
        <mxCell id="92VvLEKEfrq9LcXsSdEX-1" style="edgeStyle=orthogonalEdgeStyle;rounded=0;orthogonalLoop=1;jettySize=auto;html=1;" parent="1" source="92VvLEKEfrq9LcXsSdEX-2" target="92VvLEKEfrq9LcXsSdEX-3" edge="1">
          <mxGeometry relative="1" as="geometry" />
        </mxCell>
        <mxCell id="92VvLEKEfrq9LcXsSdEX-2" value="&lt;span style=&quot;background-color: rgb(255 , 255 , 255)&quot;&gt;Centos7&lt;/span&gt;" style="shadow=0;dashed=0;html=1;labelPosition=center;verticalLabelPosition=bottom;verticalAlign=top;align=center;outlineConnect=0;shape=mxgraph.veeam.3d.vm_linux;fillColor=#FFFFFF;" parent="1" vertex="1">
          <mxGeometry x="-1727" y="1341.59" width="46" height="60" as="geometry" />
        </mxCell>
        <mxCell id="92VvLEKEfrq9LcXsSdEX-4" style="edgeStyle=orthogonalEdgeStyle;rounded=0;orthogonalLoop=1;jettySize=auto;html=1;" parent="1" source="92VvLEKEfrq9LcXsSdEX-5" target="92VvLEKEfrq9LcXsSdEX-2" edge="1">
          <mxGeometry relative="1" as="geometry" />
        </mxCell>
        <mxCell id="92VvLEKEfrq9LcXsSdEX-5" value="C01.k8s.shift.com" style="aspect=fixed;html=1;points=[];align=center;image;fontSize=12;image=img/lib/mscae/Kubernetes.svg;fillColor=#FFFFFF;" parent="1" vertex="1">
          <mxGeometry x="-1729" y="1225.59" width="50" height="48" as="geometry" />
        </mxCell>
        <mxCell id="92VvLEKEfrq9LcXsSdEX-6" style="edgeStyle=orthogonalEdgeStyle;rounded=0;orthogonalLoop=1;jettySize=auto;html=1;" parent="1" source="92VvLEKEfrq9LcXsSdEX-7" target="92VvLEKEfrq9LcXsSdEX-8" edge="1">
          <mxGeometry relative="1" as="geometry" />
        </mxCell>
        <mxCell id="92VvLEKEfrq9LcXsSdEX-7" value="&lt;span style=&quot;background-color: rgb(255 , 255 , 255)&quot;&gt;Centos7&lt;/span&gt;" style="shadow=0;dashed=0;html=1;labelPosition=center;verticalLabelPosition=bottom;verticalAlign=top;align=center;outlineConnect=0;shape=mxgraph.veeam.3d.vm_linux;fillColor=#FFFFFF;" parent="1" vertex="1">
          <mxGeometry x="-1604.5" y="1341.59" width="46" height="60" as="geometry" />
        </mxCell>
        <mxCell id="92VvLEKEfrq9LcXsSdEX-9" style="edgeStyle=orthogonalEdgeStyle;rounded=0;orthogonalLoop=1;jettySize=auto;html=1;" parent="1" source="92VvLEKEfrq9LcXsSdEX-10" target="92VvLEKEfrq9LcXsSdEX-7" edge="1">
          <mxGeometry relative="1" as="geometry" />
        </mxCell>
        <mxCell id="92VvLEKEfrq9LcXsSdEX-26" value="" style="edgeStyle=orthogonalEdgeStyle;rounded=0;orthogonalLoop=1;jettySize=auto;html=1;" parent="1" source="92VvLEKEfrq9LcXsSdEX-10" target="92VvLEKEfrq9LcXsSdEX-7" edge="1">
          <mxGeometry relative="1" as="geometry" />
        </mxCell>
        <mxCell id="92VvLEKEfrq9LcXsSdEX-27" value="" style="edgeStyle=orthogonalEdgeStyle;rounded=0;orthogonalLoop=1;jettySize=auto;html=1;" parent="1" source="92VvLEKEfrq9LcXsSdEX-10" target="92VvLEKEfrq9LcXsSdEX-7" edge="1">
          <mxGeometry relative="1" as="geometry" />
        </mxCell>
        <mxCell id="92VvLEKEfrq9LcXsSdEX-28" value="" style="edgeStyle=orthogonalEdgeStyle;rounded=0;orthogonalLoop=1;jettySize=auto;html=1;" parent="1" source="92VvLEKEfrq9LcXsSdEX-10" target="92VvLEKEfrq9LcXsSdEX-7" edge="1">
          <mxGeometry relative="1" as="geometry" />
        </mxCell>
        <mxCell id="92VvLEKEfrq9LcXsSdEX-10" value="W01.k8s.shift.com" style="aspect=fixed;html=1;points=[];align=center;image;fontSize=12;image=img/lib/mscae/Kubernetes.svg;fillColor=#FFFFFF;" parent="1" vertex="1">
          <mxGeometry x="-1606.5" y="1225.59" width="50" height="48" as="geometry" />
        </mxCell>
        <mxCell id="92VvLEKEfrq9LcXsSdEX-11" style="edgeStyle=orthogonalEdgeStyle;rounded=0;orthogonalLoop=1;jettySize=auto;html=1;" parent="1" source="92VvLEKEfrq9LcXsSdEX-12" target="92VvLEKEfrq9LcXsSdEX-13" edge="1">
          <mxGeometry relative="1" as="geometry" />
        </mxCell>
        <mxCell id="92VvLEKEfrq9LcXsSdEX-12" value="&lt;span style=&quot;background-color: rgb(255 , 255 , 255)&quot;&gt;Centos7&lt;/span&gt;" style="shadow=0;dashed=0;html=1;labelPosition=center;verticalLabelPosition=bottom;verticalAlign=top;align=center;outlineConnect=0;shape=mxgraph.veeam.3d.vm_linux;fillColor=#FFFFFF;" parent="1" vertex="1">
          <mxGeometry x="-1484.5" y="1341.59" width="46" height="60" as="geometry" />
        </mxCell>
        <mxCell id="92VvLEKEfrq9LcXsSdEX-14" style="edgeStyle=orthogonalEdgeStyle;rounded=0;orthogonalLoop=1;jettySize=auto;html=1;" parent="1" source="92VvLEKEfrq9LcXsSdEX-15" target="92VvLEKEfrq9LcXsSdEX-12" edge="1">
          <mxGeometry relative="1" as="geometry" />
        </mxCell>
        <mxCell id="92VvLEKEfrq9LcXsSdEX-15" value="W02.k8s.shift.com" style="aspect=fixed;html=1;points=[];align=center;image;fontSize=12;image=img/lib/mscae/Kubernetes.svg;fillColor=#FFFFFF;" parent="1" vertex="1">
          <mxGeometry x="-1486.5" y="1225.59" width="50" height="48" as="geometry" />
        </mxCell>
        <mxCell id="92VvLEKEfrq9LcXsSdEX-16" style="edgeStyle=orthogonalEdgeStyle;rounded=0;orthogonalLoop=1;jettySize=auto;html=1;" parent="1" source="92VvLEKEfrq9LcXsSdEX-17" target="92VvLEKEfrq9LcXsSdEX-18" edge="1">
          <mxGeometry relative="1" as="geometry">
            <mxPoint x="-1360" y="1440" as="targetPoint" />
            <Array as="points">
              <mxPoint x="-1344" y="1410" />
              <mxPoint x="-1344" y="1410" />
            </Array>
          </mxGeometry>
        </mxCell>
        <mxCell id="92VvLEKEfrq9LcXsSdEX-44" style="edgeStyle=orthogonalEdgeStyle;rounded=0;orthogonalLoop=1;jettySize=auto;html=1;" parent="1" source="92VvLEKEfrq9LcXsSdEX-17" target="92VvLEKEfrq9LcXsSdEX-39" edge="1">
          <mxGeometry relative="1" as="geometry">
            <Array as="points">
              <mxPoint x="-1190" y="1340" />
              <mxPoint x="-1190" y="1340" />
            </Array>
          </mxGeometry>
        </mxCell>
        <mxCell id="92VvLEKEfrq9LcXsSdEX-17" value="&lt;span style=&quot;background-color: rgb(255 , 255 , 255)&quot;&gt;Centos7&lt;/span&gt;" style="shadow=0;dashed=0;html=1;labelPosition=center;verticalLabelPosition=bottom;verticalAlign=top;align=center;outlineConnect=0;shape=mxgraph.veeam.3d.vm_linux;fillColor=#FFFFFF;" parent="1" vertex="1">
          <mxGeometry x="-1367" y="1310" width="46" height="60" as="geometry" />
        </mxCell>
        <mxCell id="92VvLEKEfrq9LcXsSdEX-19" style="edgeStyle=orthogonalEdgeStyle;rounded=0;orthogonalLoop=1;jettySize=auto;html=1;" parent="1" source="92VvLEKEfrq9LcXsSdEX-20" target="92VvLEKEfrq9LcXsSdEX-17" edge="1">
          <mxGeometry relative="1" as="geometry">
            <Array as="points">
              <mxPoint x="-1344" y="1310" />
              <mxPoint x="-1344" y="1310" />
            </Array>
          </mxGeometry>
        </mxCell>
        <mxCell id="92VvLEKEfrq9LcXsSdEX-20" value="V01.k8s.shift.com" style="aspect=fixed;html=1;points=[];align=center;image;fontSize=12;image=img/lib/mscae/Kubernetes.svg;fillColor=#FFFFFF;" parent="1" vertex="1">
          <mxGeometry x="-1367" y="1225.59" width="50" height="48" as="geometry" />
        </mxCell>
        <mxCell id="92VvLEKEfrq9LcXsSdEX-21" style="edgeStyle=orthogonalEdgeStyle;rounded=0;orthogonalLoop=1;jettySize=auto;html=1;" parent="1" source="92VvLEKEfrq9LcXsSdEX-22" target="92VvLEKEfrq9LcXsSdEX-23" edge="1">
          <mxGeometry relative="1" as="geometry">
            <Array as="points">
              <mxPoint x="-1224" y="1430" />
              <mxPoint x="-1224" y="1430" />
            </Array>
          </mxGeometry>
        </mxCell>
        <mxCell id="92VvLEKEfrq9LcXsSdEX-43" style="edgeStyle=orthogonalEdgeStyle;rounded=0;orthogonalLoop=1;jettySize=auto;html=1;" parent="1" source="92VvLEKEfrq9LcXsSdEX-22" target="92VvLEKEfrq9LcXsSdEX-40" edge="1">
          <mxGeometry relative="1" as="geometry">
            <Array as="points">
              <mxPoint x="-1160" y="1400" />
              <mxPoint x="-1160" y="1400" />
            </Array>
          </mxGeometry>
        </mxCell>
        <mxCell id="92VvLEKEfrq9LcXsSdEX-22" value="&lt;span style=&quot;background-color: rgb(255 , 255 , 255)&quot;&gt;Centos7&lt;/span&gt;" style="shadow=0;dashed=0;html=1;labelPosition=center;verticalLabelPosition=bottom;verticalAlign=top;align=center;outlineConnect=0;shape=mxgraph.veeam.3d.vm_linux;fillColor=#FFFFFF;" parent="1" vertex="1">
          <mxGeometry x="-1249.74" y="1370" width="46" height="60" as="geometry" />
        </mxCell>
        <mxCell id="92VvLEKEfrq9LcXsSdEX-24" style="edgeStyle=orthogonalEdgeStyle;rounded=0;orthogonalLoop=1;jettySize=auto;html=1;" parent="1" source="92VvLEKEfrq9LcXsSdEX-25" target="92VvLEKEfrq9LcXsSdEX-22" edge="1">
          <mxGeometry relative="1" as="geometry">
            <Array as="points">
              <mxPoint x="-1227" y="1310" />
              <mxPoint x="-1227" y="1310" />
            </Array>
          </mxGeometry>
        </mxCell>
        <mxCell id="92VvLEKEfrq9LcXsSdEX-25" value="V02.k8s.shift.com" style="aspect=fixed;html=1;points=[];align=center;image;fontSize=12;image=img/lib/mscae/Kubernetes.svg;fillColor=#FFFFFF;" parent="1" vertex="1">
          <mxGeometry x="-1249.74" y="1224.59" width="50" height="48" as="geometry" />
        </mxCell>
        <mxCell id="92VvLEKEfrq9LcXsSdEX-29" style="edgeStyle=orthogonalEdgeStyle;rounded=0;orthogonalLoop=1;jettySize=auto;html=1;fontSize=12;" parent="1" source="92VvLEKEfrq9LcXsSdEX-3" target="zVgAzkZR-FTV_eOpLG_5-221" edge="1">
          <mxGeometry relative="1" as="geometry">
            <Array as="points">
              <mxPoint x="-1616" y="1560" />
              <mxPoint x="-1739" y="1560" />
            </Array>
            <mxPoint x="-1728.9" y="1524.5900000000001" as="sourcePoint" />
            <mxPoint x="-1728.9" y="1594.5900000000001" as="targetPoint" />
          </mxGeometry>
        </mxCell>
        <mxCell id="92VvLEKEfrq9LcXsSdEX-30" style="edgeStyle=orthogonalEdgeStyle;rounded=0;orthogonalLoop=1;jettySize=auto;html=1;fontSize=12;" parent="1" source="92VvLEKEfrq9LcXsSdEX-8" target="zVgAzkZR-FTV_eOpLG_5-221" edge="1">
          <mxGeometry relative="1" as="geometry">
            <Array as="points">
              <mxPoint x="-1494" y="1560" />
              <mxPoint x="-1739" y="1560" />
            </Array>
            <mxPoint x="-1606.1999999999998" y="1525.5900000000001" as="sourcePoint" />
            <mxPoint x="-1729" y="1594.5900000000001" as="targetPoint" />
          </mxGeometry>
        </mxCell>
        <mxCell id="92VvLEKEfrq9LcXsSdEX-31" style="edgeStyle=orthogonalEdgeStyle;rounded=0;orthogonalLoop=1;jettySize=auto;html=1;fontSize=12;" parent="1" source="92VvLEKEfrq9LcXsSdEX-13" target="zVgAzkZR-FTV_eOpLG_5-221" edge="1">
          <mxGeometry relative="1" as="geometry">
            <Array as="points">
              <mxPoint x="-1461" y="1560" />
              <mxPoint x="-1829" y="1560" />
            </Array>
            <mxPoint x="-1596.1999999999998" y="1535.5900000000001" as="sourcePoint" />
            <mxPoint x="-1719" y="1604.5900000000001" as="targetPoint" />
          </mxGeometry>
        </mxCell>
        <mxCell id="92VvLEKEfrq9LcXsSdEX-32" style="edgeStyle=orthogonalEdgeStyle;rounded=0;orthogonalLoop=1;jettySize=auto;html=1;fontSize=12;" parent="1" source="92VvLEKEfrq9LcXsSdEX-18" target="zVgAzkZR-FTV_eOpLG_5-221" edge="1">
          <mxGeometry relative="1" as="geometry">
            <Array as="points">
              <mxPoint x="-1350" y="1560" />
              <mxPoint x="-1829" y="1560" />
            </Array>
            <mxPoint x="-1586.1999999999998" y="1545.5900000000001" as="sourcePoint" />
            <mxPoint x="-1709" y="1614.5900000000001" as="targetPoint" />
          </mxGeometry>
        </mxCell>
        <mxCell id="92VvLEKEfrq9LcXsSdEX-33" style="edgeStyle=orthogonalEdgeStyle;rounded=0;orthogonalLoop=1;jettySize=auto;html=1;fontSize=12;" parent="1" source="92VvLEKEfrq9LcXsSdEX-23" target="zVgAzkZR-FTV_eOpLG_5-221" edge="1">
          <mxGeometry relative="1" as="geometry">
            <Array as="points">
              <mxPoint x="-1230" y="1560" />
              <mxPoint x="-1829" y="1560" />
            </Array>
            <mxPoint x="-1576.1999999999998" y="1555.5900000000001" as="sourcePoint" />
            <mxPoint x="-1699" y="1624.5900000000001" as="targetPoint" />
          </mxGeometry>
        </mxCell>
        <mxCell id="92VvLEKEfrq9LcXsSdEX-36" value="&lt;span style=&quot;background-color: rgb(255 , 255 , 255)&quot;&gt;glusterfs&lt;br&gt;&lt;/span&gt;Distributed Replicated&lt;br&gt;Volume&amp;nbsp;/dev/sdb" style="shadow=0;dashed=0;html=1;labelPosition=center;verticalLabelPosition=bottom;verticalAlign=top;align=center;outlineConnect=0;shape=mxgraph.veeam.3d.remote_storage;fillColor=#FFFFFF;fontSize=12;" parent="1" vertex="1">
          <mxGeometry x="-1104.29" y="1223.09" width="52" height="62" as="geometry" />
        </mxCell>
        <mxCell id="92VvLEKEfrq9LcXsSdEX-3" value="&lt;span style=&quot;background-color: rgb(255 , 255 , 255)&quot;&gt;vnic:192.168.100.132&lt;br&gt;&lt;/span&gt;" style="shadow=0;dashed=0;html=1;labelPosition=center;verticalLabelPosition=bottom;verticalAlign=top;align=center;outlineConnect=0;shape=mxgraph.veeam.3d.service_vnic;fillColor=#FFFFFF;" parent="1" vertex="1">
          <mxGeometry x="-1740" y="1451.59" width="72" height="64" as="geometry" />
        </mxCell>
        <mxCell id="92VvLEKEfrq9LcXsSdEX-8" value="&lt;span style=&quot;background-color: rgb(255 , 255 , 255)&quot;&gt;vnic:192.168.100.145&lt;br&gt;&lt;/span&gt;" style="shadow=0;dashed=0;html=1;labelPosition=center;verticalLabelPosition=bottom;verticalAlign=top;align=center;outlineConnect=0;shape=mxgraph.veeam.3d.service_vnic;fillColor=#FFFFFF;" parent="1" vertex="1">
          <mxGeometry x="-1617.5" y="1451.59" width="72" height="64" as="geometry" />
        </mxCell>
        <mxCell id="92VvLEKEfrq9LcXsSdEX-13" value="&lt;span style=&quot;background-color: rgb(255 , 255 , 255)&quot;&gt;vnic:192.168.100.150&lt;br&gt;&lt;/span&gt;" style="shadow=0;dashed=0;html=1;labelPosition=center;verticalLabelPosition=bottom;verticalAlign=top;align=center;outlineConnect=0;shape=mxgraph.veeam.3d.service_vnic;fillColor=#FFFFFF;" parent="1" vertex="1">
          <mxGeometry x="-1497.5" y="1451.59" width="72" height="64" as="geometry" />
        </mxCell>
        <mxCell id="92VvLEKEfrq9LcXsSdEX-18" value="&lt;span style=&quot;background-color: rgb(255 , 255 , 255)&quot;&gt;vnic:192.168.100.154&lt;br&gt;&lt;/span&gt;" style="shadow=0;dashed=0;html=1;labelPosition=center;verticalLabelPosition=bottom;verticalAlign=top;align=center;outlineConnect=0;shape=mxgraph.veeam.3d.service_vnic;fillColor=#FFFFFF;" parent="1" vertex="1">
          <mxGeometry x="-1380" y="1450.59" width="72" height="64" as="geometry" />
        </mxCell>
        <mxCell id="92VvLEKEfrq9LcXsSdEX-23" value="&lt;span style=&quot;background-color: rgb(255 , 255 , 255)&quot;&gt;vnic:192.168.100.156&lt;br&gt;&lt;/span&gt;" style="shadow=0;dashed=0;html=1;labelPosition=center;verticalLabelPosition=bottom;verticalAlign=top;align=center;outlineConnect=0;shape=mxgraph.veeam.3d.service_vnic;fillColor=#FFFFFF;" parent="1" vertex="1">
          <mxGeometry x="-1260" y="1450.59" width="72" height="64" as="geometry" />
        </mxCell>
        <mxCell id="92VvLEKEfrq9LcXsSdEX-38" value="&lt;span style=&quot;background-color: rgb(255 , 255 , 255)&quot;&gt;glusterfs&lt;br&gt;&lt;/span&gt;Distributed Replicated&lt;br&gt;Volume&amp;nbsp;/dev/sdc" style="shadow=0;dashed=0;html=1;labelPosition=center;verticalLabelPosition=bottom;verticalAlign=top;align=center;outlineConnect=0;shape=mxgraph.veeam.3d.remote_storage;fillColor=#FFFFFF;fontSize=12;" parent="1" vertex="1">
          <mxGeometry x="-969.94" y="1223.09" width="52" height="62" as="geometry" />
        </mxCell>
        <mxCell id="92VvLEKEfrq9LcXsSdEX-40" value="&lt;span style=&quot;background-color: rgb(255 , 255 , 255)&quot;&gt;V02.k8s.shift.com&lt;/span&gt;" style="rounded=1;whiteSpace=wrap;html=1;fillColor=#ffe6cc;strokeColor=#d79b00;verticalAlign=bottom;" parent="1" vertex="1">
          <mxGeometry x="-1150" y="1385.59" width="270" height="142" as="geometry" />
        </mxCell>
        <mxCell id="92VvLEKEfrq9LcXsSdEX-41" value="&lt;span style=&quot;background-color: rgb(255 , 255 , 255)&quot;&gt;glusterfs&lt;br&gt;&lt;/span&gt;Distributed Replicated&lt;br&gt;Volume&amp;nbsp;/dev/sdb" style="shadow=0;dashed=0;html=1;labelPosition=center;verticalLabelPosition=bottom;verticalAlign=top;align=center;outlineConnect=0;shape=mxgraph.veeam.3d.remote_storage;fillColor=#FFFFFF;fontSize=12;" parent="1" vertex="1">
          <mxGeometry x="-1104.29" y="1395.59" width="52" height="62" as="geometry" />
        </mxCell>
        <mxCell id="92VvLEKEfrq9LcXsSdEX-42" value="&lt;span style=&quot;background-color: rgb(255 , 255 , 255)&quot;&gt;glusterfs&lt;br&gt;&lt;/span&gt;Distributed Replicated&lt;br&gt;Volume&amp;nbsp;/dev/sdc" style="shadow=0;dashed=0;html=1;labelPosition=center;verticalLabelPosition=bottom;verticalAlign=top;align=center;outlineConnect=0;shape=mxgraph.veeam.3d.remote_storage;fillColor=#FFFFFF;fontSize=12;" parent="1" vertex="1">
          <mxGeometry x="-969.94" y="1395.59" width="52" height="62" as="geometry" />
        </mxCell>
        <mxCell id="cCAjc8YfBACK6hqS6SB_-1" value="&lt;span style=&quot;background-color: rgb(255 , 255 , 255)&quot;&gt;Client01&lt;br&gt;192.168.100.134&lt;/span&gt;" style="shadow=0;dashed=0;html=1;labelPosition=center;verticalLabelPosition=bottom;verticalAlign=top;align=center;outlineConnect=0;shape=mxgraph.veeam.3d.workstation;fillColor=#FFFFFF;" vertex="1" parent="1">
          <mxGeometry x="-2150" y="1550" width="49.03" height="40" as="geometry" />
        </mxCell>
        <mxCell id="cCAjc8YfBACK6hqS6SB_-4" style="edgeStyle=orthogonalEdgeStyle;rounded=0;orthogonalLoop=1;jettySize=auto;html=1;exitX=0.5;exitY=1;exitDx=0;exitDy=0;" edge="1" parent="1" source="cCAjc8YfBACK6hqS6SB_-2" target="cCAjc8YfBACK6hqS6SB_-1">
          <mxGeometry relative="1" as="geometry" />
        </mxCell>
        <mxCell id="cCAjc8YfBACK6hqS6SB_-2" value="Talend Open Studio" style="shape=image;verticalLabelPosition=bottom;labelBackgroundColor=#ffffff;verticalAlign=top;aspect=fixed;imageAspect=0;image=data:image/jpeg,/9j/4AAQSkZJRgABAQAAAQABAAD/4QBsRXhpZgAASUkqAAgAAAADADEBAgAHAAAAMgAAABICAwACAAAAAgACAGmHBAABAAAAOgAAAAAAAABHb29nbGUAAAMAAJAHAAQAAAAwMjIwAqAEAAEAAAAnAgAAA6AEAAEAAAAnAgAAAAAAAP/bAIQABgYGBgYGBwgIBwoKCQoKDg0MDA0OFQ8QDxAPFSAUGBQUGBQgHSMcGhwjHTMoJCQoMzsyLzI7SEBASFpWWnZ2nwEGBgYGBgYHCAgHCgoJCgoODQwMDQ4VDxAPEA8VIBQYFBQYFCAdIxwaHCMdMygkJCgzOzIvMjtIQEBIWlZadnaf/8IAEQgCJwInAwEiAAIRAQMRAf/EADYAAQADAAMBAQAAAAAAAAAAAAAGBwgDBAUBAgEBAAIDAQEBAAAAAAAAAAAAAAUGAgMEAQgH/9oADAMBAAIQAxAAAADVIAAAAAAAAAAB1zsIDW/XyaG8/JcWkODXsTzA7OHQfjUs36LT4KzbtNj81ZGVq+xSTBoX38t/NPRtKRYL9Lk690siT/h778QyXcHdyjDMAAAAAAAAAAAAAAAAAAAA+Vts12TD86QOZhrmrHxUxDfn9HRygAAAAAAAAfmSR1jsva4cUckZJ72ZSvKFnJ2OHtAAAAAAAAAAAAAAAAHie+e3X9O1TOQk1hPxOwAZ6gAAAAAD59AAAAAAH7/B7ZGhsY80dJ70Zx0DXLH3RzdIAAAAAAAAAAAAB1879PNPM2+b+bRVg7OEAAAAAASnHZ1bluH1azZ6th2g3P0YZ8va2P7BXvJEhGgAAAAAJFHWOevp5gu/q7ZL2fj9w0yAAAAAAAAAAA8vgyX38HqQAtVTDZqAAAAHw+u5O9W+uPzomb8EhkTVE69OLlP0IqVAUfeH536cGdfdMdm4PHbRkA7uGsne6HZw/R7iAAAABbOmMHWBDzmunT7lbsYeegAAAAAAAPD7GQ+/h60eLZUAywAAAAfqxL8jpPO9w299hJzy/U8+vOXrtNmKCyEfsL9YgsPZq1e4+SEmwHid/IHdw6y9jBvsSEfttl2yeCQsutbF9Pn35FgO+IdLRONloVhNwXwbdIAAAE+1dhOw4ia1u6varNlB6AAAAAA63YzT080YgZcaaGeoAAA+3Pp6a90XPe5WrN+f1FKA1bb5pSovk9Ad/wA/6kYwPcQLOvzGv5jpTd0Px9yc3VPIIS8MGep8+juWXVDT0bCm+BrHhZvWUC7kyiJfGUS3pQE9A0U5OOZhAeAAAW1p7A+h4KwXmK/YAAAAAB4WWMCzD3/OuFPDr4QAAHc59XcMhH7ZRqr2n3aFrqGTkHz8BNQYPAAAAAAAAAAOW6KSaOnd/bxfqWs2iP5h3TEtunGT2vFs9XD3AABz8B7sGc4r2VU7d2hHSIAAAHzKlxZPnoEJ+ugAAPT4dacMj3ZYrCr2j0Msdfp2mrB2x4AAAB2JPwdEQ5bbldLls88Uwh91iA7tAAAAADvdF57rCysG6XrdnnmP9vxPTvxi9LzbVUg9xAAXlRvPo6t5orKqXdAxyAAcPNU23VRUTLtSAy1gAPvy6NPROrYRqn3Hxcn9ny7RVg7o8AAACSWP4dm/i1w63ZPzyaDD2k4fMIf9K0AJrjAAAAAAdjrnurrMwlr2sWryMob2z/t1UKLFWQAALO1XgfYtfsk0EFOAAfjHGjMiT8B8E9XgAAJNsiCWPU7f1cg2JRMnGBMwYAAAAFn2bWVm/Pl7CqSAeKTh8wh/0rQAmuMAAAAAABJ4wxz3bzZz0nTrpjaHbCyDZK1xjvjQAFo1dz6ujeaPSGk3YMch0vfM1VP3+hdqQG7nAAWPXWwI6Tm8UleU4CwVzwFwpoPAAAAALPs2srN+fL2FUkA8UnD5hD/pWgBNcYAAAAAAAHJr/Hk8j5PX2XdQxevWHFzk47jTAeAAX7fuLtoVa2fRFyir7QzP3cVOfS30wAAfCe69qO3ancIdje26jmoQJKKAAAAAAs+zays358vYVSQDxWkfutc4mlF1unXSi6xSi6+ls8zx1+bh/bKkGeAAAAD78PdcWFlPVlQuOT611dlCwV/6O+NAA/Wy8Y6Hipm9BV7OxTrnE89BcQn64AA7nTsfVv0/+/RqqnXLNPQ+fbrSA9xAAAAAAs+zays358vYVSQAAAAQac0rbYyGj6Bo4AAAAAHPtrD2koiauLEO5Mv8PfUostWAAWNXPq6ejcrjUi8V9kjRudLTVQlIkABovOOxoqYm+YdO4mjpGPizVYAAAAAACz7NrKzfny9hVJAPBWEeu8TeCj3VrvBR4ufOvtRy8w4XWGAAAAAAWXWnr6ejcdPW7FqjcMZP1+bpSAeAPn0924iCkXmvaUs+sLZUg6+IAe/jn4u4axuGtWfx8S7byf0aIaJ+uAAAAAAAWfZtZWb8+XsKpIB4pOHzCH/StACa4wAAAAAAAAH4/c2w3aq9TxvepN2wj1NBUVb6h0h1cQAGj3hKhc4dX03hFnq4dHIB7uw6nvKsWoImWdTtvfMfQbWmSrbUfo744AAAAACz7NrKzfny9hVJAPFJw+YQ/wClaAE1xgAAAAAAADke2ZqTwJLT7mHF2IRN2eGDOC16oulJDdoAuZ5SrWvxYRN4RYq8G/lfPvx7rOyKTuym3QOTrA8LD+vMi2St/RMwYAAAAAFn2bWVm/Pl7CqSAeKTh8wh/wBK0AJrjAAAAAAAAd7o8/mzeP68T26LegxyAo7O1z0xbqgHfHAWeK3ZPPgFn1hNw4dPGBIdjYYk8ZK7TVRa1as33g8/K3Rz8sALZUQ2agAAAAALPs2srN+fL2FUkA8UnD5hD/pWgBNcYAAAAAAAAF26NwNcMHYNMPO9Gvz6PQrPUnGdHzi0VUPcQLPFbsnsUxojO8rGB3xwAHPuHCmy4Se9fE288R69nhCfroAAAAAAFn2bWVm/Pl7CqSAeKTh8wh/0rQAmuMAAAAAAAAB+P36nmexvb4/ApF4xz0/1+bvRw9wAAs8VuyXHkzb2Juvm4xMwgADR+cLM4ZDV2XdRVHX7DmF8+26nAAAAAAAWfZtZWb8+XsKpIB4pOHzCH/StACa4wAAAAAAAAFjVzo3i77tqS28x16x1CLdTQAALPFbsmqcUbZzHhvqEWeqAAO/0PnmW7OGv7VpV3wf1bVqq4U4N3OAAAAABZ9m1lZvz5ewqkgHik4fMYd9K0AJrjAAAAAAAAA5drZq1nXbLw4m03kndp+icgAAALPFbsmq6qtXz4yXwp97fUu9GBiABYmtcEbJr9k6uPd9ZKeV2LBXAAAAAALPs2r7Q+fb2FTkAKlr28qO/fKX8FyiB+3v4TSGcO74O7QAAAAAJphtvuy/zH6Xdc81bzcNypobecAACzxW7JqsQ05lmq9a5KttSCQjAAFo1d91bt8QvrzynXTBXHdNLW+nBv5gAAAAJrc+c9D/i1v5R+dTgHyGTR3aaaXKtUdW0x9hBdnHnvRFO2eOgo/bKgAAAAB91xUOn69ZGaLox15lwixVkAAACzxW7JqsQ05+MZ7Pp+Sjcyi11EAACX7EwXe8NOXxjraMTi5XGLu9K2U8PfAAAAFuVH2YPt0mjsi+dr0HNsAAAeD7346NeafxKor9NfnwdmkAAB73k644ZGTej+6LrFnrSCFypgZ6gAAALPFbsmqxDTjg5zzFkY1VlW4U8O3gAAcvEe6xsnC2vqva49lfelRbNeYnNw2SsA8AAAA7Fn1Qhe3SfZzdIvzWwXeqf9QvTayqOlsXH0qM8if4rcr7wF4hgsceAAA5GjObs71uI5Urb5GRvR8e0VcO6OAAAAAs8VuyarENOAfMm6zj3bxYmdzp3Cmg8AAe54bHPbUgxHrCrWyO5f3dDtmrGySRuy1gMsAAAAAAAAAAAAHY9XUfDIxy3Ucq9n7WQkbsddCTiQAAAAALPFbsmqxDTgAFN5q3xmCfgKlE9XgAAHqeW8y1nY+Cb3r1kvDO+keaOkMEfjYGerHW4I+/JCNAAAHw+v3xvfoeAAACaYbYZa9vWJBT/AJfqfij4qUnOV/O4LPVw7o8AAAAAACzxW7JqsQ04AA6fce+Y5he38gWmqx8ScUAAABNNIY75I+S3t8y/fNesXg0tq9njgvh3BV8vD5vWRDpGN8h+LGyxXvPOSq2yNxqyXN0Y3hu7sc2Ouxd+PXk4ry1h2Tx9md5/pj34uWrOyv1HYqVkURpaopSLm8CJ6vBs1AAAAAAAAWeK3ZNViGnAAAEdkTLHEngbWyVaqrHhIxYAAADl4j2zLkyf8j5HevNhuxIqX1BwVTMo/v7nP6XNq2hhmAjUlZYx32OSO54ShUlf9PNpSB5i8STjLUrLhS0OG7QAAAAAAAAABZ4rdk1WIacAAAAeL7T3HHML3hmuyVyoxMQgAAAAAD9fk97WpMoy3hkdmuh36jbQ89UvZOPpaK6PV/KzVcPcAAAAAAAAAAAAALPFbsmqxDTgAAAAD59FQZy3ZHZaJxOsqtrFW/g26QAAAAAJNdubHJ3axieenP0+z4xJRQe4gAAAAAAAAAAAAAWeK3ZNViGnAAAAAAAPlaWY268XxTelWTsDl9MYdMQwZ6gAAAAAAAAAAAAAAAAAAAAALPFbsmqxDTgAAAAAAAAH4gk+bNeYK13T1JSLwg1ZXMpF0ylcX7uD8DPUAAAAAAAAAAAAAAAAAABZ4rdk1WIacAAAAAAAAAAAA/PRPfIbGTp5475B0cvhcBKxgMQAAAAAAAAAAAAAAAJ4I2W//8QAORAAAQQBAgQEBAQFBAIDAAAABAECAwUGAAcRIDBAEhY1VBATITMUFSIxMkFQUVIXJDQ2I0JFU2H/2gAIAQEAAQkA7sq0rwl/3BJmdYwInqhe79ENxRsE+9oTvsVku8lg56qyB272VKv7ybt5n4uMUv8Aqzm3/wB0W7mZN+5LFu/k7Horlg3lLZJxmGg3truCJNWB7s0BbmtewbM8YK+jbYQ8Mr6wzf1KcsUZOM01vuNjlM5WyzWm80/Ffy0Wx3ByWx48SJ7OzK/5Bytaq8VbwT+3RVEX+TWtY7i1Ibm4G4fJsqvcvJarhwfVbzRf/KDVGd49cInyiIZ4CGeKKX+lve2NOLnXWdY7QqrCi7veA8hXxAC2ORXtt4kNsEY1v8KdmrWqqKqVuWZFVK1BrGj3jkasUNkJTZdRXsXEMpqo5EVF/o0kjI2q5zsi3LoqVHshkvtxcgu0liSZz3vXi5/cxyzQuR0ctDuje1asYWuP7g0N8xjUnRyKnFF/oSqiIqrrJNwqWgjVEkyHPr+/e5rp1VXOVzl71j3xOR8b8Z3KuaJ7IiH49mdLkMLHwz/0C5v6yiGdOZNlW6VlbLMPWq9zpHukevYcU/v2AxE4czZh5MU3YmFdENcaBsQ7Idkw0veKrWJxVcx3JAokcMItvc2N6W4k2fsKPGrfIZ/lBQVezIiMR5xrtpsfdF4PHcbM/Lie+sMtaaxpSVgNh7DHcotcaISQSbEc9q8lhRiu7osscKF008mcbnSnLKBVOc98jlc9/YYjjc2TW0QyaqKgClDjFEg+OR4zX5CFJCRDdVJFJZThTdjARONKyWGXCN0GT/KBtliljmjR7Hdva24VMJISVJmOeHZNMscLuwV7G/xOijlI4/Ij2uofyiibO9nLu7jZB0Q1iNBPBON96NsjHfwu6/8ANF1hG5BNM+MOxcIWMcPHPBJ2t5egUIMpRUuV5WflBz5ZXdVVRP3UavsDHIg4dZtdk1k1JNVmzIHBFPJrdvMdrfDwgZR00X1ZXRxsiYjGN5ZI2SsVr2yUlPKnB9fZ4Djtkioo1jszVq1XBEWe1OTVzVkRSayzDcqTgoqL+y9XCs6MxidkEz6+xEsxI54JOzv7wKgr5SiZMjyM/JTnkEP6jWPevBrKTb3IrpGSpBSbR0wCsea+vp6yrb4QxeHw8Tf7lXdUH4knKrbaut4nShE8tnkNNTSRxnGiX9OaiLAYjmL/AO3wPrK+xjSMke72norJVUTV5tvkNP8AMlZC+OSNeD4+phObFYwU2KR1dYiWgkRI0vY29sJTAylEyZVlZ2UnOlld0/5omsb21vLxfHOlDgNBRNY6MZrGMT9DdF2lcAn+5Kud1qGrcsbG2e797MqtBjPyzILF3ikOeWbJ9wzbXK/L9mo08kM0RETZI3/E04evGkInfm2SSZNdPm4sKLi+2UDlF9XOR0Z9bu9kUDkaW2p3aobBzIpIxLirPRv4YzT2tcnBUvcGoL5HvnFyXa65p+MwenNcx7mOTp4HmxGNHNhneGWOcNEQPJ1yy4AR5J5nZ1l5OTWL2I7p4/idxkczWjRYvtzUUKMlkYxjY0RrUVUROKrfZvQ48xFKIvt2rQ5HwgxHWtlZqqmGI1G/RE5MR3JPoGsGKSnzvHbljfkkfmld7y63Gx2ma5HzZbnlnk0isRf/AMTkVEX90CsD61UUMmi3Yua5rISo6DPqDIP0wEMc17fE1XNa9FRUyXb6myBjnrFkWGXOOSqk0XHj+3T24zh9MRHWmPjkZKxr2L1XOa1qqq7m5s6xIdVAyp9E4J0mte9yNYzDdrZzViMttBAB10CQiw/trIMxpcdYqFFZDund2/6AtPc6SR0j3dBWo799fJj0iIn7dFFVHNci47uZe0rmNIfjebUmRxokJCLx0WKKbA+GeLM9q3xfMOqNSxSwSOjlj6P762wzlSWpU2EvV3LzJtMCoIj3Oc9znOXogV5loXGKJFhO24dIkZhzURETgiFljAwOmIly3dhyrIHToSUQXK+Webt4Z5oHo+KXEd1iB3xi2+gLAKyHScWdURdZrt8BkULiB22lUfTFKMbD0RyZw54iIH4Llg+S1bFcvTyK8EoKyYud1taE3VhOaSvRqag67MjGDiw/CQMYDZ+nWR5RW42I6YmTKM2tsmnXxyft3eM5da4yUx8EmL5jV5KMjx36yjEq3JhHxzR31Efjp7hDG9HE8hIxu3hJjWvsRrIGAofpOc1qKqruZlL7q2eDE/o1FSZdHRBjR4pigOMgsjjZrM85Dxgbg1bi4OvDXlGS9WKGaZeEUUsE0C+GWPrV1ibVFMKDmwnPxMmi+RP8MkxityKvlHJjv6E7HrCUUqPo7TZYsMy05UvR3IydlHTvhjernOVVe7oV9eXaFxCCx4ZhwWMAt4N1nuewY9A8UV5xxVkS8kmXpwiEzvRscIWF2xKosrAcEAGcjppBKmuCXiOLmvqq9gIWQCTESPJgG4Ed7GgZztZZi4eS10kMkVtUmUpsohTOgMRKIRFNE7D8giyOlGKROcieIeGSWR2Z382Q3pE716DWue9jGptxhKUgbDTI9ZzmY2MBK1NHHE2JcpRL+lj2OvvlmVJw8KqYERZooBBhmIyONPp+3xzX1RexFKnCIiIgfgOcQ5KIg866z/C4MkBfPCk0Mw8r4Zo+hthkj6e7aHI9rmvRFRebdbIvyym/BRr0drcNU2f82MiRERERNZRkYmN1shMzri4NvD5TCpOntz9ux5s19UXsq6wKqzIihpMMymDJ6yKbjrdPDOHG5Cj6DXvjcj43YNkDMhooJ05pZEjie9dZxerfX5MzHdDE8fmyO4iGa0AKGvDhFhQ0yAAaUmd+a5TNk1rI/j1Nuft2PNmvqi9niuSk4xZsJjWuPHsxIiYXkDwlDywytzbGpMbuJY0TobWX6VV2o00nLuLefkuOFOjeqqrnO6H1/km3OLMoKlkkqa3Xy5yvSmEf+3V25+3Y82a+qL2m1WXOBISoKl1nmNsyKkmYyOaKSCaWGROcUl4JMBUesZtW3FKGT4uTdu7bYXUIca9DbTG/zy7SeTTGNjYjWpmGQMx6lJK4lEzFkzTyv6u3P27HmzX1Re0imlHlZNE7A8kiyGljfxVOOt1MXWos0sYGdDZy8Twk1crvjYkfhQCZ+NpYOtbIo53QY1XvYxNYHQJQUA0T2Oc1jVc7W6GSJdXCCxdfbn7djzZr6ova7e5E6gvoke9jkciKi5fTQ3dGVC9ksEwsr4Jm8+GW60mRCEppio9jF+O6tq+txx3y3onBOHQ28ovzvIYPmsYxGMa1NZvfx49QkEORXPeque7rbc/bsebJMYs7M5ZoG+R7v/DyPd/4eR7v/DyPd/4eR7v/AA8j3f8AguEXaIqqwsaQOd0MnVa5zHI9q7b5A27oImOdrdGhSnv/AJ7F52PWKSORNYPZvtsZriZHfDeOyWW5FEjfzr9EVdbSUi11I8x6a3avkPtYgYX9fbn7dj1bApoYcsztESPmnle5ertXdrXX7Q3vRUVEVF3Qo1tcelfDEi8ehszZrOKeI92nORjVVdZcc8/IrFXLz14zjLAMdEpwG1dYKG3VqYlfXFFKtoctnZGG9htz9ux6uc2H4etUbrjTPHIglY7HrWK4pxCY9FwoQIRHwvaxaa3LBXobXWDhcpFG46yUlQqGyIRZ51Jnlnd0NrqxLLJv1omt2Lda6gZHG5E4Iidhtz9ux6ubH/i7RIOw2duPxNVJW/Dd6pQG8jM6FGatdbiEooz0kDHXW5h6BY2QzTU4NanQ2YrmflZJr01u/Zumv2BNd2G3P27HqFyJCNM/iYS40qUh3YbV2igZGkHw3fq/xVK03oL/AC1i1g4ymFmVd6yVZVVkTF53r4WOdrAK5K/Hh08L/oxy6yo91jfHyKvYbc/bsebJsisa6wWKHXnK3/t5yt/7ecrf+3nK3/t5yt/7FZTalwrE5ewx8z8vvK8viIR88Ed2s4DdYYxYjtR7VY97OhtMQpGHiqq7yEK8waDoQQqTPFAmqSP5VOAzV8UoVSZOilP+YYXJ2O3P27HmzX1Re3k4+B3BcaMaVShPapMKTDTtclhE6GxOY7obOE8al4+t3ZEXMJI056LGbbIp1jChoNpK2smgKIKjjZExGNS+qku6kwBZcmwi3xqRXSR9htz9ux5s19UXt8cwK6yTwSNixykbQVsYaTOajmq1dZTtM4mac2unOrjKwh45UPNsrMql2cSu3SnaTmU8jU5ccpCcgtYA4W0dGBQgQiixfE0EWwGlHIjzrE34vaeGNvX25+3Y82a+qL223OGJkJilmMgHiGjbHEz45niAeSV0n6ChpwiZhp28uyXrVzrcT/tM3Ns3UMYCWdKzl3NqUtcbma1qLxTr7c/bsebNfVF7WGJZ54YU1iVYypoABkby7uU0NddjExJy7USPjtrJWO3E/wC1Tcq/wrraZUSg5sjSJacv5jmfw9fbn7djzZr6ova1XrNTpiIjGonNvNGz8IK5W8u1Xq1hrcT/ALVNy/vrZy3ZPWlByv5dyLhKjHZ3I5E4J19uft2PNmvqi9qLL8gsaZdY7YMtKUItruXeWxZPY140T+Xar1aw1uhAg+YTRpzYxfEY5cQGxaqLcK6AiJGk+JJMIkTpZpNwcpfkVs5kbuvtz9ux5s19UXttrMwjCetSbIio5qKnJkeQB4/XyzzSWtnPc2JJ03NtV6tYa3diRMwkl58by21xkhrxn0O69HZuggJVj2yMa5q3lm2mqiznNynP7fJXOZpE4JwTsNuft2PNmvqi9s1ysc1zVxPdcirjYLbaq7QS3DYSM5VREVV1ku6dRTrJALrIMksskKWYt/NtV6tYa3jFVlgOT4OcWf8ACkwz8KaZJ6evfwyMZptKaOrCWJEUTH2O3P27HmzX1Re3k4ox3DWLhMBpQmt0TI2EaZ71sZVmsTn9Dar1aw1vYM1a2smY3nkb4mOTWCWX5jjwqqr/AKsemsmBdX3thGvY7c/bsebNfVF7ejD/ADG4BE4BRLAGPFwzQ1a3GjytSO8csj+htV6tYa3PAUzHJno1q8WtXobMntdUEiPXW71ao2SISxvYbc/bsebNfVF7fa+sU/JYp/hu7ZoLQqH0dqvVrDWTj/i8fsoE1LCo0skK9DamzQDJVZK/W7tW46jhliYi8U49htz9ux5s19UXt9m6hR6+ey+G79qhtuOH0dqvVrDT2MkY5j0yoJ4OQ2bHJz1ZTwbMEhrqw5lkAOUzV0EljVGC8DwnVxxITuw25+3Y82a+qL20Mbpp4Y2pjNUympRBGaJk+SPNLrIrP86uzT+PQ2q9WsPhvDW/IvBiY286pxRU1tPdpZUH4T4bsUX5bdxlRM6+3P27HmzVFS07bbKkW2yGOd8bWo1qImty7t1Njk7ononDo7VerWHw3Yq1Ox3xxRovFOPQ20vFqMhiifIjkc1FTWfY/wCYKCeJukVVT6p1tuft2PNuBB4CQ39qiK5URE2yoEpqGOZ7dbq3rbO8YNE/o7VerWHwtRkMriofDYAyVhxAUnQjerJI3prCL5L+gGnVXsbIxzHJuRjS0N06aNvW27kY1D2KvLllStnXPWNHNVrnNVPiyOSVeDI6/DDCIJZynOTwuVOtgePvv7+BipHG2JjWNTKLeKmpiyHSkFTHESlTdLar1aw+O7FIlbesLY3obXZJ+UXKhzPa5r0RWrnONx5HTTRo2aN8M0sT06uDk/LtEg5lRFTgurjDArByyQrJg1ix6o18eDWLncHOD2/iYrXTkgUVZXfWAeViPiexNXcCjWxkXVax8jkZG3bzGY8fpWK74bsZOh5jKuB/S2q9WsPjuXQ/nGPTuiYv0VydBrnscjmOwDJ2ZFTRK9VTjrdbEnCFJcDM/dOrVGurz4SE1BI2WKN6LzcdceTOq78MdGSnV2uxJbU5LMmNERqcETNMhjx6lInRxE7ySJp3r0tqvVrD4yxtmhlYuszo3UN+UOjOhhOSPxu5jm0KXAaLFPA6wrxbQGcUhuXY0VjFtKPKzq4RcoQL+Dld08iq0tK2aJEe1zHvavTx2gKyOziDhSnqx6cCASBksrIY3yPXP8ofkdu9sb+ntV6tYcm7ePLYVEZ8TU+qdBfqnDW1ua+ByVBz0+usxxcTJ6ySJzLCvKqzJhCWdQQuYEiOeF1BkA9zAn6uk9zWtVXLlja1bBZA5uiILOaTEPCzBsSgxmrYit1unmTIInVAUvU2q9WsOQoWEwaWGZuYUb8fvSBXdGGaQeaOaN232aRZFXtgIfrP8IhyURCINEDzCTyQTM6gxU4czZYZKbOIZkbEa2EwUhP/ABTcqr4U4rqayBgRfGTY50DB4mQMs8ktLRf1y8eK8V6MUUk8scUTdusDSjgQ45ms4y0XGqx/6iiSDSJCCH9Tar1aw5dzcWW8qVJhT6/zToVVoXTHQmCuxPKAsmropon63BwCK5hecE0gecSZ8M8XVFPMC/45AmZ2ovDx6buGZ/7Bf6hk+zXcMv8AkFPnllP+w8+R3Mzl/wB7NNKQ7xSv6UUUs0jYoo9vdvUrUZZWTNZLkQmO10pMrry7Mv7CQ0lertV6tYcsjI5WOY5u5GLvord5MTOjj18ZjtlGYM7HMir8kAaUNLrOMAGyOFZxWngF1hUoxUXeiiEGzshHiwLbuGjRp1g3V3dg0YMpRUuT5IdkthJPO/rbVerWHNlWPj5HTzCyssK8qrMmEKZ0aDIrLHDWEiS4vldfkwUcsMmspwysyeBfnR5Ji1njBSxFM7uhx20yIlIQoMSwasxiBqozWQ5LXY6I6UmbJMnsMlOfPPJ19qvVrDn3Qw51oJ+ZBsVOCqi9KouDqMxhQkmF7gAZJB8md2rGtCtB3wEw5dtUXXukKqUljkgldFK3t2or3tY1MV2usbZYibFKunApxmQCw6y3OKzGRXcX3d5YX5biTZOw2q9WsOdzEe1WrrcvC5KgxbESLpQzSjzRzQvwrdJOMYNy6AiAmNskT9ZJgVJkEblWPItvr7H1dIsTkVjla5OhxTjw0sUqN8axcU48OPQRFcqIiY/gd/fvRWQYzt3TUMaPfGiI1ERNSyxwsVz35nulEOkoVQpJJBpDyCJOx2q9WsOgeCPZCTCkMzPEysZsJP0dPGM4t8akRjJMbzukyONjWSovHT2MkarXNyDbagu2OWOG82uv6tz3CtlHIgcrZIOT6qusU27s8j8E0q1u22LBQo2UB2JY6+FIXVtxthjVjCrRxspwq0xiTxSM5WRTSORGQ0u2mRWr4nSxY9tjRU3B07I444mI1jdZFmdNjjF+eRlG4FvkbpImvVeP7r2W1Xq1h0b+iAyECQUmLJMdNxqyeKQzpxTTDvR8MuMbq2VU2MexSly6lu4WPgJ0qNcnBUt8cpbmL5JQlvs5WE8VrZbTa3JK9yoPGXQXYCL+KA+YziqeLbrFVyOzSaVkELII2sjZ8TgBrIWYedmX46/GLeQbgsjEXh4hKS4sERRQazbLJz3Ik8FPs2AOvGzIqsZpadiMEEa1GpwRNW2T01NFI8grJ92DD0fBVsnIIKer55+02q9WsOlkmNV2S18gxLcix2wxo94xTOoPPMJKksElBuje1CJGRqk3Px22WOFZoCxSERIyPhKGHNx8cBuMUhqfrDqKMCkhfEIzlvMVqb+WKUyMLFKMFjUYHGEHD9of4Skjw/dmu9ysdpvGx093uteWaPiGjKJIOlWUqbttqvVrDp5LjQGTAPGJZkWNWWNmyQExdVURdVl7b0zvECXVbu3YP/MirN36MlGfjEEzbGTlRILCMmCRqObKioqcUXlc5rU4qryIGMVzpjMyxyu4/iT7Td2hGRfwa2u8FsY1UDGtMju7pV/HGoiJ3O1Xq1h1L6ir8gCcMXDl2FWOLTue5nYNfIz+CRh9jEqqw/bHIFuaJkL38u7OSz1o0II00thYzL+s90kr/wCOXvNqvVrDqlhjHQSQTx5jtiVUukKrGr9FVF7HDsmlxm2jn411kJaCxzjyfHIchBx4KQgiS/uyL+0nNld321Xq1h1nsa9qtcmZbYh23zS67VjWnVRD4C4Owx3LLfGpmOFmq95KmdjfzJv+reDe/uN5BY2KlZBc31nfkLMbP3+1Xq1h2F7jFTkMDmFjZVtra0KumFRUci8Fb/UtqvVrDsXsY9qo5Mp2yp7z5sw2sgw27x2R/wA+BFRU4p/UdqvVrDs5xoCWeGaLJdqqq0V84S3mC5DRzKx4y/pcrV/p+1Xq1h2skbJmKx7bzbrHrlq8ILnaK5EVz655lRZgSrHOH/TNqvVrDuCwAjYlimgttrMcPRVGHtNnLAVquDMOwfKq1FcTXSMkid4Xx/0jar1aw7t8TJE4PYTU1hTHMeKZthiZiqsohezlKv8AxVI2VOVXfItCtoLgRURbQnALAWZYnGeRz/deRz/deRz/AHXkc/3Xkc/3Xkc/3Xkc/wB15HP915HP915HP915HP8AdeRz/deRz/deRz/deRz/AHXkc/3Xkc/3Xkc/3Xkc/wB15HP915HP915HP915HP8AdeRz/deRz/deRz/deRz/AHXkc/3Xkc/3Xkc/3Xkc/wB15HP915HP915HP915HP8Adbe40XWWRr3z/wD/xAA5EQACAQIDBAcIAQQCAwEAAAABAgMABAURIRIgMVEQIjA0QVJxExQyYXKBobE1FUBCkSNiM0NTkv/aAAgBAwEBPwDsycqlvraHPakGYORA1qTGogDsISfDPhUmM3DfAAv5psUu2/zy9KF9dg5+3f8A3RxC8Iy9s1JiF2n/ALmPqaXF7sEagj0qPG9evHp8qixS1k2QW2SfA0kkcgBRgQeX9tJNHCu07BRU+MqukSZ/M1NeXE+e3Icj4eFE59kkskZzViD8jVvi88ekg2xUGIW9xoHybkf7JmVASxAA8TV3i6pmsIzPmNSzSTNm7EntwSKtMUmgyVuslW93Dcrmja+I8e3ubqK2Qsx18B4mru+lum1OSeC9hHG0rqijUmrfCoI1/wCQbbEa8qfD7Rxl7ID5ir+wNqQwOaHh2EcjxOGQ5EVZYosuyk2jebwPa3t8lqnNzwFTTSTuXc5k78VtNN8CE1Hg9w2RYhR+assNFrIXL7R8NOm4hW4iaNuBp8EcA7MoJ8BllUuGXcX+G0MuIplZeII38PxMoRFMc18DyoEEZjsr69S1Tm54CpJHlYsxzJ3rbC559WGwvM1BhltDkSu03M00sEC9ZlQVJjFunwqW/FQ4uJJ1UqFQ+PTfXgtI8xkXPAGkxpchtxa/I1FiNrLwfI/OnhgnB2kVquMGU5mFsjyNTW80DZSIRvYdiJiIikPU8DyoEEZjsLq5S1iLMdfAc6mmeeRnc5k7tvay3LAIv38BVrhsNuASNt+dXF9b2w6zZtyFXGLXE2YXqL8qZ2cksxJ6bbFJ4AFPXUc6kxtyvUiCnmTnUs0kzlnYknpiup4D1HIq2xhWIWZcvmKIhuY/B1NXuFFM3h1Xy+NEEHI7uF3/AAhlb6Sd9mVFLMcgBmTV9dtdSk/4D4Ru2Ng90+Z0jHE0iQ2kWQyVRxNXuLM2aQ6L5vGmYscycz2lvdTW7Ao32qzv47pQD1X5VfYalxm6dWT8GpEaNirDIjcVipBHEVh157zFkx668d7F7vZAhQ6nVt2wsWunzOkY4mmaG0hzOSooq9v5LpiBongN6K0uJzkkTH7VBgNw5BkdUHLiauYhBPJGDnsnLPfVipBByIrD8SEwEcp6/PnV/YrcptLpIOHzplZGIIyI3LS4a2mVxw8aR1kUMp0I3J5RDE7nwFSyNK7O3EnctbdriVUA9fkKRIrSHIaIo1NX9611JkD1BwG9hdjam1ilaIM7DXPWgAoyAAHRiHfJvqPYKxUgjiKw2/Fwvs3+MfmsVsg6GZF6w+L5jdwe52kaFjquq7mMz6JEPU7uHWgt4QSOu3GsVvdpvYoeqPi9d/C/4+39D04h3yb6j2McjxOHU5EVa3C3UIcehFYlae7zZj4G1G5azGCdHHgaVg6hhwI6CchV1N7eeR+Z09NzC7b284YjqprV9cC2gYg9Y6LTMWJJ4nfwv+Pt/Q9OId8m+o9lhl17CbInqNoavbcXMDL4jVaIKkjcwmb2lts+KHLoxCT2VrIeYy3cNgENspI6zamsWuPbXGyDmqadhhf8fb+h6ZcHtJpGkYyZsczka/oVlzk/3X9Csucn+6bBLFVLFpAAM+NOFDts8M9N4HKsPn9vbITxGhrFIPY3RIGj9YbmDSlZymuTDoxqQBI01zOu5bRe2nROZqZxBAzAaItOxd2Y8Sewwv8Aj7f0O9i0/sLJ8jkX6o7DBp9mZoydGH5FYxDtwBwNUP4O5ayCKeNzwB6MYcm62fAKMtzB4y1wWyzAH5rGJNi3C+Zuxwv+Pt/Q9MuMWsMjIwbNTlX9cs/+1f1yz/7ViuIJeGMR57K559hayeyuImzyAYZ+lXKCW2kBGYK50RkekHIg1buXgiY8SoJrEWLXcuY4MR0pG8jbKKSeQrDLOW1Ehk0LZaVjEczhCqkoBr8j2OF/x9v6HpxDvk31Hs4YpJXARSxqPaMa7YyOWoq7tZ4HJddCScxw3MMfbs4j6j/WlXxLXUpPPpwq2WOASH4n/XQQCMjWJ24t7jJR1WGY7DC/4+39D04h3yb6j2QBJAFWNstvAoyG0RmT0SRpKhVhmDVzD7Cd4/KenDpgtnEMuf7q87zL69AqxYNaxZeXpxp1Msa+IGZ7DC/4+39D04h3yb6j2URCyITwBpWDKpHAgHpxRg15Jl4Zfrpse6x/f91f5e9zZcAxHTh2Ie7HYfWMn/VRTRTLmjhhV3fRWg11YjMCp5WnkZ24k9hhf8fb+h6cQ75N9R7PDsSVVEUpyy+FqBDAEHMGrzEoYVKowZ/l4UzF2LHiTmemx7rH9/3WKIEu3+eu5gjgNKuepAyFY0gyifLXUdjhf8fb+h6cQ75N9R7ONSzqAMyTRIiiJy0VakILsRwJO5Y91j+/7rGowJUfLiuu5hkvsrtOHW0rEova2j8117HC/wCPt/Q9OId8m+o9nhsPtbuPTRTmaxCX2Nq5zyJ0G7Y91j+/7rF49u22vKdxG2WB5GoXE8Ct5lq6hME7pyPYYX/H2/oenEO+TfUezwaDZjaUjVtBWNT6pEOWZ3bHusf3/dTx+1hdOakUylWIIyIO5g1xtI0R4jUVjFsWCzKOGjdhhZBsIPQ9ONQNHeM+XVfUdABJyFTW00CxmRSu3nln8t+GNpZFReJNRqltABoFRaupTPO7nxO7Y91j+/76MUgMVyzAdV9dy3maCZJB4Gh7O5h5q4q6t2t5mQ/Y7+BTB7Z489Ub8HpmghuE2ZEDCv6LZZ55NUNlawfBEoPPjWOwl7VXA+BtfQ7+EWmwpmYan4axe62EEKnVuO9Y91j+/wC+jE7f29uSB1k1G7hN6EPsXOh+H1q/sxdR5j414UylSQRkRvWF2bO4V+K8GHMVFLHNGrowKndljWWN0bgwINXEXsZnTaDAHQjdw+zN1Jroi8anmjtYSxyAAyAqaVp5GduJO9Y91j+/76CARWIWptpz5W1G4CQQRWG3wuE2HPXX8isSw8TAyxjrjj86IKnIjetL6ezbqNoeKnhUOPQNkJYyh8SNRX9Zw/8A+rf/AINHGrDLMSMflskVLj8Y/wDHCT9Rq5xO7ucwz5LyGm7Z2cl1JkNF8TUccNpDkNFUamr+9N1Jpoi8N+x7rH9/3031qLqAr/kNQaZSpIIyI3I5GicMpyIqxv0ul2W0kHEc6vsNW4BePR/wakjeJyjjIjtrPD5Lo5/CnOo44bSHIZKi8TWIYgbjqJmEH57Cx7rH9/3uYrZZ/wDOg+rdR2RgynIirLFVkCxzaN5vA1cWkF0vXHoRV1hs8BJA2k5jeyO7HDJK2SKSatMIVetPqfLU08NrHmxAAGgFXt/JdED4UHh2Nj3WP7/vcIBBBrEbA277aDOM/jetcSmt8lPWTkat72C5GjZHymp8Ptp9SmR5ipsGmXWNg/4NSWs8We3GwA8ctKhgeaRUUHM1b4fbwL8IZvEmmt4GBBiX/VYjh4t8pI8yhOo5UsbsQApJNQ4bdS5dQqM+J0qDBo1yMrZnkKVILZNAqKKusXRM1hG0efhUs8k7bTsSeyse6x/f97rKrqVYZg8RV/h7WzbS6xn8bwJU5g1BilzDkCdscjUOMQSZBwUJ+4pbm2kAIkUg8M6CR7QYKM+fS6JIuyygjkaJhiAzKqKlxC1izBfMjwFTY0eEUY9TU1zPOc5HJ7Sx7rH9/wB7zKrqVYZg1fYW0fXhGa+I8R2AJFWF20VwC7EqdDQIIzHRil0sUJjU9dvwKMjkZFiR29j3WP7/AL7C8wyOfNo8lf8ABqa3lgbZkUjsLfELi3yCtmvI1JjNy65KFT5indnYsxJJ/sLHusf3/fYywxzKVdQRVzg5GbQtmPKakglhOToQf7ix7rH9/wB9nJFHKCHQMKmweB9UYrUuE3UeZADADwp4JYzk6EH+1se6x/f99sQDxFNZ2rggwp9hUmG2aocovHmaa1gDMNjgeZr3WDyV7rB5K91g8le6weSvdYPJXusHkr3WDyV7rB5K91g8le6weSvdYPJXusHkr3WDyV7rB5K91g8le6weSvdYPJVrGghUAV//xABAEQACAQICBAsECAYDAQEAAAABAgMABAUREiAhMQYQExQiMEFRUnGRMjRhsQc1NkJzgaGyFyNAU2KSQ3LRM8H/2gAIAQIBAT8A6sAncKisbqbIrEcj2nYKjwWQ7XkA+ApMGtl9pmb9KXDbNf8Aj9TXMrT+wnpXMrT+wnpTWFm3/Co8tlNhNm25WB86fBF+5N/sKlwq7jzIUOPhTxyRnJ0Kn4/00UMszaMaFjUGDE5GZ8vgKhtLeDLQjAPfvPVuiSDJlDD4jOp8Jt5NqZxn1FXGH3NvtK6S96/0SqzkBQST2Va4QTk05yHhFRxRxKFRAo+H9BdYZBcZso0H7xVxaTWrZOuzsPYevtrSW6fJBs7W7BVrZQ2q9EZv2seokdY0Z2OQAzNXGLTyMREdBf1pMQu0OYlJ+Bqxvlu1IIycbx1DosilWAIO8Gr3C2jzkh2r2r2jrbGxe7bM9GMbzUUUcKBEXIDXknhh9uRVqTF7VM9HSY1e4nzqPk1QqM8zt47edraZZFGeVJjURyDRMPiDUeI2ku6TI9zbKBB2gg69/hglBkiGT9o76IIJBHVWNk12+Z2RrvNIixqFUZAa1zidvBsB027hU+KXM2YB0F7hSQ3Fw3RRnJqPB7h/aZVqbB+TgZlcs47OOxszdyHPMIBtIp8FP3JfUVLht3F9zSHeu2o57i3bouynuq3xkjITJ+YqGeKddKNww1sRw8TAyxj+YN48VEEHI9RaWr3UoQbu09wqKJIY1RBkBqz3EVsmlI2XcO01d4lNcZqvQTuFW9hcXO1VyXxGrfCraHIsNNvjuoAKMgAB3DjuMMt7gltqMe0UmCxK2bSsw7ssqjijhQKigAcctvBOMpIw3x7aucGIzaBs/wDE0DPayfeRxVniqyZJNkreLsOtiljmDPGNv3x/+66qzsFUZknIVZWq2sIX7x2sdW9vo7Re9zuWnee7lzObMdwqzwpI8nm6TeHsFAADIdZPbQ3C6Lrn3HtFXmHy2pzHSj7/AP2rHEnt8kk6Uf6ilZXUMpzB3HUIBGRrEbPm0uaj+W27Wwe1zznYfBdW+vUtE73O4UqzXc2QzZ2NWdjHaL3ud7a15imH4eulc3UUXwZtp8hWIfSNhNuGFrDJct2H2ErDLxr/AA+2umQIZUDFR2Z65AYEEZg1iGGmHOSIZp2juqwvmtn0WzMZ/SlYMAQcwdS5gW5hZD+R7jTo0bsjDIg5HUghaeZIx2mo0WNFRRkFGWpcTpbRNI3ZuHeakeW7nzO1mOwVY2a2kfe59o63DPhFjEGM3dlDdvFBGEyCdE9JQTmad3kYs7FmJzJJzo7jXBz6iw78AdQQCMjWJWPINykY/lt2dxrCr0owgkPRPsnuOrjFtkVnUb9jamDQe3MR/iuriV3zibRU9BNgrCrMRpyzjpN7PwGvw3+1GIeUX7BxHca4OfUWHfgDqXRZEKsM1O8Vd27Wk5T81PwrDrrnMAzPTXYdSeITwvGfvCmUozKd4OXEBmQKtohBBHH4RqYnc8hbkA9N9gqwtjc3Cg+yNrUAAABr8N/tRiHlF+wcR3GuDn1Fh34A6rErXnEBIHTTaKsbg21wrfdOxhq4tDydzpgbHGf58WHRcrdxjsG0/lq4nPy1yQD0U2CsKt+RtgxHSk2nqOG/2oxDyi/YOOz4dY1Y2sNvEtvoRKFXNDnX8RMf8Nt/oa/iJj/htv8AQ1F9IHCKaWONI7Ys7BQNA1FynJJyhBfRGkRuz18Rg5C5YD2W6QrDZ+WtVzPSTonUxeLTttPtQ8WCR7ZZPJdSeQQwyP4VqFGuLhF7XagAoAG4DIdRw3+1GIeUX7BrcCMP5/j9uSuaW4MreY3dRjEOnAsg3of0NYNLoTtGTscfqNS4TlYJE71PFhCaNpn4mOpi8mhahe1mrB49K4Z/Cvz6nhv9qMQ8ov2DjsuAeMX1rDcxywBJVDDNq/hzjn923/2r+HOOf3bf/auB/BmfAEu2uWRppSAChzyUdRcx8rBKnepq1cxXUR7nAOrcoI55U8LkVYLo2cPxXP143dUUszAAdprFLyK55NYySFz21g0kKiRSwDsdg7x1PDf7UYh5RfsHEdxrg59RYd+AOrkljhXSdgoqTR5Vih2Z7DVtdQ3CDQfMgDMdupiQCXso78j61aDK2hH+A48VuWknMQPRT9TxAkHMGsOuTc24Le0pyPUcN/tRiHlF+wcR3GuDn1Fh34A6rdV9dNczsc+ipyUcUcjxOHQ5EVbzCeGOQfeHHisRa9c59i/KrX3aH/oOO+UrdzA+LjwVWEMjdhYZfl1HDf7UYh5RfsHEdxrg59RYd+AOqYZqw+BplKswO8HLjwxStnFn25njxL3t/JflVmc7WA/4DjxCw50A6bJAPWpYJYGykQrVnYyXZzGxAciaiiWGNUXco6jhv9qMQ8ov2DiO41wc+osO/AHV4jhrSOZYRmT7S0QVJBGRFWeGTTMGkBVP1NABQABkBsHHiXvb+S/KsMbSs4/hmNTGkziiYdhINYI+2VPI9Tw3+1GIeUX7BxHca4OfUWHfgDq2YICx3AZmgDLMB2s/zNKMgB8NTEve38l+VYK+cEieFtTEY+VtJB3dL0rDJeSu07m6Pr1PDf7UYh5RfsHEdxrg59RYd+AOrxCXkrSQ9rDRH51hsXK3cezYu06uJe9v5L8qweTRuSnjX5bdQgMCD2ipozb3Dr2o2yreUTwRyeIdRw3+1GIeUX7BxHca4OfUWHfgjq8Zn0nSIHcMzWCw5JJKe3ojVxL3t/JflVvIYZo38LA0CCAQdh1MZt8ikwG/Y1YNcgFoGO/avUcOARwnv/iIv2Dj4C4hFeYDBEGzkts43HESACSchVpidjfSzx206ytCQJNHaATryyLFGztuUZ1I73M5O9naoIhBCkY+6NXEve38l+XFhk/LWqgnpJsOpPCs8TxtuYUeUtZ+50aradbmFZF7RtHcdf6R7FocTtrsDoTRaJP+S8eH4nf4VPy1pO0T9vcfMV/ELH9HLOHz0KxDhHjeJgrcXrlDvRegvoK+jm9WDFp7Zj7xF0f+y6+L3ekeQU7trVhFrpuZ2Gxdi+etiXvb+S/Liwu45G4Ck9F9mritnyi8sg6SjpeVYfeG1lyb/wCbb6BDAEHMHW4Q4LFjuGy2zbH9qJvC4q8s7mwuZLe4jKSxnIg/MatndTWV1BcQnKSNwy+YNWF1z6zguOSeMyIGKOMiDq394LWLZ7beyKghku5wo2knMmoolhjVFGwDWxL3t/JflxA5HOrC5FzAD95djauJWPN3MiD+Wx9DWG4hyREUp6B3HuoEEZjWxjAMMxyMLdQ9MDoyLsdavvo1v4yTZ3ccq9iv0Wo8A+EwPu0X5SiouAHCSQ9KGFB3mQVZ/RnKSDd4gAO6Jf8A2sL4KYLhBDw2weUf8knSbVurqO1jLMdvYO+pJJrubM7WY7BVjZraR7drt7R18S97fyX5cdjdG1nBPsNsagQQCDmDqOiupVhmDsIq+sHtjpLtjP6VYYk0GUcmZj7D2ikdJFDKQVO49deX8VqMvafsWpJJrubM5s7bhVhYC1Gm+2Qj06jEve38l+WphV7ugkP/AEOqyhgQRmDvFXuFFM5IBmvavaKtrue0boHZ2qatcRguMgToP3Hq5JY4l0nYKPjV3i5OawDL/I1DBNdyZKCSTtJqzsYrRc/ac726nEve38l+WoCQQRWHXwuU0HP8xR6611h0FzmctF/EKuLG4tj0lzXxCoMRuYMhpaS9zbahxiB9kilD6io7iCXLQlU5/GppVgjaR9gAq4xG4nY5OUXsApLidCCsrA+dYdf85zR8g4HrTEKM2IA+NS4haQ75AT3LtqbGXOYiQD4mnknuX2lnarXCHfJpjojw9tRRRwqFRQo6rEve38l+WqjsjBlJBB2GrC/W6XRbZKN47/LW31PhlrNmdHQbvWpcGnTMxsHHoae1uojticUZJNHRLHLu40d420lYg94ocvKdmmxqLDbuXL+XojvOyocFQbZZM/gKit4YBlGgXrMS97fyX5aysyMGUkEbjVjiay5JMQr9h7D1N/ai4tyFA0xtFEEEgjI8WF2hlmEjL0F/U0ABuA6/Eve38l+XUWeKSQZJLm6fqKiminUNGwYdRPY21yc3TJvENhpMItEOZ0m+BNKqooVQAB2D+gxL3t/Jfl1MU0sDaUblTVtjCtksy5HxCo5I5VzRww+H9RiXvb+S/Lq45ZIjmjlTUOMTJkJFDjv3GosUtJMs2KHuIpJI5Bmjhh8Dn/S4l72/kvy64EjcSKW9u03TP61Hit6WAMg/1FC7n0VOlvHcK53N4h6VzubxD0rnc3iHpXO5vEPSudzeIelc7m8Q9K53N4h6VzubxD0rnc3iHpXO5vEPSudzeIelc7m8Q9K53N4h6VzubxD0rnc3iHpXO5vEPSudzeIelXEjPMxO/Z8q/8QAPBAAAgECAQgGCAcAAgMBAAAAAQIDABEhBBIiMDFAQVEQEyBDcZEyUmFicoGSsRQjMzRCUHMkUwVEoZP/2gAIAQEACj8A3uOP4jUDt6ocVLL8FZSlMBwuKh+ismXxjNZJ/wDlWTHlaM1CU4gJTunJRWVE8xanhvxcisnzvVz6WQWvgf7NEHvG1NJ/kM+kb/UFaMH+TVPN8bXoX521gU8wKymK3qvS5R/q1FP8gWrM/wBNGlce6b/1gX2k2FAScAuNCNL6MwapJl9UgVbdZEjH8LCxoKg2z516U887CgR/TgAbTQyqcYGNCLg11OSv/C2l507HmzE71IhGzNYivxMC4BVFjSQ5Qw/RY6VC39J18vqx42NdRDfQERKG1FmJxJxJ35o3GxlNjRnyUele7SUI3OHVvg/9CFVeAxajk+TX0Zlwcis52JLMdp/omilXY67azotnX7XpXUi+BxF99sKE+V8QD6FGR/4+6OW4+LuCF86m6ziikZtMPbapZJeCSkBaKOOIBzD89xbqifzIvWpYcqA0oyd7VI1GJNZsOx5vX+EimdjiSxudxKwjGR+GHCljRBw7CM9tBuTc6JMbWViLZ1uO4vG6kEFSRQWTYs2xaDK2II3gKqLe3E25U0WRjYowLD27iBRlNibL7KtLldpDfaO0ZHgBUqnHONGPxoHcMRsNNLkhwz/ScUHRxcEHdgoRb240VyZSeri4extfPLfiiFhUMScnuDUufyjautt64vUCH2LQVRsA7QYHgagbxWhF/mAtTZ/J2qGRBwW5asojC/yZCF8zry//AI8nFf8AroMjLfDjfdFUKML8zTBAfy4+WtZjyUE0I8nO1ibMPkRRyvmkgFRwra1lHSKRM3bc0kyA2JU9qOB3BKhza4FRuDyNDz6UlW1iGFfgjyiUV12TLse+kfkBToeTKRrS+Qu2kvqX2tQeORQQQee5KiquF+J5Uy5MpPVRez3hrMTso5HBtDMA2fStOBpPzNBRyA6I4viNqknbnHiKiSM+uuNSR/5OVqd77c+Qm9WyTKGuxPBqDIwBBHYCogJNDqISVg+A1PH8DkfapntwlctULxD1FN6mhfiXFlqKUngpv0Aj20vWkYNRyuG5JCi2YKs6khgeBGsd8hlNmXipP2FK8TgFWBuCDuAVEFyTVsjiYqiA4Nb+WsKxHbMwulddlNtItitAKOAqwq5PCMZ/2pYor6MoNnqSfG+nagOz12S+ucStZpO3P0ag+sUXk/iEBajDko2Ih9Idp8nPuYUs8f8AKRm06zJAMRIMz70CCNtXBrqpwNEpoijLD/2oNEay+SPhGTsSrqwBHz12Ar/jJ+q4/nwK6tnYnBVFyfkKMcQsyRD+fsalijHBRboQSlbonOjkUWw7GzqLOxJYniTqj5nVEMLEEGjlcC7ENhYUonA04+XQsiNwYV7ZITgFHu0yOpIKsLHDV3lX9KVv566+VzAi4/hV2ZixJ5nVGWZ9i+znQmyvaucPQNYUscai5YmsRgZzihp5HYkksxO3lfeHjYcVYr9qz0OiJRgFFJLHzU9Ahy5Rg4HpgcKMcv31WZNEc5G5GrZTEMx1O0kcdZYAWXxNfmSnZwGqZ2ZgGI/iDxNCTK2F5ZOZ6NO2EY9I0YsmW+aiG2cD6w3wvBseJjhY8hWbLbFGwboAlA0HGFf5ybBJ4ar8tiElB2ZpOJq6SrcH2HVWAojJslJR14O2BB1RZpCAWAJC34mgZji7nE3PQJcpbBUouxJzFOxAeA1zyHkovTIeTCx17QzLsZaEWWIAGXo0yui4GmtEAMcxwNFlJwx56onPxgvsVRqrzz6FuIBoljtPPU580h0RwoNlUg/MlI0vDoD5c4sAD+nRklfadY5J902oRoeIONGf3XAtSR/CLbiUmja6NQTLFH1dCmYAmJ+KtRDoSAfWA46kq6OrXHsNZjlbMvEW1AVEBJJrQiLQoOFlO3U3Z2CqOZbAV/y5gGzTtTozspkGgorPlkOJ1fVLEQDhehKw40oXdSksbBlPhzoJlsWDD1/aOhUy2EXV7bQOFFJYzZ0O1TqfycsIXHFUtVwR29PLLx+1dURFGbRKw9LiGFYUM/ZGvNjRLObqt8EvwGs7xftvDJIhGI4gHZSrOqjrU5Ho/wB0G06kq4Oiw2irNH+Ww43TDtYKpPlR6hLKq8AVuDqbxKQ03wGrRxIFFBYo1LMaIyaIlI1Bwbk2t7xftvJMJP5sfrUGV1BwoMri1jTHJpDeNzxJuSNSRDlACRr7/atO4ARaxLFvPUXNA5TNpF/dbotxnbmp13eL9t6/If8AQ+M9AfKolJg9jVZ43KMPauo04HDr4igXaIF/YT2SBkecsg5ltT+TkZDHk1xVgAAB4UplCaCHjTM8js12Nzib213eL9t6Kyxm6NyNfnQjq3vtJHQBks+B/wBCdSTIXMkfsTsAdXGzCsZ3ztRizqo+ZtQ69lu7cTVgMT8q/JyMkAjjca/vF+29n8PlFoszgHY7auDWcyIXjHvis2WM5rjkdR6ZEP1tW1Qem0kkqp8idTfJorlzyYWIrBRbyq5e0YHx4UWYm5Ov7xft2lKe02pPqpPqqP6qT6qj+qk+qk+qhnLttrbMpBU8iKzp8mUJKTxboJXLAZG5A6jFHVx4rQMjxgt03iEJZviB1P70iUdH5UKsJV9/cO8X7a3AD71clz99dmwZTdnPtFYGs7KY2Ug+6Djqf0GUIOiwFXEc7IvgNRfrZ0Q+BNqGbDGFFfpRs3lX7iQuByuNw7xftrcZxrypWRDccgQaurIAKF2jIHzrGFvvqLJPnE9FjHAzVjKxc6jQihzwfeB6NOeXq28DWzcO8X7a39tcee4ftRf6uj94SPp1Fij286uTGp8L41+urJWwaiz9c6dF4khV/nuPeL9tZbNQnyrGRr7h+8sv09H7QMdR/IHyNAnMAvWLZVpDUbBVutAk864V+nK8X0nce8X7dpMyo6jqOo6jpQp5bjbqpCfMVi6Bj88auXjr0XZfp1F3EkgoWVg2oF5DavRgUVbMjJr053b6jfce8X7b7Y8KFxCq3rRKNWIymXyzjqPQLGtkCHt3A2s1wtSTyrjmMBYGrKosBTRCeMpnjaKMmTE2WQYn57j3i/bfTFkp2udFvkCKaUL/ACatoI86YzSXPVHBaaORDY3BthyJ7eCxIbVYfhox2tuk/wAAONBFRewHjkUqwI4Gj+Elu0fJBy3DvF+2+XyOE+gf50FVRYADl2AMoQXRhtJFFZojZweB7XcRV3Cdr80y2Q+52vzEZWB8DfcO8X7b3jJIqDxagHSJQx59rHLA7yeI7RW8KV3Cdrl2io6tq56/vF+294fjYfvXDtDPUYdruUruE7QEqTaC817QMjFVA8dw7xftvf6UySfSb1cSxg9q/Vo/WDtdylf+tGe1hgjg7M1jjSsGAwGJx7ASNRck1/xoLotvRfcO8X7b4Qr/AKLH0VFYHsKHzTmDma052DEcB2u5SsTk8Y7ZeHjATZTRhyqU2CBSRWBxFXECFiKOTZNsMaG4Ybj3i/bfLMpuDRkgQfr7XomN9hOFYCuvytNqEELRzb3WK91Xt9ylAByEztRfq2vatsKnzrODxkVgkzrbwO494v2370olarLmNW3KZf8A4x1HcpWn+Ks2o2ir9UgTyrga9Od5Pqbce8X7b7frpCLeAq2ZGq16CV6bs3mdR3KVcQBnNcNRpid2HRaJ4VT57j3i/bff2hDfUOj92CNT3KUbyQMtYxnN8tRaKSGwHvE9GnDKGY+6Nx7xftvv7oAfT0ftCdT3KVcNgRVlfKHZPDUZojnRmPug41oyoGFAmWJlFXbJ3zD8huHeL9t8uXkRbfEasqpf6q9BGbyq/XN/8XDU9ynRaNoCG+LU45CFi6PysoUtI/v7h3i/btc92z8mguH+LAisBYeVWmcqoHsJtqu5TovKkqH5A6nNyaa+f7WrAgHzoCRLOD8GNW1/eL9u16YbdbsTYDmTRWbKwsjg9BzMlDJIvAtqu5ToBz42A8SK04GCnUYo6t9JvQ621mFXDAgjxq2TZWxMajYttfizrbtAzRjQqxBII8OwzH2KTXVIqFlzTiSOdbNcRFDaUtwup2VZQLAUEfqyIva1XlmbPfxOq7lOnDLM5nPtGpPU5XZRyW1XB2UPxCKTE/KrMjsp8VNtd+pj2xBIcSwG2iw50VHOus5qRalVq2gjzr0W+41pZ2NlUcTV5p/zDzF+i8MVnYj19X3KdJOUxAFK2Ejy1BVxsYbRSiaLQK8bLhfovHJZZVXYgGOcddipt50DdRrMJrk60/hoDeHkXFYUBOUIiU8TWnK7O3i2r7lOkWZSKIiJzlbgS1zqfyZrJJ7q86zo5FDA+NApIpU/OrROS8TDZm668kWNztN9YOstonlarFWI8tWwVjpuP40FRBsHOgFUEn5VfJIG/L+IYHWdynYxyO8kntGq/wAZDwHBegCVRdDxuKKyxGza3NdDcUFnX0kJxw46uy8aVrmzIvC2qLSOwAAGy/GgcqlUGZ+fReZ/1WU/p63uU7AaORSCK0XJlTwY6kq6OGU+1atlsIAfgG+HoEeWQqc1qKSxmzKeGtZGBBwO23Os2T1gNGlfwPbjBHAmmaQfTXVqOEZI1RaSRgqKOJPCgcslFwpH6QPDozspkGaiL6WPGs+WQ3c63uU7KifJ9MniVWrHiOWptIh2cwaHWAWZTtuOgJlaD6qaOVDYqwscOOueP4a6482NqjHg1J9VR/VSJ4NUiA8BRc8zq2kkY2VFF2JoHKT6CcFHQueFOYnMiiS3oD1VPDXdynZBU4Ec6P4bKSX9iHlqjYEdbHwkUcKBOAdOTcugRZauxhhn+w00ckbEG4Njblz35nkYgWUXtfnQkywi6rtEfh0BFRSaPVK56tOQGw6/uU7QOGcviNlFJojZhqja+mh2MtKJracX8lPt6FGUKuhLxFExEnq5vX3xmGdZ34KOJpZcqI05rbT0KHzdBCcTTrFfQivYDxG4dynbvlEAJZAMZKxUkEciNUVYbVvZW8aEWWoozhsU9CurDaRjRlg4QjF6KSKbMh2jeLsxsFG00YMn4xEWcigiqLX49AkylsI0XHS9tXPBL3Vb8tx7lO3gRY/Ov+LKdIKPRO0sdWY5YzdHG1atwjn5mg6kA3B6Opm2h0wJNdfBfR6oFnoqwOIOB1ThfWIw1V2OwDaa6iIHSMwKGuvmO0yY2NYCgqjG5PKs+Y3Vpf8AroySvtc7dy7lNQHilQqwNE5JIxKN6vIaxpclJu8Zxb5E0sWUkfok4joBBpclnbbLGozqGUwLtcmxqRCNt0IHabJ8kOyT+VRTyAYyOouahMY4WwpMkkI/UjUA00mTFrLL2pHJ2ZqE0IMmfbJfSFDK5QbiSQC4oBR0IZ7XWK+JowZGx/T2N5irnc+5TUgi11PEMKIQk9U/B1GseJ/WQlTXX5KvEAmSlVm2RsbP0XFK6eRNDJPHSo5Z7UAWpIrbb2NYii2R5O2n8YxFBVUWwFtnYVo5EKm4rNgckwfAOiSUHlamyQHi4DUMr8AVpFX240AOhM9BjGDpUYoTgWcWapJn9aRs47r3KarG2g+xgawvoSAaD+GtMUo2Ou2vxacXkbECmjyjiCpC1G9/Va/Sj/EL1EvwqBWarnOb2ntFmjBC1E1uLLeo0+FbdKJ8TWovLsUKpYUMmTYro2NNNKdrtt3fuU1YzrHq5OKHmKOZfQkAuCp17RH6qOWeS0uS87mo3JpCD7w7YFIAPeFIlLlfgaOSHncNTS3+W9dymsVsNEkbGoyZGTZZdxdfAkVlQNrfrPb70WlyS0TknEkDtFJpxe45Csp+UrU7/ExO+9ymtV0cWNxRlyb/AKhiwqxBII5W3FjA5tIg5njSurAHA7OwLgYLxNEh2vGp/iDw3/uU11wdoNCLKuCbEp43UkXIIU25bixgU3MGxWr8MfZdqP0GhOTxJK2ppNK6odi/0HcpuCM9rK5FytHKckG1j6QplPJhY/2fcpuIIPA0Mmyph+pTPk42TjAGrj+x7lNzWReTC9GHKW+imyhP+yJdGrMNo4j+v7lN1DKdoNDJnO14gA1LPEv/AGNjUwI/kEbN8/63uU3hWU7QRSZNIdrKKbKDwUgCiq8w16dT7VP9T3Kb2G8QDUViOCinueTlaZMeLE1EnK6E1A1+UdREgXuFqPyqPyqPyqPyqPyqPyqPyqPyqPyqPyqPyqPyqPyqPyqPyqPyqPyqPyqPyqPyqPyqPyqPyqPyqPyqPyqPyqPyqPyqPyqPyqPyqPyqPyqPypHDxLX/2Q==;" vertex="1" parent="1">
          <mxGeometry x="-2090" y="1429.16" width="50" height="50" as="geometry" />
        </mxCell>
        <mxCell id="cCAjc8YfBACK6hqS6SB_-5" style="edgeStyle=orthogonalEdgeStyle;rounded=0;orthogonalLoop=1;jettySize=auto;html=1;" edge="1" parent="1" source="cCAjc8YfBACK6hqS6SB_-3" target="cCAjc8YfBACK6hqS6SB_-1">
          <mxGeometry relative="1" as="geometry" />
        </mxCell>
        <mxCell id="cCAjc8YfBACK6hqS6SB_-3" value="Karaf" style="shape=image;verticalLabelPosition=bottom;labelBackgroundColor=#ffffff;verticalAlign=top;aspect=fixed;imageAspect=0;image=data:image/png,iVBORw0KGgoAAAANSUhEUgAAAOsAAADXCAMAAADMbFYxAAACFlBMVEX///8eg9b3miMAfdTJIDfpeCbMIjYAe9TNIzXGIDq0IE0AedOzIE7IIDi4IEnEIDy6IEewIFHBID+8IEWCJ3m+IEKsIFW9IEOGJnZ/KHvgXSvkaSn0kySqIFfeVyzcUS3jZSnfWivncSf0+f3zkCTaSi7XQTBoqeLs9fynIFuKJXMAddLO4vWNu+jVOzHh7fnB2vJHldwnh9ew0O9Ynd6ix+xjpuF7suUyjdlLltzW5valyeyFt+fx8fH17fODGHD4tGn617j979/2kwD++fH0pVjocxbBwcLqgDb55uLKDSjRLjLIByjOOUzWbHkAb9HXlqjx3eTHo8FxDnfc3OQAAFT5wo33tnn70qb96dH3ny/xhQD4r1v0qWT3pEP2vY7vjTnsi0ysra+EhYfwpXX816iXmJrPz9Dyt5f0w6vvlEz20b/uiDDumV/54NPriUjqkWrupYjhWQ/keljoi3Dkbz3vqpDdTBjolobyw7bZQBrgYkDngVTif3PsrafWNhzih4zYTEjYXGfcW0zZV1Xzz87vt7DPGhzeeYLUWmnYhZTVbnzgpLHCR2PpusLDU3PKcYvYxtd2V5iXNXFHaru4R29XUKGNT42vc6PRl65mZq2veaWdImS4VX+jVI2aQYK6kbZ5AG92OYhlSJnMts6feKxkEX9yNIu5oMdJAXp/Y5+CeaA6LHCtq8BTSn8YFV0wLmdfXoVyIJqGAAAZT0lEQVR4nN2di3/T1tnHJRSiJCJXCk1ooVABFomNZFm25QsyHVkKIWE4oTe29e36buvabqxL19HRC5c2TZtltOnahb60JbDA2nfv1u0/fM/ROZLOkSVb1o2xX/sJkDg+/vp5znM5OtZhmLCSihrL6qWCFPoZHhSJZY5joTiulL3fLyZZiRoihbC8UPqPtm2Rx6BcJZMrKJhVlIHE+/vK4peGjUr7r1TN5VldK+cU6T+IGLFyudafVHM6JwicnqnJ6b+sRFRG09Ubp5rjeI7jhHzxP8K6WcG0q28EVsosmNGckKmm+aoSUgkalsu0eURB4zmYkR58WgnFplq7x1TLLKBlPSb1AybFzDpcoe2DpGIe0GoPfPotmuGJK7Z/lFjIc5z+wFdWRdOL+UynYFvQeVZJ5RUlqAKybGerKarwwMNWVZNWKHfMozn+gQ/HYgnl2fbxGKpaSqOu+N6zx48//cT3Enr2AoscOd/JScXk49P3jm87se3REycefWY6mQHkEu5jNeU+V4TPAtJt2x4F+uHBJxIao6Bj2nzhPtJOH4ekiPXgwR8+m9AwUo7FtHrufpUNz51HqCbsQQD7X0mNJNV5TMuWO83LRFz9CYvUYk3OsoA2I2BaQS+2zS+aFv/oTzuo2IkB7HPxj2NJzqmctTCjF30b9azAdygru9dxAtVmPfhKzKNQ/ijW8ryFy+ZzWa+5K6u+LX5YTf+IRLWdOHbDmrFItBfUxGxZtxYYOVbXcll6qU2qqZ3a3q7lRnUM++M4hwGssDmVWc6pm6SCpjrrqZxaKeVqShUuMCrFEn4j1Bij9fTzLlSH9WB8o0DVOPBFzHNUvJEhrs3LwqUnIJ63vyXEVxxPP7+tRQlFJ2UK1oZlTnAlEkkpA1yHlxYX24R1oZ6nWeOtnuSpMgPXKDiPcrhayGmc0ErMTdXjGt6N+iOaNeZ6gmfBF1Hl/F6+XCiWNZ0FLmz+L8Cl8ti6AG9UB/aZuAZCygvwlWc4vf3DRLkKJMd7OWD61y+QqM8fd0/Y78c5GpiqAozEBU5If5V/+icz2wnDnn+mJTgh1mNQ8M+oA9b4CvgqCVzHbh2oHmsP+6uZ7dtPnrdRnz6/zQ2LfPjcky8ee/FFhvnvqANmeQ4my3yQ+qAQX1ACAlYFsr34ZwSq1djh2HTuSebFnx978ueRhxTMJeIcp3eeinHmVeanJur2k8iLT/yMDlOIFeeclwDruZ8/+VLkMfMcyjqdJ2xhKsba8BcIFRv2xLPHt7lZH7VZz73EPAlmbHTWHFcBFhWFToviDKOz0NtltRR5TALVhD3x9NOehWLci2wKZ7YtyLxtHzhlXtgpTsWwVPzyzONAiPXk+RPP/IxGPf/88wdfeOXX26MPREtiefji61y+w4QtoTpSE6KP+erjWCbsL48/ZwICwvMHn3/llRe2nzx5Enx/5lfRR3Ipb15dV7gORa7Mm7NVFqIvS1x4nND2mV8/9+NXXnhh+y9PIkRbMy9HHsmtMgcnoMzx7X0zZxZYwIXbX9kLoFOPADmwMxd+OrPdU/GviRd403v9S2JTYl41/9Si9zhvP2LqccQ78+ovvFFnfhJ1oFZV0ZpKhmvrnFUUmSRWjTrea0uPWIKov7kw87g3a/wuzIg6D72zwOvtVhvqnFlHKJFz7G+W9u/f79C+zZBhitTJJC50aObCYLbtkplYQY1QWYg4XV+GqPtt3DemX3OiFG3WRBbD6wJMrZLaLjhV8WyusNHK/1f37wH/YVrAe+HlJTImJxuZgAoojeTbBafilMkoq9GW1U69sQcKw+5fevnUEhWTHdyZn0YZx1dVVPeX2wUnDTFmzQ4wvF6/uAfJNO7Sa9Nv20HKhTuTzEVYYCw4U2u8/9qEpKL3oShECk2/vXjgwIE9Fu7+N6Z/R8TkR0jamd9EGcdfYt6chFlO9b+wwaNNTplI1zd+d3HfvgMHbNylC68u7aeCMlFgJHS1GZS4MCrJqv+WvRou+PNR9ohcAKj7HNqll6ffoGIywZtEbkVCiUTM++eTDKqWJJ0L362fuvjYPiwT93Xmt0tOTHbZNvQonVQ019dAnvXdjaejJqga5bLV649B2bgXp39/kYzJJO7Sq6FH6aQCijioCfCSxKLQlOXa1lZt9ealx7BM1ou/n95zwI5SLtzXwg7SWVmUYIt83u8BOPXiNiGMPrh06NBjtvZd/C0VlKn64pFHToUcJIBkzoRUeL+6XplC4bcYOr2eOoRkwb4FPBjN2z0txl36RchBgkhGzYvMsT4eaq27tC032uq9Q7Yg6qXl6X1UUCaN+3bIMQJJ0lnompLqV+yWp1BI6tD3+eudy4cIPXbpTeDB+1ppEe6FcGMEEygmzMvrea+rdVAaJ+E/w60hvnv58OHDBOxbzO8vkTGZNO5SYqnVlFhBzqv5JVhdRSEpH471FEQ97OBeWj72FhmT9xEzdynBGAwlaiht+laA1hqjHo71/aOHDxO0l98ECcgJypRxD+xJMAab0lA5VOd9ujpr7TAc65WVq4cJHXqPWb5ExmTSuBeTqyKwSqgSzvHeXYwoYEQ9TGy6vtLXd/WwY9rLy05UduNe/F1ohqDCrAXeG0WyOrkwrMZgX1/f/FEgjPoO8yYZlUnci6+HZwiqDArAiuBdKkgCvv4RhvXaLGDtu3r0qIVrhqpD3rRJdXKEymipqSp4d+u2XfPds66ZqH2DGPbo5Q+Y98iYTNK+lXRcgiqjtlQWvItEgrXbeni5D2ses77DfHCZDMoO7qVUUC1WiWM9f2yzal33OfNzmLUXG/YUQ8VkR5feSwXV8mGJ5Tx/LFqspTbLNJ66MttnG/Y0IF15l7ly+ehRD9xLb6YwV6EymFXlPX9s55wyx3a1LtGc7bVZe+dPnz76PrO84kQpB/fye8sgYr+bhmVxHBZ1b1bGYs1x/ktSXprv6wXCsD1XT68sgxrKksN6+b0PwMy+cvRqNIpgwvlV1H2uI/MaCkkFrsNnDWmtzvYiYS9e+ZD5YOXoUTftO+8uf3BtZeX0ypWIGIGEa0Qx78Oq4vCrcF6f+vbTsoVq0V41jKunT59GoFehTl99//33gb1XTkOl4cJW7e/LquMNQVm2i4L42LW+XlJ9s2vMFZMPAM739VnvwGlLH0Yn6Szcv4LezjsOAx9HqUZWWb8lqVatzfbSrPMg2w4ODjrhyhFEBZM5BeF1CWhf7wfUpxCrqLMBtnwhNXtdml1mrs15gWLaa3GgdJSkonpJ1Hyu6NSmcPitsIGTDuCiNHeGuT5LhGW30jErU8VXrcSKzzKhYm0IyXB+yzRurc257XqKGewjwzKt2XTMytRwLydWfCJP1gq/xaCB2Gjx4FVqAreatRkHSWeVcY8u5n3WJSQWF4lZLmCn81FfjzswGbSlXWZNJQgzzoUcUffbRKxWUEiCn0QK8ozXZ3ugCLNeZ660eDXJasRC0lGSzqPpKKp+k7GEtw6A7BRow8R8b08PSTv3EdNsQSVowVuRjqrWvVIk1S/IFvFiOAxOATaQr832ODJZl5kzXqwYd/ZKLCABVOBxIpFYv+SZtQJxkWM7V06nenso9c59CL3amxU6eFqTFXZquAOXfPekySxecaryPj0uqQ/naNaeOYNxFYz3CRWurKC/ZP1NlseZF5RYHTfCL8/1DA5SqKu4jPD04ZXVeDCCSFatzzUU/Bu2unVBvdTxrirMRwB1kKSdw8HKi3R2ENRLKeVWslFr83nmrLUbHEzYDhn2+lx//+AggTu3xpy1vNrtvr3AqNfn01lpYuBig7U5r81tuCQVlxkyz/Jt19eM+X6oQRu3F5QRhJEJ0rn5tWZzdX5lLTaWTsrbGz7arTloeE6DDNt+beJsTz8Whp2DZQQdl5H6r6xduTY3l17CgTetwqsOYrs1wpq126fOse32rhljw1AObu9HoDp0xWVEO987N9fXO3ct8mfHAksJkjHhBgNcQ8A7tbVx4tX+YSyM27vMfNg36Ia1jdvXn1J1CFUP2LpoVr/Hsm1KJ6NneGxsjKDtOcM0Z11xmaDtm00tBgOpAT85VhOwNcvtIvEqRHVoh/t7msyZHiosUwXVfIpWZWQh4CftJdwgQCf2/XyD0TNmCbH2rIKin4jLNOrsmTRRgxW4pjLWspr3/TJNrQ7v2jVG4TaZPwxScdnBnetJL9mY0vxfuEvKD7D9QST2WWEzxnZBObSDq8xyDxWWbdq+uTOnmFTNKvHBP+jJ4uKwyrE+q06rYw/v2kXiDhvMmf5hVxaCtL39Z5aN5Stn4qEIppqvjVqVs1YZQfXhGZ2MXQ9DObj9wKyDw2PDLbT9H62ufTg/u5JWi24KlPKdPh9pS/wBXpKA99/zcoazYzt3UrTDoBEYJuOyjQtCcC+oHtP0YYljO3yMjlQZRzFR9XyHjKGdUA7t8BpzfZiOy5Qrz6XYzZlRmAu+K0C2PvsMopNH7bS2a+dOhxbiMswfxwi5cXvTrCPECtu2uHVLw81O1TPt/HHnyMgIgTsGzUrHZYq2J8X1iHYR1VtZq+wosa1LMdchqkO78+EhA5h1lysLEbhz6VzVwALlns+VdB+VsDVBw9CyPPHxyNDICIFrmpUKyzTt4EfxQASTpHd726ksXoUT4f3G6YneHDLl0P4ReLU7CZG4c6kmnGKXLgxUwtZUBLdhV0eGKFrTrHRcpnD7UzWrqLNsh1vetEjGO4lhPaFShh0aGhgYGnJ4oVkfpsMyRduTqlkLHpOuo3I4FBcEOhRfB6gDDu3IruvM8hgVlmnc4fmYKIJJD3PjNNHauabT99P7eMASYgVm/XgnFZZd5WOqZoWxNHB96KhgLSbz5K8bIzsGBgjch4FZHx4acWUhB3cs1dlqGibMp+PyVef37Wt2awM7gBzYATMHDdFZiKAdSzW3wvvAh9q9L+OFJ9gB2HsOPt6BhFlH1pimKy5Txh1LtRKGZuk24WDV8WJM3lllM4ZGR0cJ3CGG+YSIy27j7hpJtUmv8T5NaADh9eQsvMEeilRrO0ZHCdohYFZXXKZoh1NdfIHHNvBhbymQxTEpw1n72D4ZtWSy7miJy9TM3fWHeCACCp6zEv4mNnXk/DJ8w+BfjVFCgPUs0ySicqtx0+zlYL4Jb1Z4WBbyYnj0A6ye1kZ3797twI4azCcDZFimccdSTa0SzBdRbq9VRdUT3CoCk+wnkNWm3XGWMQbouEzS7vwkHoiAgh4c7YaIBeTFpn8oxue7LZmwBnN2BxWWqYpqIBaEwC+UY0OVTKTqyIvhDfP19dG9uwlaYLcBJ1C1GDfVyYqOzol4t04RvVcSzDufju7dS7A2TbOOeuIOjaQ6WWEN0OncnACSURkB+h32T7v3QmFWYFYnTrlph9K9rAEXAUN/FpuQgupijeO+3GsJsjZdYZmkHTkbfdwuVDPPQ4rjBpboJEqZ/cxhBbTArJ/vJsOygzswlC6qwgU4DCnoc5lfa3+e/HLvEYsVmPX6KB2WbdqUUbPomJF4nkxEsBuTk0egTNavGOar3URYJnAH0p2rVdWMwXHda1gyS69bk5NfHsG0u9eZ5m4nUFG0qbas6CACNo6bdFpPCN615uTk5PgRDHsEFFFEoHJod3yeal7FiTVqFUGpKjHrDQA7iVmvM00yUNmwO9KdqvBeGVDdLpN6y2q2ZXEBso5jL4ZmPXLEjTuaslEZWWdjnKzGDfzypRuTk7Zhv2CMI06cwrSju1FQOpbaYkQVoYZcd2nVemMBvfZbiPVPENFgvjhiyULd+wl6XHMzppE7SsHnEMR3HsxC42vTtAjV9OJPNfEIIUSK7b81mZZZa/ggoDhvbv51o7EAnLmBYYEXf8b+z14K9sgXmNS40diKceh2qmPUOG5/bcsYH799k2k2bMPeAm0ASfr5GjalcbPRuBnn0G2kWceyxfu0W43xxtfrjfHxcQT7GfuZbda9X31h+ez6jcZk4+t4h/aTbJ3JVon7VK4bAPbWOBLAKbAbEPPLr75YW0cPMJpbNyeh4W+lM1mzKg5Loe+V5qvmQ+OOwIRUGg9NwG99fePG5s2bN7++dWuyAUkbKaHWrJNg8gkcPbfZcGhvieCfFjcS8u3UUOtcgqiM8RAQxlsA/xp3y0S9kcDIrZK0RFFNw2LchsEs3HbQbdjG5EIiI7slqwmjMoaJB9TYBI0s/juB27h9Ix3/VQRrrmqJHYp5A+PdNph1i9uGbdyGpZWxntTgjnK8dexYnF2cS1sYEMzJGxMPkQLuexdWTVsppNaydSZX/GciEjJuT0DE2+tMc2JigqAdv/NnTlWaC7eSD8KyZh8/Fnkp2EOGDTCBEEGYuj0xQeLeAZoAeSfx1rVqHZWY0NnoxubNdcR7A/LdBglnwhY5aycSn6xZ+yy5xM6831pcvLNxd3Nzw8QzwL8nJlpwx+9w+YQP8FYs/xXi7OFcEjcXoUyzbjLMnQlakPShP8MXkejR7AWca7ikj7vf2sBgTWZ90cU6cbvxF/SWC0GOSAupooWa9JHoza27CBYknLs06+3bEwtOIkjMu3LWEEmmGhCdgFGRB08srjOGgwr9emMTRt+SfZRsJpl3PWcdIJ7o2e/GN3cA0p0NoImJDYZZgJQgyWxs3NxcaOKEJOrJhkgLtZTo4eELG3fuLoCkY4gg1yxuwcgE/2UYdN1QZW3YSvyvp2ihJjlVm5tbToGwtXjHYIw78GurCs4JwbF3HzkhkYUllyiqjcVN+Mfm4obX21smYON9+y3UaIehdKXm4iKy8TeL33j9vOLAxnNxBasuJPIOttXdxbv4b98senkxvogUtwms5ZbwZyt0L2Nx0V7jvuu52u1M2RiXpy3UiKc0daeFe3+1/25sej6kRMDGVFRYJUSgQ2tj08Y9YpZ6N6oy6yiey0mWq8R7GaOT1u/d69yJF8mDvGOo0Kv20lKq5y7fvfe/AR6lE6yBP1nsKyleJwkq46/3grTi9hoffIGRz8u1s1jkExC70jf37gR6XJ6cshGXhOwQHH2bYVeiIlMbKeSMDXQjviBPFel5utX6vb8GXCMkZ2w3t/VtkZiP5Wm61917dzs/yFSNNCwXodYhYnqaZUTQyAQlq/EYlqg4045MnwZ+rEZOWDV03iHMGuP55wF0J2BkglJ4gpUPHUEJ50i1PAxUM1minDj0R0iyRGmd6nQNHpkYdHcHR2E7sRwR4lJlvRc4MkGVyUjMh7wWQM76NFm3AtZMWDkq64ScsHpA1lrMTcGnXUQmhmrZw/exxKRvs69SKrW7+V0Infv2266uq1KBOGwDQLL6ukZV5cInNU99822Qbo54BUSvEzoQ6wHeLhiruzwNpoPEv3zb3V7KWOxaIp7Dp24y01JsG4dNrX/7bXe/QM/XkFUiWVZ788jmI2Ld5s/87am/dfcLdSrnhHzfqySrl2/YbVCMTmz833fnuvsNqiAO/VLIisSrXbIzW4wXPv7+1D+6+4V4akSq6fcwrL0Uxfofx9y1/vXU37v7BWotMXztTxm29UxwYj7HBnvuu392uWmJrHiifGqmSj5Py5opWYjyMe3V6zoyUWaNckY7UyRzl7uHoIrueDZ2if94qrvIJJGvIOIF0ww5ZV2X64s0K1eJnmdf+u4f3flHnnoJ0YpVMU/C0pfrZdYlTlMievLfuoxMGertjtqMSdSipE61h5SHowfkc1Fy7bEuk2uZegHRJ5GkUu8d5aeuGWvSclottCv9/al/dfFoMUNVwnHEC4lK1vTevCLfSstyfCUXzp26Sq5yJY4m3SUpTz2pTppWLnMetABX0MuFbt3ZeOq74Hepd0XGuPoPsUTNC14jrSblVMELF3gzx2q5Qja4R3fhwsQmZjhUPsaKvO6KQnTAzZZ13tO8Jq+qa5mckpU7h+jAyVUu06PEewGm6IbQqYAryrVMhRW8gS3kSqkMzFyVJR/qc/8Mhlotq/6TKg5ldRcHcNAC5Z6inC2WtbwKyfyZeU7V81qpXM8VCwoElyQRCjxBoLkqFTTXs9fj35wjZloAOLXcshwrytVsIQeYdV1VTTpCmBeK5wVBmJqaAnNd1/MVTStlyjmTv42zi1napLC8SWY1t+ZmhfFW84/1olTNKkiFYjFXL2coQdMWawXz59lsturv3FjVnO5KcfG7ry25IrTi8mw54T3ipqSiG5Tl9USv9dc8kynH5ZL9mAGYpC1FC6cmvatB1lpqYHNgtlJIav+eXNDY1lDB5VLYGtkSB+33OaPEjitWi5rqUXSz5ZQ2W4HSwadw0Mtx4krZeqXVopC0lPAnc6hXUQDvtncdDMrgWHBBcaJ71Z4cp9ZTJDUlKRnWGxd0dcWISU/J5b0aKPjklUKKW5gJZYv5KW9egc103eUgSUquwvuACnox1T2RLolKXfd8aRzkrXXR5AC3VYoa69tECHrCiS2QRCVXUj3rfvA9vVRUqh2IQSVdKJuFtBcm+DavZ8IvdsQuUS7UNZ3ztjCoeEFbV1NAGWjX+qIkyXbprPp3CzxbAU3//Zmj7STJSi4DOh2vRsdscVjQ2en5fAUI9AY6IPGFNN+jvJZT/g05HUlyFSLrZnPnB9JG5m/plcy/OSYlqaoU6iVNtwBMa3uWBizR8ulauRhoEePfVMDSWaVQK+bKmVJJ00z/VaE/53HjanXuHZq65PT/Enz64EvfVhQAAAAASUVORK5CYII=;" vertex="1" parent="1">
          <mxGeometry x="-2203.73" y="1429.16" width="53.73" height="49.16" as="geometry" />
        </mxCell>
        <mxCell id="cCAjc8YfBACK6hqS6SB_-12" style="edgeStyle=orthogonalEdgeStyle;rounded=0;orthogonalLoop=1;jettySize=auto;html=1;" edge="1" parent="1" source="cCAjc8YfBACK6hqS6SB_-11" target="zVgAzkZR-FTV_eOpLG_5-202">
          <mxGeometry relative="1" as="geometry" />
        </mxCell>
        <mxCell id="cCAjc8YfBACK6hqS6SB_-11" value="&lt;span style=&quot;background-color: rgb(255 , 255 , 255)&quot;&gt;Server&lt;/span&gt;" style="shadow=0;dashed=0;html=1;labelPosition=center;verticalLabelPosition=bottom;verticalAlign=top;align=center;outlineConnect=0;shape=mxgraph.veeam.3d.workstation;fillColor=#FFFFFF;" vertex="1" parent="1">
          <mxGeometry x="-1556.5" y="1595.59" width="49.03" height="40" as="geometry" />
        </mxCell>
        <mxCell id="cCAjc8YfBACK6hqS6SB_-14" value="" style="edgeStyle=orthogonalEdgeStyle;rounded=0;orthogonalLoop=1;jettySize=auto;html=1;" edge="1" parent="1" source="cCAjc8YfBACK6hqS6SB_-13" target="zVgAzkZR-FTV_eOpLG_5-208">
          <mxGeometry relative="1" as="geometry" />
        </mxCell>
        <mxCell id="cCAjc8YfBACK6hqS6SB_-13" value="&lt;span style=&quot;background-color: rgb(255 , 255 , 255)&quot;&gt;Centos7&lt;/span&gt;" style="shadow=0;dashed=0;html=1;labelPosition=center;verticalLabelPosition=bottom;verticalAlign=top;align=center;outlineConnect=0;shape=mxgraph.veeam.3d.vm_linux;fillColor=#FFFFFF;" vertex="1" parent="1">
          <mxGeometry x="-1947.38" y="1339.09" width="46" height="60" as="geometry" />
        </mxCell>
        <mxCell id="cCAjc8YfBACK6hqS6SB_-16" style="edgeStyle=orthogonalEdgeStyle;rounded=0;orthogonalLoop=1;jettySize=auto;html=1;" edge="1" parent="1" source="cCAjc8YfBACK6hqS6SB_-15" target="cCAjc8YfBACK6hqS6SB_-13">
          <mxGeometry relative="1" as="geometry" />
        </mxCell>
        <mxCell id="cCAjc8YfBACK6hqS6SB_-15" value="" style="aspect=fixed;html=1;points=[];align=center;image;fontSize=12;image=img/lib/mscae/Docker.svg;fillColor=#FFFFFF;" vertex="1" parent="1">
          <mxGeometry x="-1949" y="1233.59" width="50" height="41" as="geometry" />
        </mxCell>
        <mxCell id="cCAjc8YfBACK6hqS6SB_-22" style="edgeStyle=orthogonalEdgeStyle;rounded=0;orthogonalLoop=1;jettySize=auto;html=1;" edge="1" parent="1" source="cCAjc8YfBACK6hqS6SB_-17" target="cCAjc8YfBACK6hqS6SB_-15">
          <mxGeometry relative="1" as="geometry">
            <Array as="points">
              <mxPoint x="-1987" y="1200" />
              <mxPoint x="-1924" y="1200" />
            </Array>
          </mxGeometry>
        </mxCell>
        <mxCell id="cCAjc8YfBACK6hqS6SB_-17" value="AWX" style="shape=image;verticalLabelPosition=bottom;labelBackgroundColor=#ffffff;verticalAlign=top;aspect=fixed;imageAspect=0;image=data:image/jpeg,/9j/4AAQSkZJRgABAQAASABIAAD/4QB4RXhpZgAATU0AKgAAAAgAAwESAAMAAAABAAEAAAExAAIAAAAHAAAAModpAAQAAAABAAAAOgAAAABHb29nbGUAAAAEkAAABwAAAAQwMjIwoAEAAwAAAAEAAQAAoAIABAAAAAEAAAJZoAMABAAAAAEAAAIPAAAAAP/tADhQaG90b3Nob3AgMy4wADhCSU0EBAAAAAAAADhCSU0EJQAAAAAAENQdjNmPALIE6YAJmOz4Qn7/wgARCAIPAlkDASIAAhEBAxEB/8QAHwAAAQUBAQEBAQEAAAAAAAAAAwIEAQUABgcICQoL/8QAwxAAAQMDAgQDBAYEBwYECAZzAQIAAxEEEiEFMRMiEAZBUTIUYXEjB4EgkUIVoVIzsSRiMBbBctFDkjSCCOFTQCVjFzXwk3OiUESyg/EmVDZklHTCYNKEoxhw4idFN2WzVXWklcOF8tNGdoDjR1ZmtAkKGRooKSo4OTpISUpXWFlaZ2hpand4eXqGh4iJipCWl5iZmqClpqeoqaqwtba3uLm6wMTFxsfIycrQ1NXW19jZ2uDk5ebn6Onq8/T19vf4+fr/xAAfAQADAQEBAQEBAQEBAAAAAAABAgADBAUGBwgJCgv/xADDEQACAgEDAwMCAwUCBQIEBIcBAAIRAxASIQQgMUETBTAiMlEUQAYzI2FCFXFSNIFQJJGhQ7EWB2I1U/DRJWDBROFy8ReCYzZwJkVUkiei0ggJChgZGigpKjc4OTpGR0hJSlVWV1hZWmRlZmdoaWpzdHV2d3h5eoCDhIWGh4iJipCTlJWWl5iZmqCjpKWmp6ipqrCys7S1tre4ubrAwsPExcbHyMnK0NPU1dbX2Nna4OLj5OXm5+jp6vLz9PX29/j5+v/bAEMABQMEBAQDBQQEBAUFBQYHDAgHBwcHDwsLCQwRDxISEQ8RERMWHBcTFBoVEREYIRgaHR0fHx8TFyIkIh4kHB4fHv/bAEMBBQUFBwYHDggIDh4UERQeHh4eHh4eHh4eHh4eHh4eHh4eHh4eHh4eHh4eHh4eHh4eHh4eHh4eHh4eHh4eHh4eHv/aAAwDAQACEQMRAAAB9l21bbVttW21bbVttW21bbVttW21bbVttW21bbVttW21bbVttW21bbVttW21bbVttW21bbVttW21bbVttW21bbVttW21bbVttW21bbVttW21bbVttW21bbVttW21bbVttW21bbVttW21bbVttW21bbVttW21bbVttW21bbVttW21bbVttW21bbVttW21bbVttW21bbVttW21bbVttW21bbVttW21bbVttW21bbVttW21bbVttW21bbVttW21bbVttW21bbVttW21bbVttW21bbVttW21bbVttW21bbVttW21bbVttW21bbVttW21bbVttW21bbVttW21bbVttW21bbVttW21bbVttW21bbVttW21bbVttW21bbVttW21bbVttW21bbVttW21bbVttW21bbVttW21bbVttW21bbVttW21bbVttW21bbVttW21bbVttW21bbVttW21bbVttW21bbVttW21bbVttW21bbVttW21bbVttW21bbVttW21N3HKdVU7attq22rbattq22rbattq22rbattq22rbattq22rbattq22rbattq22rbattq22rbattq22rbattq22rbattq22rbattq20U35yWNPrMc1d6tsq22rbattq22rbattq22rbattq22rbattq22rbattq22rbattq22rbattq22rbattq22rbattq22rbattq22rbattq22rU5W9V5z3tV4G8Ud0apq/wAye1ttW21bbVttW21bbVttW21bbVttW21bbVttW21bbVttW21bbVttW21bbVttW21bbVttW21bbVttW21bbVttW21Zgquoqn1RVgeo1PqXpJqus+a6KqG4dUlX+r7Cttq22rbattq22rbattq22rbattq22rbattq22rbattq22rbattq22rbattq22rbattq22rbattq22rbasxSwoHQ5FV9WrpKZuZJSCUd9UU91FQlo/qlPYV1Wmq7Sttq22rbattq22rbattq22rbattq22rbattq22rbattq22rbattq22rbattq22rbattq22rbattq1ZGoFvK6imdvqiFxQqXOaTL1dGVWOqOFxFTomqybKoq3zF9W21bbVttW21bbVttW21bbVttW21bbVttW21bbVttW21bbVttW21bbVttW21bbVttW21bbVq0jel2e1Zu4TULzaj1JXVV9gmKKSosKdNnOpm7lvTgS21O0qiqSzJR10OGSttq22rbattq22rbattq22rbattq22rbattq22rbattq22rbattq22rbattq22rbas2NQ0a5QulCK0p3oBQiOdUJW1olalVHrLZzST0lhTvbVgm1NHVZZ03IVnVZf12qx21bbVttW21bbVttW21bbVttW21bbVttW21bbVttW21bbVttW21bbVttW21bbVtq2mN2zLRHETTQjK0rbats0olE5tqZvG80VLJ7RGzvUyeEbU5zYlAKthVmxW5pFHZAq1mqta22rbattq22rbattq22rbattq22rbattq22rbattq22rbattq22rbattq22qOfd6rFuh9SgDb0d4OKKMWoC3qKgRR0qpM+oFe9d0F60TT3NXVZKtVc8U1qHzB/Vc5caqm22rbattq22rbattq22rbattq22rbattq22rbattq22rbattq22rbattq22rbaql841VtlE0xctVUN/C622rZqitW2hKbrDqc6psKIdY6kB103OpNSxf1VWU11lTXyHtfK+7hdZruvkdZrqdZrqdZrqdZrqdZrqdZrqdZrqdZrqdZrqdZrqdZrqdZrqdZrqdZrqdZrqdZrqdZrqdZrqdZrqdZrqdZrqdZrqdX3LyrfQROe6HyfVQ0GkNZwqKAl3FI2igrcMKMxbxVpXNX1TaUpKutXWFTtq0TqrLJg/hxXlvqXlvpedtt0c+21bbVttW21bbVttW21bbVttW21bbVttW21bbVttW21bbVttW21bbVttW21bbV7H0vNdL5Hr1dkxsEfbattFSNk2qR4lPXHONKfv2sU9G6XVe2viVUWkjo2hjTW2Yvq4zy31Ly30vN226Ofbattqzx/wCxc/R4Fu+4HXLbZ022rTvS89PP2fu/jSPW7bfDbduj8oz9+8gx1oNt08+mOiVqln7/AOZYdHG7bp5dtNZ16J0vJ1eF6wr+rm22IzzrvROXq8B17RdPPtsV22r2Po+c6HyPXq7iuUjv0LDVc06BVU6rIVNknrKRinq2rbPVzrm2Z08XRGq3wyVqm2YU+0xDivLfUvLfS87bbo59tqm7n2Hm6c62870N5r6VDp88bv8AgPU8zTHfRfd3p8r09XWMK3hVb7t5v6Pnn9RyuHtzdxkfxfn/AKB8n7+AHr8OOXqyVbHbynjfobx7v4Ob9OaehK8zE8XZV+Ne81HRz+Hd029V3xytuHubeOe2NdsfAc/Yen5m2xHsfS810vkevqm2YI7/AG1bDrKtKkT+qx/YLqJ2rlXsRTyW72gpfGqhsH+pDR8mpzV1DivLfUvLfS87bbo59fNfa+bpziY870KDoPAfW+jn6Pbc/TvNvSYfP54fOan1fL9xtvMPT/L9PRNbnpwHHB3r+V7H0vjPs3nd+iYx24XzQoPV8v1Dt/A/fOLtmJ3P0ct5JdUPqeZYey+FdAh9o0T53pJ8q9S8J6uUPsPi/pG+HoG2830Y8+6Hxjs5Jjbv4Ntq9j6Xmul8j18xW5R0tH+rn3dqmq7PA0FqsVNCONVzV3OqnWdlTp/RIrotTuaf6sf1MyKuP8t9S8t9Lzdtujn6T2Txv2TzvQ0THN1fPikj9nxvZej8H93830p22G/iVJd0nr+R3Pp/mHp/n9+rrGux38I23s+N0Xs3jPs3n+homOXq+fwHB7PjO/fPA/fOLtmJjj7PFqG+ofX8jbS6eydH457F5fqT5/6A3RvCvdeP7jXLRPPYb+ec3t6/k7bMu21ex9Jzd55HrlIlKOTVhKfpqG1WI2q6JDt9Qi7UMlQKrzUDmrViJzVY26dFN3e1QE8VxXlvqXlvpebtt0c/SeyeN+yed6GiY5ur58GQfs+M+958G954u2dtx9niVJd0nr+R3Pp/mHp/n9+rrGux38I23s+N0Xs3jPs3n+homOXq+fwHB7PjO/fPA/fOLtmJjj7PFqG+ofX8jbZ0n2nxXqsN/XtE+Z6e21R476H4v2cW23dxbbVttXsdxT9L5HrpVsjs6Tp0VSP37SnU1aattQLq4YjXVm2c6uWm5r6dGYzVkanb10K6ZdW0Vz+HGeW+peW+l5223Rz9J7J437J53oaJjm6fnwfpMel5vC+88L3XL1Ttufp8SpLuk9fyO59P8w9P8/v1dY12O/hG29nxui9m8Z9m8/0NExy9Xz+A4PZ8Z3754H75xdsxMcfZ4tQ31D6/kbbOmmJr2654PvPI9bRIkfyLmTB9jydtmTbattq9j6Xmuj8j11asQj2WqmtXImcUesdppr0ALCtsiqe2b1tX4a19VbF7qqXjqmqLlq7rRMQ4ry31Ly30vO226OfpPZPG/ZPO9Dbbm6ttq22rbavEqS7pPX8jufT/ADD0/wA/v1dY12O/hG29nxui9m8Z9m8/0NExy9Xz+A4PZ8Z3754H75xdsxMcfZ4tQ31D6/kbbOmctvRM9O7c7eT6uicD5jwvvHhfpecPbdPNttW21ex9LzXS+R6+icj0thDGiN73VR2xmtOhVgKIwvXtaJY0bnT2NVBbxpVa+BfVtE1obFrjvLfUvLfS83bbo5+k9k8b9k870NExzdLLeEj7eP3t54N7zhvO2x28SpLuk9fyO59P8w9P8/v1dY12O/hG0+z4/Q+zeWep+d6GiY5un5/AcHs+M7988W9p4e6YmOTr8Wob6h9fyNtnRz7rwnovnejG1Fz725/MPT2XeWep1ZHheUn1vK22rbavY+l5q/8AI9c2aukfU9vNc1JndVMdE1p0bnrWn22rjryyVU7DpNMye1dtgvaWNq2pFvR9DXFeW+peW+l5u23Rz9J7J5J6353o6Jjm6Pnwb1l7PjvvefDvceHunaOPr8TpOk5v2PI7j1Dwf2Xh7bOusK7n6PCepn1nu4sXbg7tto/P1mb1z0PPzzbz+/RLWvH6Gwr/AGPJzhv6Mp7h1t5Pqx5B6j4P18pPdfBfStcu+id53oeT8f7j4n6fmi23Rz7bV7He0XS+R69Fb0bhHt2o3dKpHjOrk3J9RRKq1iuPF2bKiuK6KtYoGNXVIToq5/XDmqc9rVU/coXDivLfUvLfS87XVLba5ezu2T3yPW22jSeV+n+U9vF7Da01zyde2ysw8b9h8a7OOusK/dvF7o+8M9l830bAm2HRtq2FhPh/pm+N452w22zWt47qP0fP226ebufTfK/VPM9JW2w6Nw/cef648963496/pm423N1bmem5N8/KBLR6/lbbQ9j6Xmul8j121fa1SOBt0iK54N8emtnyqK65FE7p2hu5pkewoKU3eXVQoRa21VQXPOWlXJqW2rj/AC31Ly30vN226Oe39k8Et+bo9woGflXP0S329Dgd+yeIPMdve66n8y5OvV23o+dtsRn7DA+52ng3qPnehbeNxX9XLii3Rh7H0vz56r53odJ47qPow226ebbat2fGZH+hp8rtPO9CfN9vQ4N0PPZl+gTeNdp53om8myO7h221y22r2Po+cvPI9eWrUSOa74noqtNtSea6IlULxsKnCblVcu8p7GrE1Wmr1nXpqHqLmq4NvNUVySIcV5b6l5b6XnbbdHPttW21bbVttW21bbVttW21bbVttW21bbVttW21bbVttW21bbVttW21bbVttW21ex9Bz/S+R69Ca4yPWit4rnLNs2q+BVRVg1GihPaUddrBdUSmjp00pnVXziqirptVsKtbdBq4ry31nyb0fN226efbattq22rbattq22rbattq22rbattq22rbattq22rbattq22rbattq22rbattq9jv6e+8j16R8blkfrBU66esVV1XVpw91V6NaqGpWrbakhcamyj6kq1JWdc/Z1aOKtvV15r6UR8/HN7HtsfHN7Ho+Ob2PV45vY9Xjm9j1eOb2PV45vY9Xjm9j1eOb2PV45vY9XjlJ794ztjzu26+TOW3RKy97FPB3+Ob2PV45vY9Xjm9j1eOb2PV45vY9Xjm9j1eOb2PV45vY9Xjm9j1eOX3osKYwqfDotQCb0u7463q4EfU2lxqSrattq22rbattqb1d5qpDWupq5kdMAU7qr9i1HTqzq3VPubMOrgVZqtbGJrbattq22rbNqc5toOfGfXPIerm5/beh5+6LnegTT2jNt5Hquc21OdEx22rbattqrU2fM1c0i9XRDpbCmpQt6vK4AKtbPjOuoLW11UkXmpu42rbattq22rbattq22rbattqiivtVBZPdSePuk1U2luWk8j1gapeiVq22rbattq0TFeYcP2HH+r5W22uW21bbVttW21bbV23qPk3rXm+lttz9G21bbVkq1c2z7BrTilty1x6OuqauWjS4qgm+1RO1bbVttW21bbVttX//2gAIAQEAAQUC/wDLfFvIJY/+RJuJBFH7xK7SbkyD/kSC7ubnSNIrHayGNX/Ij3UnMUoUi9ykaxybzlVFnMVf8iNdzlL5VAkc69d7HzIYjz4LiPmptJxMn/kQ7ucQpt4+UiUm3gso+XBzonBOq3XX3a7pgq7hVEu1nEyf+RBupxCmziMqx1qr7zdzzKuF/o8u8hEglC4ht82SKaTQrt5rWcTD/f8A3U6YUwxLnnI03CbFMIXKLOERp50THQ5I0SIliktpIJBLHIgLTLCsLtbgSj/f7dXAiEUKyqNIQmeQRRxRSXMkcaI0HreKHGoSIGjUApJiNqsGoWnITwFZtLjP/f5d3ODggKChOLJoBEbqRICQdXIoRo99cUht5R2OoR9CtqFXdW/MdpcZ/wC/q7uMHbW/LCRTsv6ZQ07HhLIbiXlzteskSzA0kKDUApMZIPa7t83Z3HM/38XlxyxZ2+HdZJKQEhqISJFm4ceklJGpGaU9TWhUDhlTJ2Ir9y8gNbScTJ/363c4hTZwGvcCnaWVMbRGqZq0aUYJ93DikTKinU5IUrYWuNjsD9Ky7uIxLt5Uyo/353EqYo7SJUq+1fpexWuRxwpR2AGUsiYke83DCgTbSCSPvhiQ5OmdnUDVypVaTRqC0/78VqCERJVdzqNGNO0ZynLwyPe5kEcRUAfepHJbAlS5IJYZEyo+5MjmR28mSXL0taUyIt1G2n/343ClXM6Epjji6u08uCYUcuP7k0qYkJXJPLFbAKzSxlCyESIVbyQLgmTL926QOd2hOKr2HmosZeZH/vvvpeXHZRcpE3UvtaoTz/uTzJiCbeSdYCI0HKZ+7QOKRMiMCkpUFOaBK15TRNC0rHa7QVRwyCRDuukK1RKeRcjX/fcdBEedcJ0Ta9XaaRMcdogpj7LWlAyllcMCULUrF4FRlkTGj34uSJUSoJUypUkHuqJJIUtLJqhCgpEkaoVW8plChUWZITdIq9ukyj/327jJjHaod4apAoLiUxJjjVMtaghANEFS1NMSQXq0pAc8qYkxxKlVzInyChzCSNdtOmYfcoHX3eSTqjsf8Va+i9nRzI4reRFx/vtlt5F3ECOXGj6S9d9/i0fTFX3iSmv3LmdMIhEsiuRk+XbsCaBxSIkC4I1H6dDRMhR7rAKbMUt4/opv9+sn0s16K26AAnuuZCT9OtogjSZZURsiad+5QOCVMqZIkrYMqGhSVNaErHKUh5qDBBahUWJ+gWAoB3c6La3vt2vLlfvFw/eLh+8XD94uH7xcP3i4fvFw/eLh+8XD94uH7xcP3i4fvFw/eLh+8XD94uH7xcP3i4fvFw/eLh+8XD94uH7xcP3i4fvFw/eLh+8XD94uH7xcP3i4fvFw/eLh+8XD94uH7xcP3i4fvFw/eLh+8XD94uH7xcP3i4fvFw/eLh+8XD94uH7xcPbd5ubaSNaZEHghISL4/QJ0CiAM1F8pSmhCUBSkpFZVuOJKDPKmJPvFw0qEqoZ6qakAnqHegq5q28wkM8z8XKI27/fj4cUVbOeBkME0NbiZ0Fe3UWlABc09FKWIlZXzngjmC0rQmOVcQjWlafukAjbxRD8X/wCIf78fDP8AtHe4JqhIAH3VrShMky5QhK1Jgt44XmhwZPnXMbTLbqUI9U3BSwa/dg6bl+L/APEP9+Phn/aO5+q5+4dAq4yZj1VLbpPOuZHNWuCmaJUkTxCtvKVWSKmK7SPp4jFepLSQrveSIjmBqPF/+IfzENtPNH/MXNtPbH7sltPHB91FtOu3+9c281sr7sttPFD97wz/ALR1Ggs5Ern7KUEiW9SH9NKeXdqabJFa28RUJ5QKKPu0LUFwBOdu45IrhIixYy7EAvlx1d5KY0W9ulCUgJHi/wDxD7+07fLfzW0EVvDv+0Yff2DaOU7+0ivLfcLOWyn77BtHPc0McsO8bbJYS99m2xd9JHDHHDv20+7H7mwbRyXuFnFewX9pLZz99g2jmueGOeHd9uksJvu+Gf8AaPIkLTcWyVps5eYh8uOoAHY5sxZORcNulXMnaQuYe4QstVuUqWhJUi5XGUKSsfcUM9x7eL/8Q+9tO3SX81tBHbxdt/2jD7uwbRy+9/aRXkG4Wc1lO9g2jnkadriKOeLeNtksJXs22LvpIYkRRtQBG/bSbYvi9g2jkd9xs4r2C+tJbOd7BtHNY7XMMdxDu23SWE33PDP+0fsgYbj9xSkpC7lchQkBSbcrUPuKSFA2+nIkjUi7KWhaVjsNL7t4v/xD7u0bdJfzW0McEX3N/wBow7+FrKCT7u4WsN5b7JYW8+4DT7k8Uc0Sdug/TUMaIo+6gCnxBZw2l34XsoFJ+5udpDeW3h+wt57sfcuYI7iG/hRb3ffwz/tH7cb/ALLWlAVdlT5Ekihb6JSEjuqS5iVFLOt/x15XjzvGTdlm3nyjF0kJJLuek9vF/wDiH3Nn22S/lt4Y4IntO5R3o+5v+0YdrK6ltJ9svor6DsdBv+789xSLik2Xc0X0fff935Tqa7Du/P8Aub3uibJEi1yLsLuWyn2+8ivYOyiAnft2NyYJZIJdn3KO/i77/u+P3fDP+0ftbdRUS5BdKAtpwqt2HlePK8f8dcss6GmW5lVy5WDg5LXFw5EBVwGFlj7igCIap7eL/wDEO+12wu763ijgi7CRcNzs25Ivo/ubwhMe5vwf/jnbc/8Aab28N/7Wu8/792f+N99//wBq/bYbv3TcO0qEyxXsCra6fhK0ontv157pYfd8M/7R3PVTSAB3JoytlVwXNk47bJk5v9HuRCVpwmtnW3uX/GoWi7iLBB+6pNe3i/8AxDv4a/2s95P3kMi4ZNm3NF9H333/AGrPwf8A4523P/ab28N/7Wu8/wC/dn/jfff/APax38P3fvVh28WWlUWkCrm5gjTDD28Q3fvV/wDd8M/7Ry0pp90kALu4g/41M629s8JrlxoTGnvNbRyvl3cLVcpLHu7TJOHz1JAvYWhQUDwiOUXi/wDxDv4a/wBrPeT949uUpN/333/as/B/+Odtz/2m9vDf+1rvP+/dn/jfff8A/ax38O3fut/2uIkzweHNtVbS9t9vPc7D73hn/aPcqxhDWoJBvYXz1KCpJyz7u03CQ+XdzOG2ji+4hSVjudXL7qhrnoIqTqhjgHY6iEYw+L/8Q7+Gv9rPeT947D/Hu++/7Vn4P/xztuf+03t4b/2td5/37s/8b77/AP7WPubHd++WH3fEV371f/e8M/7Rr0FVuNA544FOWkCkT1EXuq2NPuLUlA99gfueLWbmFpvyxczSPkzyOO3iR2KUn7vi/wDxDv4a/wBrPeT947D/AB7vvv8AtWfg/wDxztuf+03t4b/2td5/37s/8b77/wD7WPueGrv3e/8Aub7ee52H3/DP+0b7gSkdpLeJb5M8bNxNG1X5aDczP3LJ+5Q9p0BaJLY0hVKphF4wi5YRIwmjSoK+54v/AMQ7+Gv9rPeT947D/Hu++/7Vn4P/AMc7bn/tN7eG/wDa13n/AH7s/wDG++//AO1j7uz3fvlj38R3nvV/9/wz/tH7lQDKasxyMouWUXjmVKHHbGkCAhH3JoVZKkiWU26wObeIfvxDluhIv3yiUzTrYzURw8X/AOId/DX+1nurw2kq/o0lw+HUxTd99/2rPwf/AI523P8A2m9vDf8Ata7z/v3Z/wCN99//ANrH3fCEMiYO0wKopUKil+/4Z/2jq1BzS1TToHvlUxXQjX78S+beLaoFkJkiQYYVZdsg451RALSQ5Y0SBdkQQL5DSu9aOc1q95nHfxf/AIh38Nf7Wf5nff8Aas/B/wDjnbc/9pvbw3/ta7z/AL92f+N99/8A9rH3LaFdxcW0SIIO/iy0wm+/4Z/2j9i0K91nXzmpd4yL9bRZEmKNEYZWkJkuFSjGFrhZixWLtSCieJf3L2Y1tYhDH38X/wCId/DX+1n+Z33/AGrPwf8A4523P/ab28N/7Wu8/wC/dn/jfff/APax9zwlafd3C3Td2a0qQv73hn/aP3uoRNHZTGvdc8KGbtSyIslIh7kAgoQEz8pchj5TSVu450QsIMfu+L/8Q7+Gv9rPf3u1fvdqxdWxPfff9qz8H/4523P/AGm9vDf+1rvP+/dn/jfff/8Aax3toVzz20KIIO0MqJU9vFVpyrn73hn/AGj/AHL6Crt+dK1Fb5YlcHKQsIQUgADvcXMcTxnuiiCgTDGkXKbeJNpEZl97iURIjyw8X/4h38Nf7We8n7x2H+Pd99/2rPwf/jnbc/8Aab28L2UqrvvP+/ey2ct3d99//wBrHfwlad97vPdLDwnd4XHbc7UXdkoFKvu+Gv8AaNNkY7eUSp73cRiXbJt5UrhiUJIKjGe1dvcol7xiWQwWaUd5ZExoijVdSEpQkSGVgUa1FylEKoq8vxf/AIh38Nf7We8n7x2H+Pd99/2rPwf/AI523P8A2mvY9qVeqjSlCe8/7/atvlv57SCK2h77/wD7V+1vEuee1hRbwdvEl37zfxLVHJYzpurXt4otOTefd8Nf7RrhKlRRFEykKLUKgyGNgpWmWNVrJFImRHaezStyCWM5qaUpSK9lqCEzz82REtzKEWoqVxpcl5Cl8y5ndvClVy/F/wDiHfwtDIvc+97BJb3L2mGSfcO/iKGSLc3YXctncbdeRXsD3P8A2m7HtSrxUaUoT9yx2+W/vbWCK2h73M0dvDuFwLq97eFbBST23AzJsjWr8IGfk9t2tBeWMsa4pPueGf8AaO7iFKbnO5gcd5CphaFNdqKrluYnBPypI1JWnspKVD3SBgSqaUgdjqJ4rQNaUKV7uEDG0Di1dwpcaLaIRRPxf/iHbadvkv57WCK2h77rt8V/AjbbpV/ttlFYwd721iu4NzsZbGd2F3LZz7deRXsEyEyxRpShPeoq7eGOBHe5njt4d23GS/m7bBtHOY+5v+0c97Lta72SJCY0d962xF9HLGuKTv4Z/wBo7uYhLFbqXIiXR42hfu4WEJQlUEVqWNOykgsiVL5kzTdxlSr6INV+pyXEy3awGZXKGPucLTDElrUEItEmWUqoX4v/AMQ7bZfS2M9ncxXUHfd9yRYRIvrlN5tV/Ffw99wvIrKC/vJb2ftY3UtnPtt7FfQd7+7hsoLrcbme82Xc0X0fe5njt4d33GS/m77DuxtiCCO+/wC74PZ9yksJYJY5o+++bqmzStSlq7+Gf9o7BqbtJilQoLQqGJTNnC+UMbqAwqRczJab9TTfRFm7jCveYGLBDTZQB3EkMTtrZUxSAkd5z7xOZxWNGHbxf/iHfbL6Wxns7mK6ge77lHYRTyyTyu0uJbWfa7+K/ge4XkVlBf3ct7P9yxupbOfbb2K+ge4XkVlBf3k17O4pFxSbLuaL6N3M8dvDu24yX833dh3Y2xBBD3/d8O+zbkuxlglRNG983VNmlalLV9zwz/tGUQBIjJiYO3Jt5+6gFJubZUJt5IZWqyhLNgh+4BqISLm7K3a2fYLB730/LSlRpDKsJVFMsRY8vxf/AIh9za76WxnvN6torKeWSeXvaXEtrPHvVqbC/u5b2f71ldS2k43q09xvrua8n7xSLik27erea03bcZL+b7+w7t7sd+3jEfc2bc12Eu7b1FDAtSlq+74a/wBo1zhyUxTIE0qykqNLGfmJ7FYD8rqzq7a7MbSQoNSpblUa7W3YkuJGIauRQjjXdwocl7Ip21t0lEqWr35TFnIsoTijxf8A4h/vx8M/7RpUCRBs5EFPvyWESqdxbdMV7Ilou4lONQkQYaMyXEbkXa3DQqW2V+kA0YOO5ijZv1l8y9kYs55HOmG3FlbU+94v/wAQ/wB+Phr/AGjfdvbargTDcA2k0Z5l7GxfrDXcwyNeHbBJeCO95c8t20QS/eMylCmo0ctzFG0yz3JjTijxf/iH+/Hw1/tHmQJIzLNbOK5ikYNWpCn7xgbmIKdnciTvgh4IdB3UQBc3naNUL9+SB7xdLZt7qUmKs0MYiQ/Fcal7Z/vx2CMx7S5oxLGI6TC3uoj7xdIfvySJFQ9ra8aSFD7pAU+TC+RC+VEwAO17cO0gEKOaFEVciEyR33h6UL/Qe5P9B7k/0HuT/Qe5P9B7k/0HuT/Qe5P9B7k/0HuT/Qe5P9B7k/0HuT/Qe5P9B7k/0HuT/Qe5P9B7k/0HuT/Qe5P9B7k/0HuTuYJLafvbQSXM/wCg9yf6D3J/oPcn+g9yf6D3J/oPcn+g9yf6D3J/oPcn+g9yf6D3J/oPcn+g9yf6D3J/oPcn+g9yf6D3J/oPcn+g9yf6D3J/oPcntvh8iQMvmhJu4BMixuOxAL5UT5EL5MTSAP5u8uqOBRSsBKmbyBA94uZTHlh/qbxH/tZ7+HP9rP8AqaXPD3i5hYvIFghKXOsqXZ3Vf5+ZBkT+j2NvDFjEGm3hT2v5uXHCv3e3hC6XV2Evb1yyLWvqUoITLdSqWJCm1u5+THY8wx/zniT/AGs9/Df+1r+cvuYI7SbnRmQrtobqVK0qStKF9V+qWNdrdhbnC8Z1C5t7CXmRtdvCpqsYmbAP9HuFBjT/AKikWI0SyGSWGVEZrdXTuo0QRok5EIKLaP6W8XfhKD7wDJbRKuJR/M8+F+8QP3iB+8QPxCQreO/h5QTvHvED94gfvED58P8AMnhcxKt5feBzLAJWfpbNZKLmNcnPhtY0Tx1ubZzSokMUhjljWJEf6mPC4Rc3CkWBcdtDG1EJE8hklhWsGGzKiAALlfMntrRS2kBI/mPE1/Kbn+d8M38iLr+YUApNzaKQ7ZfLnIChNZlJmWsmGQxypIUJbaGRrsC7dFzAof6quObcOOwDjjRGHInNEUEUf834otTFe/zvhi1VNffzUsEUjjTglyIQsSWAdvzbf/UH/9oACAEDEQE/Af8AvSB1OQ3tDZbLZbLZbLZbLZbLZbLZbLZbLZbLZbLZbLZYzMeWJsX9Xqfx/tOP8I+r1P4+zFg3+WcDA0dceMzNOXDs0hAzNBy4DAWNIxMjQcnT7ResemJjaRXnSHTmUbKYmPB1x/hH1ep/Hrgw7uTpOAmKZwMDRccN5phAQFBItydPUuHHjEBWmbBR4cWIQGnUYa+4ODD/AGjpmw7xbgw/2jplxCYSK40x/hH1ep/Hpgw7+TpizbuDpkgJii8xLilujafDOZkbcEzOPOmXIZy5enmZDnTNkMjTgymJrTqZSA4enlLdQ06jLt+0a4/wj6vU/j06X8Gnq4MhmOdJ/iL038Nl406X8Gh8vSeDpk/EdME90XJHdGnp8e0WWRoWyluN64/wj6vU/j06X8Ghek8HSf4i9N/DZeNOl/BofL0ng6ZPxHTp57Za9VP+z2Y/wj6vU/j06X8Gn6ef5PT4zAc6T/EXpv4bLxp0v4ND5ek8HTJ+I64juiDpOW6V9mP8I+r1P49Ol/B2z/EXpv4bLxp0v4ND5ek8HTJ+I6Y4b5Vr1MNsr7Mf4R9Xqfx6dL+DT9UfycOX3NJ/iL038Nl406YEQ0L0oNHTJ+I6dNChbI0Lcc94tyw3xrsx/hH1ep/Hp0v4ND5ek8HTJ+MvTTFbWXhwYL5OuLDvNnWZuRcUN8qfD1UuKemlUq06iG2V64/wj6vU/jYVfKKrjTqNm5jVcadVt/zoNOHNv4OhNMM4ma1zZt3A06fbt+3TNt2/c9NtrTJt2/drj/CPq9T+PTDm2cFy59oqOmHL7ZcmcRHCTfOgNOLOJD7nNm3l8OHPu4LmzbuBrCZgbD78dts8hmbLGW02GGeJjbkymZ1x/hH1ep/H+04/wj6vU/j/AGnH+EfVnjjPy/pYP6WD+lg/pYP6WD+lg/pYP6WD+lg/pYObDGAsaQFyAf0sH9LB/Swf0sH9LB/Swf0sH9LB/Swf0sGPTwH7Rb1R+zTH+IN/6BzXvN9/TXs5/YP/2gAIAQIRAT8B/wC9IHTYxW4tBoNBoNBoNBoNBoNBoNBoNBoNBoNBoNBoNBlAS4IZCjX1el/h/tOX8Z+r0v8AD7M3UbOA45iYsa5MggHDn3/4dJzEBZcXUCZo6SkIiy4upEjR1l1QEqQQeRpk6kRlQYyEhY1y/jP1el/h658+3gaQyGBsMMgmLDknsFs5mZsoNOPqAY2XJkMzemHPY+5y5TkOnT5r+0vUZ/7I0w5jA058/wDZjpiynGUGxemX8Z+r0v8AD0z5tnA0zYNvI0hMwNh4kHLDZKkMICIpzwEJcaYsYhHh6iAhLjTBjEY29Ri3C9OljEy5epjHbZ06bDu+465fxn6vS/w9Oq/Hp6PUYxA8aQ/CHqf4iPOnV/j0D1fkaY/wjTPDZJxz2St6jJuNBjHcaYR2itcv4z9Xpf4enVfj0D1fkaQ/CHqf4iPOnV/j0D1fkaY/wjTqIbo69Lj/ALXZl/Gfq9L/AA9Oq/HoOox/m9RkjM8aQ/CHqf4iPOnV/j0D1fkaY/wjXLHbIjSEdsa7Mv4z9Xpf4enVfj7YfhD1P8RHnTq/x6B6vyNMf4RplnsjevTT3Rrsy/jP1el/h6dV+PT9J/VzYvb0h+EPU/xEedOqIM+NA9WRuGmP8I06me6VMRuNOSGw04p7JX2Zfxn6vS/w9Oq/HpHw9X+IaY/wB6mB3bkeXPnr7Y65c+wUPOsOIhyz2Rt8vSQs29VC47tOmybo1rl/Gfq9L/DZ3t4Tfrp0/ubeGV3zp0u//MkXw5sJx8jxoBbkwSgL1wYNvMtOo3bvu0w7t32vU7r50x7t3265fxn6vS/w9M2DeLDhwGRuSHNi3hxYDI8oFcaEW5cBiftcODZz66ZsG3mLgwbeTrOAmKKcEt21x4xjFMoiQos8EoypxYhjGuX8Z+r0v8P9py/jP1el/B+05PxH6sMkoeH9VN/VTf1U39VN/VTf1U39VN/VTf1U39VNwZpZJUdJmokv6ub+qm/qpv6qb+qm/qpv6qb+qm/qpv6qbLqZyFftFPS/j0y/gP8AoLDWwV39TW/j9g//2gAIAQEABj8C/wDLfAWPt/5EoqP2P969fZPH/kStPZHB8HnT2dFj4PkrOh9g/wDIkclB0HtlldPa6UfJ+T1/dycWq2VxTrGXy5P3g/5EblR/vFfqYt08VayF6exF204p1DCh+9QxPFoscXr7Y4/8iJQe0eDNxLqs+TKj+9W9eJ1L/epfJm4fwPIfu1vMeyfa/uvnxfa/RXmP+RC9VeQfPl19HmfZHs/3Xkf3aHyYeHq/3g/BhXp/A+VJqnyfKVxHD5PE8GDHw8n6LHEf8iB6qPAMqk4ebxHB8pPE8XyY9B+Ysq9eHyftp/F0/L/A8VDRhQ4eRYWHip5I0kGv9p0Oi/T/AH/YjVbyX+8P+8vFLKiys8PMvFI0dPy/wvgGFDUHtQiofMQfo/zB1fx8i8kdMo/W8JNFj/f5y49V/wADzX1Sn9T+PmXV8xZ+j/KPV0AoH8GVHQB+yfxdFiiVenD5j7mB/dn2T6fDvmnSQfrfLk0WP1/7+uXHqsvNWsh/U/j2wH7se0fX4fcogVSn14fMv/GR+D5akghWuP8AcdFVVF6+aXUGo7UPB4K+w+vfmI0WP1vBeix+v/fxgj2y81+2f1d8EmnqfR0HDtUmgdBVMXr5qfLSkDH8v91/vP8AeXgvj5KdF+0HzIeHmh04KHEH73Oi9oP0WOI/37fyjwfOl1WfvU4qPBIfMm4eSPJ0T7ReKOJ4qf7yX/CeSXl59h5KHAh0l1H7Y7kfDv7xF9ryH2j/AH6ZH7H7xN9ncD4d6RcP2yz5qPEntXzeSn/i5fPt+P50ery+50afDy7IV5Hp7kF5o9gsKTwP+/IqVwDzX7A8nQcXTstXp09uvX4eX3K/g+fccfyIf+LrecZwX6vIpxV5+inkn7pS6K0Wn2u2Y8uPyeJ1BZhX7J4f78hCj2RxeI0AfMPnw+XaidVq9lhP3clPIJyV5eiXnIc1+pftJfmqP9YetFAvO3NR+y/RXmn7sR8yaH49zCfLVPyentDg6H2k/wC/Cg9pT19o8WmEeeqvl3lPmDQfd9VeQfMnNP5L0olIfmmP9Zf7oPJLrH/gv4+jy1B9Q/pBzE/tDi6pNR3qn2kmoYWnsmUfk/gdU/MNM6PYW6j/AH3VLVOv2EOqvmWqU8Vn9XYqU6q9pRyPeqjR/Rjlp/aLy1J9S/j6Osn+C8lP9z+t863+1Pq6p/B/F6/j2yT0q9Q+sV+IZx9GFDzZmi4fmS8saJ8mQWqI8UGjKPJeqfm8DxT/AL7sBxUxH5J1V/aaYhxkNPsdB5PLCqfNiaXh+VLKj5MZHyfQmnxU8ldavU9tH8fV1V9gfOuPsT6P20fi6wrKPhxD5mGKvMp4F+ivMfdq6H90rh8C1D1DR2SryWKF04HyL5lU0PEf77ubVNBwDpxPm1K8oxQdlNIPkHp+6TxPqXX7vqr0fNKMlequAdZllfw4B+wh6fSo9PMPpP2PKmKvUPylH4F0rir0On3CFcGn46so/KvVP+/YI/KjVTV8GAkUH3KVyV6B+UQ/EvKmSvUvqP2Pq+iR6eb4K/F1HHzDrwV+0H1jMeodUmrooAv6NZHwOofWgj4jUOoNWQ8TxToXQ9lzSeykM/SKiR5JQaP9/L/hF/v5f8Iv9/L/AIRf7+X/AAi/38v+EX+/l/wi/wB/L/hF/v5f8Iv9/L/hF/v5f8Iv9/L/AIRf7+X/AAi/38v+EX+/l/wi/wB/L/hF/v5f8Iv9/L/hF/v5f8Iv9/L/AIRf7+X/AAi/38v+EX+/l/wi/wB/L/hF/v5f8Iv9/L/hF/v5f8Iv9/L/AIRf7+X/AAi/38v+EX+/l/wi/wB/L/hF/v5f8Iv9/L/hF/v5f8Iv9/L/AIRf7+X/AAi/38v+EX+/l/wi/wB/L/hF/v5f8Iv9/L/hF/v5f8Iv9/L/AIRf7+X/AAi/38v+EX+/l/wi/wB/L/hFgTLVNF5hWpDStJqlQqD2oHiOKzQOjqTR9CCfnoH9Isn4DQOiUgPqNH0jAep4uvFX7R4uqvsD/wAWLqDypx+BfLkGEn8Pavn6v1717c4DoV7bxQaRp4n17IHrJr+B/wB+UNfiP19sVmsauBPk+cfYT7Havn39HXz9e3LiGcn8DqTzZz+AfBX4Op0PqHjcJ5iPJY4h1J5sX7Q4h5JNR96h4OT+32i/3b/Uf9+UPzV/D2j/ALboOH3qqNA6g8qL9o8S8LdOCPNZ4l6an1L9tP4ukUxQr9lT+lhyHqHUFUKv1POFQB9UcD9jpOnA+vkXp92VHr1DtF/u3+o/78ofmr+HtEj06j93V0gTn8fJ5zKBPqrgPseSiqZT+jixHqXSWYrV+yl/uy+XcpqPJbrGrnI+PF0kRir0VoXVClILoFpkHoXURKR8tQ6SjEuqSD3QsHqHEfB1Di/3b/Uf5lckcSlJj9oj+ZAnjKCoVFfvInXGRGv2T95VwmJRjRxV98JnjKCRUV+8iaSMhEnsn78PzV/C6lyLJ6jwHw71UaOkQyLqqJS/noHQrTGPRLqtSlF0QjJfokVLrIrko/W+XapoPNZf+Mh4TDmQ+vo84TzIX5H4F9C1J+HF60PbUOuCfw7UT7atA6qGSzxJYA4Bxf7t/qP8xQdMY9pTEMSQlAZu7VPTxWgeXx++Lq6T1/kR+yzFKPkfR8qUf2Vev3Bc3I+i/Kn9pmGRIKDpR+aoT7Kv6vuZK6YU+0r+piJCAEAUozcW4rD5j9n7oublP0v5U/s/6L5Uo/sn0ZilHyPr9wXV0no/Kg/mZhkSCgv9qI+yr70PzV/C8TwdUjFY4EOivbTx7VwT+D0FO2lA+talfDg/IfAPOY8uF4Qp5cPr6vie2durE+nk/wDSJf1F4XCf8p1Saj7oHklNe8X+7f6j9/TpiHtKaYok4pHc3dqnp4rQPL4/dTdXSevihB8u5ilHyPo+VKP7KvXsLm5T9F+VP7Tp2VFKkKSriH5qhV7Kv6u2SqpgTxV6/BpjjSEpTwHYg6hm4txWHzH7PbRi5uU/S/lT+z35cg/sq8wzDKNfI+vYXV0no/Ig/m7qilTkkuntRK9hX3Yfmr+Hur0Umv3aqNA8LdNf5T4c+X9QedwrI+nkPu0UKh0Qen9k6h5REoP4h0nQR8Q6pUD3+cfeL/dv9R+9+zEPaV/U0xRJxSn7qrq1T0/nQPL4jubpakrWk6I/Z+P3THMPkf2XIiSZEiYjoB+f/QdB9xUUqQpKuIfufvI5f6/7PzYjjTilPAfcIIqC6QrFF64fsv3tSguQHRP7H3SiagpqFfstZkkTJyjon9r4/L7qopU5JLkhjkEiUnj9yH5q/h7j4I71UoB0gRX4l5S1WfwDoo9P7KdA6JFB9zFS1PpmjJ9C+ET9iN/ukfi9YonVKURn+SX1FC3qmjRN+ydfl3i/3b/Ufu+aYh7Sv6mmKJGKE9ik9MyeKf6/uqurVPTxWgeXxHYTQmh/hfMj0P5k+n3DbWyvovzK/aYkjVipPAh4qomdPEevx+4bW1V9J+dY/L/outdfVi2uT9L+VX7X3OXHRU54D9n4lla1FSlcSWJYj8x6sSxH5j07kk0AZt7c0hHE/tf6DTLEopUng/JMyfaT9xVraq1/Osfwfdh+av4e65v2jp8nomr6TGl1UlEh/lF6RRP90j8X+7jfCJ9U0YPoHRK1P/GE/wCG+RdCqfyqdQnmI+HF/QXFf5K31RhX9kvWNY+6QeBfKV5cD6jtF/u3+o/cjtyrEK4tMUSQlKfLvzI1YqSrQuh6Zk+0n+v7s6UJxSFcO039jvc/7qV/B3g/yv8Agp+4v+0e0P8AbH8P3Lj5j+Dump6F9Ku6o1iqVChckCvynsq8WPa6Uf191FJ+kX0p+9D81fw9uUnz4n0DoOA+7pGsvpiCf7Rf09xT+Sh1KeWj48XyLUUT+ZT/AHn6nRQqH9H9JH6P9hf63/pyf1uiqoPxdQfvxf7t/qP3If8AK/gP3FfNpkjVipPAuiumZPtJ/r+5cf2u03+6/wCvvc/7qV/B3g/yv+Cn7i/7R7Q/2x/D9y4+f9X3E5H6SPpV3ReJHDpX/U0QI4rNGiJAolIoO5CT9HF0p/r+9D81fw/f1NHRNVn4P/SU/rf7a/xLrJ9HH6PFIoPuVIofUPoVml0uIHWKdUReksMv2uskKh8jV/m/B1FftHZKvUOL/dv9R+5D/lfwH7ivn2gKSQeYPuXH9rtN/uv+vvc/7qV/B3g/yv8Agp+4v+0e0P8AbH8P3Lj5/wBX3AFHol6Vf1d1xL9lYoXNNMOoHBPy9e6ik/SL6Uffh+av4WVenapB+wP834OscKj8zR6ywxfa/pZ1Sl0t7d9asEutKn1P3KpII+5q+sR/g6w29B+1i63E3639Hifj2o0JPkHF/u3+o/ch/wAr+A/cV8+0H+7E/wAP3Lj+12m/3X/X3uf91K/g7wf5X/BT9xf9o9of7Y/h+5cfP+r7qVk9aelfz+8UpP0cXSP6/vw/NX8LKR50H63Tt9LiPjwf8Xm/W6zW9R+1i+gR/g9PuVUaB8T+D+ilUl6zIV831Rj7C/ooPtL+lmoPRL0R9p7agfdi/wB2/wBR+5D/AJX8B+4r59oP92J/h+5cf2u03+6/6+9z/upX8HeD/K/4KfuL/tHtD/bH8P3Lj5/1fd5aj0TdP2+X3VKH7xXSj+Yh+av4fu6AdtUfaH9FNUein9LB9ofTGPtek0afk/pZVKf5vx7dScg84jmn9YdBc4n+UX++Q9Zk/wCC+qY/YA+J+0vTX7kX+7f6j9yH/K/gP3FfPtB/uxP8P3Lj+12m/wB1/wBfe5/3Ur+DvB/lf8FP3F/2j2h/tj+H7lx8/wCr7yJfz+yv5/cKUn6OLpH9f8xD81fw/c10fE/YX0zH7Q9Jk/4L/fJdDc5H0SXnKcE/rL6U4j7vMhOK/wCF43MWC/UPK2nqH1R5fY+qL9bTVKsBxFeL6YFUDrSOMfyi/wA6/ielL1cX+7f6j9yH/K/gP3Cfezr/ACH/AI2f8Bok96JxUD7H3Lj+12m/3X/X3uf91K/g7wf5X/BT9xf9o9of7Y/h+5cfP+r70sxPQs0SP6+6kpViSKA+jVGsUUk0P8xD81fwvR/nR8R1JdSI1j4F6wKoWqiVYeQ9H0w/rfTHj9jyuZ6B420ea/UvmTHJf8Hfixn1x+S2CDUHtRaausUlH+09YkPq5Y+T5Sf3afa+P3Iv92/1H7kP+V/Af5q4/tdpv91/197n/dSv4O8H+V/wU/cX/aPaH+2P4fuXHz/q+6iFHtLNGiFHsoFB9xN2kaL0V8/5iH5q/h+5ylfu1ey+nll6RJf7LrLJX5OiE07FRNAGcOiPzW/3NwyUUFeIPAvKI8tf7KnjPGR8Q9Fj7nIj9o8Xj5+f3Iv92/1H7kP+V/Af5q4/tdpv91/197n/AHUr+DvB/lf8FP3F/wBo9of7Y/h+5cfP+r7qrxY/ko/r+7JAfzDT5tSFCikmh+/D81fw/cx8/J8mT2hw+5rIHjBGT8SyqU8xf7KeDBkoacB5DvQ6vX2fQ8HjbxuhuMVegel4PtJYrcEk+QL5q/aP3Yv92/1H7kP+V/Afuf4zD/hh/wCMw/4YdBcRE/2x9y4/tdpv91/197n/AHUr+DvB/lf8FP3F/wBo9of7Y/h+5cfP+r7iIUe0s0aIUeygU75RqyFSO4ukjpl9r+19+H5q/h+7zUe0OLNLggj1L1vB9hLoLjJXoXjPGXp7PoODoBT7lOKvR5L6UPFPQn1/MXQIDzMaa+T58v2fc9T5BjL2qauL/dv9R+5D/lfwH7ivn2g/3Yn+H7lx/a7Tf7r/AK+9z/upX8HdN5wiRWn8rT7i/wC0eySjRCFAqV9y4+f9X3F3qx/JR/X3WsHrV0o+bVarOkmqfn3kg8z7PzZSRQjj96H5q/hZwNFeT9D5j7nPi+15iNNfN0KA8VdY8j+YPJHUh04K9O9EZH7XlJ1K75KfNk9jyD1IAf0Q6f2j2ogZF5yK5k3p6NOXGmri/wB2/wBR+5D/AJX8B+4r59oP92J/h+5cf2u0v9j+vvc/7qV/B25sukA/3phCE4pHAD7i/wC0XinpjHtL9GmGFNEj7lx8/wCruiFHtLNGiFHsoFO5Qk9EXSPn5tMiDRSTUOOdP5h394SOiX+H70PzV/Czj7XEPONXLm8x6uixRXakvs/tB1BCg+bH7HmGFJ75I6VOi8g+LokUHfJRoHVQ6RwS6RBKEvKZZkPx4PVaR9r45fJ/Rp5afV6apRxPqe0X+7f6j9xMwT0Irkfs+4uOVNFV7RCNNcVBR+A+5ItaemQ1SfXsJoj8x6h82I/2k+na5/3Ur+B82XSAf70whAxSOA+6tKemMK6lejTDCnFI+4qWVWKQ5JwnEKPDub2VNKj6P+73lNunKXHpevHtKkpPJrVJ+PdcP5uKPm1RyJKVJ4g/dh+av4e2uiV8D6F9aeYj1fHH5vRaT9ryhWYz8ODpKErS6pHQeIYUk1HeihUP2P1vqIR8EvTv10T8nSASKf00oR8OL/eLV8g/oLYf2lvErKpV6fJhPn59ov8Adv8AUe9B0xj2lNMMScUj7mKtFj2Vej9zwovz9Ker5cY1/Mr1+4YZhUfwPlyapPsq9ewliPzHqHzYj/aT6Nca/ZUKFhCQAkcAPuUrr2wiTQfcVLKrFIdfZiHsJ7i6uU/R/lR+1/ofdNzbD6X8yf2nnJVMCTr8fgxGhISkcAPuZpomdPA+vwao5ElKxxH3Ifmr+HsU/g8cymVGnzf09sP7SH+8kT8w/oZQv4cHScSJ+T6KK+ffV9JCx6Kf+Ln/AAg6lWKfL4vQKL6UAfN6rP2Op9nzLxSSgfyXqCfmX0xhlSuAZuV/5Lp59ov92/1HvmjVJ9pPqxNCapP6vueSpleyl+980831eadFj20en3DLKfkPVmWU/IencSxH5j1D5kZ1/Mn0+4ZZT8h6sXOZSpPsAfleKqJnT7Q9fj9xUsqsUh1PTEPYT9wW9wawngf2f9B1HA/cNraq6uC1jy+DoaqhV7Sf62mWJQUhXA/c5UWs5/3llSzVR4n7kPzV/D2p5sXCP8phSeBesaXoCPkXiolY/lOo9nyeiz9r6kA/J6hQYIVkn+B/vA9VqfmfmXjChOXr6PNdcf4XRIoPuclPsJ9ovlQDI/qDqo1UeJ7Rf7t/qP3M0apPtJ9WJoVVSf1dvJUyvZS1SyqKlq8+wmhVRQeaNFj2kenYyyn5D1ZllPyHp90SwnXzHq+ZHx/Mn07GWU/2R6syyn5D07CSNRSpPAvFVEzp4j1+PZUsqsUh19mIewn7wt7g1hPA/s/6DqNR2Va2qurgtY8vgO9D1Qn2k/1hpkiUFIVwPblRazn/AHllSzVR4n7sPzV/C6k0dQaKHAsxXAxV+ovkq9hXsn7lCKh5orj/AAPGZCcvX1elR9r0WX+9/U6k0DwhrT+F5S/h26de+CT1H9TpUgedHjb2/wBrrczYJ9GnH2aaOL/dv9R+7mjVJ9tHq0zQqC1r9lPp82qWVRUtXH7gmhVRQ/W/eVGihoY/OrMsp+Q9PviaE6+nq/eSerhy/OrMsx+Q8h9xMkailSeBZXcKEckY6h6/J1PTEPZT/MC3uDWH8qv2f9Bm2tFa/nWPL5fdoeqFXtJ/rDAtVhcixUH9llSjVR1J+9F81fws8z2XW2mzT6PG4t/tDxqSnyq8Fe0P19+rTtlF/gvCWtPX0dQajtqQlH6n0nNXq+iPAeqn9KsyfwMqPAP2sj8HRAxecvUtXq/o4oH+VPydZZP62EjycX+7f6j/AL8ofmr+FlCuBdYpP6n+VXzf0kUDzi6Vp9HRYyfHE/FhQ4F/RLMf8D648x6pfUcFetHoQpHw4P8Adn8X15H5Pog/W+mMPRJH2Osq/wCt0HXJ8fJ82Tj5D70X+7f6j/vyh+av4fvc2Pj5h0PRJ8PN1iX+Gj1ST9j6ow+uD9b6Mh8+3sj8H7Cfw74o1X/A+dcKHqKukKCv4+TrIqvwHBj4v2qn0DIj+jT5lhNa0Di/3b/Uf9+UPzV/CygmjAk+kT5F6KofQs/B1jVQ+nk6TIKPj5PnW6gfWjxXov8Ah7+wn8H7I/B8O9SaB4xf4Tq8pc1l0RD+t9EVPsdZFfiXy4zl8WEDsFJ/IsE/78oEq4kV/E9ikvlyHH4v6NX4F9cVfsdFxOsWaC6vGb/CdQaj72oq/wB0j8H+6R+D/do/B6DtyouPnR5K9o8XSPr/AIHq1IWKpUKEMqtFBSP2VcQ/3I/ww/3I/wAMP9yP8MP9yP8ADD/cj/DD/cj/AAw/3I/ww/3I/wAMP9yP8MP9yP8ADD/cj/DD/cj/AAw/3I/ww/3I/wAMP9yP8MP9yP8ADD/cj/DD/cj/AAw/3I/ww/3I/wAMP9yP8MNUMootPH7iYYhVauD/AHI/ww/3I/ww/wByP8MP9yP8MP8Acj/DD/cj/DD/AHI/ww/3I/ww/wByP8MP9yP8MP8Acj/DD/cj/DD/AHI/ww/3I/ww/wByP8MP9yP8MP8Acj/DD/cj/DD/AHI/ww/3I/ww/wByP8MMSXik0H5E/wBfbR0k6f4HVPtDh8XypOPl21D/AHaPwf7pH4P90j8HoKfzeER18y6pSCryq8rq4B/kguiAT8g/okUYz0P+p5/8n/go+5B/lf8ABT/qf6OmTpKirosEfMOttcAfySXVSQFedHhKdfI/z+IWU/J/vf1PWT9T1Ki9Ix9vbEe0pjKpWrgl1lPUfL0eMeqvX0ZUpZKQxGn2j+oPJRoAyUqKU+TQo6rI0+JYSD1kPORRNeH87P8A5P8AwUfcg/yv+Cn+dzjURTiyknrAa1J0UBr8CwVEqT5vJJ0ZjV7Q/WGClZALxk0V6+rrGeoeXqzTRadSl4n2k9tYw9CoPSQ/g/3v6njmVfP/AFGVK4B5l8xVVyfwP9lDCBqtXm0xIFZVeXo6yKqtXH1L/ZjDREngA8/JAohL5kns+f8ANfvY/wDCf76P/Cf76P8Awn++j/wnOUkEdOo/sj7kBUQB1cf7Jf76P/Cf76P/AAn++j/wn++j/wAL+azR7Pk+Z5LFFpa4lcCH+1GXWNVFp1Hwao1ikqfJlB0Wnzf7SHzEVjk/heYYUngf9UexijyqX1r/AAeian4sk8Ayt/Riqz5vOc1+DoNA1K+OjrJ0pdAKD+ZNpGopQj2qeZ/nk2kiiqNfs18j/M0IqHlH1J/gaVF0OoecBp8H9Imix5sLdRwL1TQ/B9C/xfsZI86H/VeEQ6PMv6RVfk6ISB2KakVfSj+b94HsS/w/zwnPsRfw/wA31J19WE1P29qLAL+jXT5vCUdHkf8AUH//xAAzEAEAAwACAgICAgMBAQAAAgsBEQAhMUFRYXGBkaGxwfDREOHxIDBAUGBwgJCgsMDQ4P/aAAgBAQABPyH/APl8crHTw/8A7FcrRw8t9atyuIePDUIJo/8A7EIBVgK3/qfu550BcpxPwf8APBSc7bpT/wDYdqPE26woCw4n7P8Anl/5wcGMDrf8/d1D9Xqrljvf/wCwrYnXDK2bqvikQILDrP8AP1/yfRP3Fd7HCvn/ANrCniO8/ssZxwP7/wD2EzA8Tx7sQHh9t/tqmjzvv/y72Ln/ANm9EfD/AI4qAb4+IrJ9SohhvDp/1fH3/wDYI8uaLM3l2/6orIBE7/qjeXz5f+f8xx/eaU9Lsf8AqyS48u6DIJfn+KxbLX/Vhr/gJP8A9gIRUOiw1v8AH+cUYBB/jxds9boo0O3/AGf1T3rzP+Ob/wDG0z7Pj+nxdxOnqzNof/re3Hk8NThI2VHhunn58n+7x7OfL4//AF9nlODx82dq7708vvxR4Yfu9OfB5a7EJ/8Ajcxv5UT/AD/0+L/8uuAG5o4ddVYZORslSvopAOGh4BocjUPc0OPcsv8A3b/9eSeT+6AdiB35NIeVvYtmVwWSIGeBRJg4Chx9q9EDm/5//Ngm0J/gFQgjI/8AAIJI2ZaL8j/gz4ThqGH1qnfYv/10neFZ1/7fzTqP3XL/AMlPa/NoAAwP+IErAc3wSI/wC/8Aw9KnOA89q/zuh8wyH5KJMnCf8cHKsiJ/U/3/AN/XV/jbB9jP/wBcOyOL1fJ/+R4siH6T/dMnA4P+KTBytK5xsPwFCJjXbfK/zq+pfhlpfz83JIc18+7Pe23HyWUE+4j/AIQhp/1XA2Q7sIf8BP8A+toSbxKLyQD1/wBeKQg/5GKfMC2L9ov5ebnnxj49/Bfkub+f+JIfceGpR0ZXiyTfESXE/AGffioSRk/59Fv7f+KMe6Nxhk0Hi/gf/wBaKuXp5ap0nT/nVGVjr/j9rX8n/FAl4uIx24PrzSuXu5/4Jd2Vgnwdrf8ADaq1j/i80GGXv5/68U1OHf8AllWcRX7pX3p/wiDXDWmPugy9fXxV6n/9ZD5RyVEUcf8ASwDNYeqYA/54qifrX+aoMJq5nDo/4mn/AFk3f5UV8M6PN/8AsP8AqzNcwLpEcT/Maef5Ox//AAhJwvD4erLdYD/NmTLNHxfmlIwq9emv7/8A1kpO2v5aaxdnLDr8U8WI6yKAbKcvl/8AwtF+DtuAhxeL/dlg5mn/AN68N/xP2WNClNJ2L/Np2Z8nJ/8Ahw1Mb08NK8X/AHcn/nih4XPt6u/9D7P/ANYb/GB6O6OLOfX1XMP8n98U/wCcwus6P/wxx34eWyRHof5ljQ+gvD+Xx/pP+CHeR/VUoieVw/6bxEg5XJR7wRwJ4aZU8Lj5KTP5j/oUc3vi8HD14/5Lkal9rm4t38t+QAfzUASRP/1cxEgCVsGHoP4LraH8FKBdD10/50JcHm9l99n/AGJ8e65/S+vwVecESSvlpeSuBy0C2hk6H+62eA/Lf8n/AJqTQd6/hZfQ9rksC8DhOqKZ+L/m5vzvz5uFG8f8lmzllDeJYTYrcT1vssD7tLzQMSJDUD/aHV/8Wfc+7P8Aq/j/APV0b7n4sP8AuddfVZHH+wUjKAQUF7oOlilBpcHtvEMJs2IYTPm4UD/KCzkf8WDr/irPzujyuVy2X2/Y0pgG9fyv/wA/ZnyTWGY/k/OdXO4f/hNMQ+b7ia/V8URuyn6qGDqT9/8AJHC4zyWUL2+JsFjwU/f7/wD1a2TF5Jfr92Eb2Ly3/wBsL/iCfuD90TaIT9Xic2f8LKDg3/8ADrdOK0JeMPjO7N/BH8F/+SXlr5VpVocrE+SxsujN/wCZZZXg5f8A4A6FmjSUeVCa5pPD2f8A60AmYrQnc03vooSuINLBDgf/AIN/eDlv+Z/03nYc7tB7Hgct5Yr05/6/4DhyOTkqUxLjBuL+X/s/1RYAsEb7KcDP8zumWwhsIeS+xCLKObbQ1kpgiZ91K4nPv1V4mOkHt7//AFhFFFFFFFFFFFFFFFFFFFFFFFFFFFFFFFFFFFFFFFFFFFFFFEsEuz5A80iwAOxvNsWBcFhXFLCHwIsKQ8tfzY/+yvBz/M7sET6LOgpyer/0P93nluVlWXGvBy3/AOk3/GbMXhmdPHw/5hkeLGnYx88NP+dQT5/5sZyHj3ZlwSXK8UIIKA3DP/1kGFzEXwOKBQ8NPLAvMXi5GmQe/f8AzqD2/wCLXiM/luGT5tf+csTo4+V/yuzl/wDmbCDw81nEGlG+FfuChht2f/iZlKxKJAiGf8/Wf/rI/wAR5/8AAJEqD80GcAgD/wDEyP7Kh8o/WWZF6UCR5eb/AJAS9pdbwJZjyhr56rexaT83SsHiB2wAUI9n/wCHX9z+7/n6z/8AWR/iPP8A5j+7/V/+FCKAPNZMx3xNT8A34u1hoPrD4OL5+U+MG03/AOpQLxj5/wDSmAdIuHq5c8J+y+mc2b+xFv5syF9n8WtTfN1RoJ5H/pm+OwgSRJL+s/8AyQLzSDj/APIObgdxOT/8XIR14f8A8S2iAjD/APECsBK06ti8P/xclnnh/wDx/wCI86DtAEtjz5t/1BCPbUJvm6s+oMz/AF/7Qh+Cy+2aZi5XoBwDtB/lQv7ho/q/4f8A7dBbjt/re1brxYOe0tL0A9ofux/tGfr/AJxg/JQoCfJ/wb5Ske2jRRLgIC/rP/yDUC/j9Hui7GI8+2/5rMh69df/AIucObG8zT9n366+bJmOT5fkq/ByHB//AAIo8a/7Pr+aXl5IsxJH/wBHv/8ABtx3yen+ZYMnEciuro58/wDn/wDACsAq8RQjytf9/wDGV7o5Hl+Swd3keD5P/wAE3M7+4fX8/HJy1hPFgjK//N9//i/xHnVcsua2F4grtgkf8rSM+UXID4FbJw9zt6AeDD9WE/CWtg5bQ833Ofav8MoERJK+mXL5WYp4/wCtphR4BzYTU7P/AMM1b/ifv/v6z/8AGRSSfj9Hul3HAH/HizvFi/B69df/AIOeL/nQGX366+aVufbkuX5K7wchwfP/ABGgOp+/x/NAAEBxH/AIFCWYkp8Pt7/5txP9R/mUurQHX/AbEIR7qs0c+f8Az/wFQFXgO6AGVrfu+/4p/wAXbuQ5fNy5tHg+T/i+0f2D6/n45xhx/wAGoOEf5s1Sjh/T7/8Aw/4jz/7BD/E/1/8Ahdl8y1wryRx/qvWXf/c054EaCCAA/wDwRUeBKQ/iv/4Ve8ATJ/nup/otYsn1/wBEr1/E/wDf1n/4iGa//wA3uh3NAH/Wvi/OeL/4PXX/AHHJ3keX9U//AAZnOe1eS/agBvNEAABgH/4DYtCV6cZ5nX8P8fFPcaAOP/wEmBCPdHPhOe/+bn9j+Q+6f9bnI/7KgrsP+6gGHB/14oZh6f3Y2KA/w+//AMH+I8/+pI/zn/sVT7a2o+uUnjxOD+/xSTndX/0sWodB/wDghRvtmaX8eIf4sjsvt/v/ANr/AIr+6Hqnz/8Aav2kQ/u/uHI/mLzU/kv0y+bH/v6z/wDCdhf/AM3ulyJAFbE992PD1/8AgeL/AJnM+D1/yDycjwfDQiQ47r/zv/qEVgKieBh/oev5rLlT0KYjD1+j/rR9YfoD/EUCFEp1s0geDF/T5/mn/G48P0D/AAyq+KUa301n4PhvqoPy/D/0kwJVcKrFWPLpyTSixhgP/Y9f9eLzm4s49P8Af/4f8R5/9+mXxcUPJ9yxj86v5i+ySI0x+lH/ANp/mv7vpfv/ANsro/N+r4y2ZV5hiPxf/t7/AKfD7oH1BcH/AHf1itLie+/2137EH+GqfP4//ADUhCVopL/zH6z/APAOilSOYBf6ohWgH/Hiz/uIdbc9i+T09fx/+CKVzAHWf8/zff8A3/L+f/4yP8p5/wCf5vwp/wAb/mvD/shi+P8AT9MfU0/5OMMvI3nZjHydP4/4u+S+Dt/X1/3CD5ee36P3H/4v8R5/8Siw/wCY80GcBAf/AIA8vorn6EP7v5Sv9NjI1dWtEzORXL/ov+3wsaNj0VzLy+S8/wDp/wDV+H8Nu/ATSYCPZ/8AhIk8mj4p1f1n/wCA/W//AAL9z/Nes6Q6uXhfJ6ev/wAH+P6//DD/AC/n/wDiIb/hPP8Az/F+H/W/qf4f/g5efZeH7P7/AON5ovxu39fdKX9Udv4seZy+P+PF38+CXt+f4/8Axf4jzvClx1dV7/8AwzIB5a78DN+BaV/toLJOg8tODD/8PDPBrq9z/MbTP048XiU+I2VCnYCp7FRsJ8FQJeCz1yDf1n/4D9b/APAv3P8AP/IlKZHyxT/v+P6//DD/AC/n/wDiIb/hPP8Az/F+H/W/qf4f/gxc+KHt/nS0/wCFHKabQbnyOft/3IT5CfP0f1/+P/EedY/mD+yoQRxs7A+Sh8qhQr2AvEp423eTnRMXvd57/V/Ro/z+bnP/AMDDPng//AAQBq7H4jNT5HL0AB0gpMn1GX8/8Mq7Ir8gEb+s/wDwH63/AOBfuf5/5/jvCn/f8f1/+GH+X8//AMRDf8J5/wCf4vw/639T/D/8OpX45394/wD4Xi6kSeNe35/j/wDH/gPO8grD8KYB0f8ANIe4y/NgGQegN+YcLSEt8RGgEAD/APBCf5G//T1mlf8AzxF+loe0uMpyFHly9i+LvFy/I/8AEJU+Up/+D9Z/+A/W/wDwL9z/AD/z/HeFP+/4/r/8MP8AL+f/AOIhv+E8/wDP8X4f9b+p/h/+GGibPXZ/X3/+GRsflHv6P/yP8B52P/wMSJfB/wA2yH4L2L5O8pR9N45Pam/egLS6Sv8A55/70UhOu/qh+v6QnoCFj8x8f+Xrr4rvP4VDsfJeSwO+v/wfrP8A8B+t/wBTf3P8/wDP8d4U4/7/AI/r/wDDD/L+f/4iG/4Tz/z/ABfh/wBb+p/h/wDhFGRhOGkskCD1/wAn7/63QD4Fe35z6/8AyP8AEef/AOCJnDy8UOhToP4X/V76+a8bPj/y4o8gqfsv+CxSU67+/wD8Mh58dWud4qxY+Cf8KY4/n/xeI5UMTieS8yBfAfqiAYJNGPMXEFfhPrulAIn0X9Z/+A/W/wCp4sHGS/4m/wCf/wB0p4p7Qz5p/wB/x/X/AOGH+X8//wARDf8ACef+f4vw/wCt/U/w/wDxMCDeREz/AE+v+r8fD2jmzznL2f8A5H+I86VRQ/E2Rsvyn11fej4n8XmxL5H9XWp5Xl/q9yf8er4/8/8Aqw4+CaHb4qoHhx1/36dOVPhc/dPvgE/5Dx/Isu68OfsuEY9o1Wfaf/aFDF8BWoSaSqAEHB/39Z/+A/W//KX+P6//AAw/y/n/APiIb/hPP/P8X4f9b+p/h/8AhIeQj17powH/AKN/pW/x+T+P/wAj/Eef/QIj3WRHmXixb90Sjz5Yz/dwHHpD+LLsv8cthw/k/wDDx4FaUpPm5+r/APHp8s4b89UkTT1L6eKGW077eHH/APB3jhDr1RHJ6/f/AOD9Z/8AgP1v/wApf4/r/wDDD/L+f/4iG/4Tz/z/ABfh/wBb+p/h/wDh/wAcfL+vz/8AhjB7Hjo/muyQB6f/AMf+I8//AMCHgdfu9Z4y/j/re8vg2p1v4Krgz6ny05lHBPx/7/7EADyNb5jzp+1imTPJ38UIefgsfio/hCrzkQ481Pp09f8A4f1n/wCA/W/6niwO0P8AMv7o58YA0/8Awf4/r/8ADD/L+f8A+Ihv+E8/8/xfhTj/AI39T/D/APADshHr3SfgA/41MAWp5GH/AI8XNvL0H+z+H/8AH/iPP/8AC344792D4RJxQZ/mHVJA+sEn7bJyh2zn1SeF8YfpSQgdH/4NE+pdI8OZ9Hd5tbn/AAxcvfckzfQywiWrdRZHn/kkx/yXJLnnb8DPtf1n/wCA/W/6ni/uf5/5/jvCn/f8f1/+GH+X8/8ArfMpPZRn5/63/Cef+HdJJwQzHy0/439T/D/8Gv8AgOv6/P8A3LL887+jb/TJXn8n8f8AGsiIJT0eKoJUB6f/AMX+Q86QOwqc8OeJ/wCTsV4o/EnHj/y8zLlJhuDnqCIvJp+j/ZVMj35n2dUsD7v9f9n9+gWKT+I/6zaA/d2+Ck4B+WK9CHYs+vNMwfnzQ/0UPlvoMxxXwu+1/Wf/AID9b/8AAv3P8/8AP8d4U4/7/iev/wAJv8v5/wDApL+fPwevdFwGAYH/AOD/ACnm7Q5MZ/6o4f3/AG+//wAH63+H/TRkIoHxAf7/AOPF1En9nZ/X1YXht7Lw1zp4ez8/8bHwtX13/PP5/wDxf5DzpG4EfIM39BmUj/Rn4aMT9PivwL0LPvxZ4D40u1VZ4PVZLH9f8bNf0zZ/fZjfZ/NJlDoqDl/4/iFc2eYpYowQsR+Iy4sD5BeCa9KYZPvzWc3nP/L9Z/8AgFhx+KKiP3/14qViT6TpP+PPmnoH/rxVkHicR/zTlw3HiaO0GJy/H/P8v50Ga/nz8Hr3R8ggDA//AAPF0MOczXHzTQft+33/APgOMOV/1WGSQmYDP+8GIB5jv/qEYKHu6NeU8/8AO4pH8g/X/QRHeejx/r7rBGgHH/4f8R51pffGbcXxRvJNelDgH1KzLDQtaMl4T6ru07GytD/gjw1mVum/51dsz5H83i2+XX8/8BAgnhuyX9ofxZZj3dxl4BL9Xt/TP5s+MPm/z6oPKiMB6L9iTy/8/Wf9NJ/R/R7oAh4efb/1uAOv6v8AVTSiyunt8U5OWua/86//AASWXh7XkqcOQZh/zr/kGd4fjxNPQExOXRKlZ+RIaLtYBAH/AOBAIS4PNeKBJOvy9v8A+AMY9f6LNEp5f2+/+yPNW/Z/xPxyAIDD/rxQB4NH9z3/ADYywh8L8KfoYBgf9eLCED1+6oQGG6//AAf4jz/4ieeV4a3O0ToPZZPZ9Vg59k/i7jJyiVlkPS7Zf2l/DQCAA9f84Nvkxun8YH8/8mXQzhDPt6v8VMV/75N4YHjF34F+SvxhIFJZT9t48+4r5QFLX0KQclwf8/Wf9B/Xp8P+/d8Wkdrw+/8ArYrif+76sDomVcJ4Tx6vhLkdf9n/AOD0UD5fgvqrHwfB/wBj7piceJoSMMR1/wCd/wDXi+smfL8FZKXRg8f783NYen0f/gDMPX+i6QTy/t9//gVqqH7/AOPqklEJE7/68X5Xy/B78t3I3xenugxSQ7/68Vm4f5D5ffqqVbKMy/8A4P8AEedeKadHJS/9CvtITX5Y+YskV/ZfrG6u/FuvHq82jxql/fIv8VM2fGckM/8AEdhfBF5AuS7frmpuiUq80fIHAf8A4HJY0oEHPKRHu7/ziiIIyX9Z/wDgDfv3h/37v7NEXh93q9RT/wB31/Ndqkq/5+kxE8PkvuBJ1/6/56KB8vwX11j4Pg//AAw1R8B8JRjwcd1/53/zfhwPL8X1Fj4Pj/jPCkOrnMPX6P8AhZh6v8FmqU8v7ff/AOKcuIf/AD/pSTCEiVsby4vyPPv/ALrtfwf4fdCqkh3/AMYuH+Q+X36qlWyjy/8A4f8AAedhSHlsU6cv84q0ViGipZ0//APDJyWaqnic1j31jFcE+Ous/km+5/j5qkwcrU8iye6gg5evH5vB4Kn+04/P/fvleFBKyyO1lYjy2bEJ4DQDcgS9X9Z/+E8OOnB/34owH9q/hH7rt0lP/wCD9ciDw+Sruzh9J69311j4Pg//ABweRz0Ph812SdS+v493ZLwPD4P/AMDEikOrIJh/M/0u0E8/Ht9//kOno6f5/wBKcnshf4Lz7/8Aw7Td8H+H3YPH1oPL79VS7ZDKv/4v8p50sWjiUsBvsWVCOsI+KyAhpvvz9P8AjU4+14/Nx8ihI4e/9KluGS5+VEmThP8Ak6JeWB/umad4NvC/3/4vMS8OfhYYAOP6pH4V5aP5boE0d4/9v9aIpwPxv/adn/tSm0GCb+s//WR/gPOy8ei43vtV+qcGH2L/AFglucTR1m4SJ9NPuw0IXmJeDfwvC/8Ai5TNOlVKnXlK/wBN/wDirvkPEL0++Xf5qUF+Va8C/Uf5rGH5ZWHc/wBPpWQOuT+X/h/+D9Z/+sj/ACHnX/r/AMZI50O/dh/H9fpd4flK9S/c/wBlwm/DF73fJuzskPCu15T0F/oUA4I/4JbDOhcHz7ps/wCWCp5X4B/uix2oLzX2GwID8l05AJe7+o//AFkf5jzqoJdnVbhr2bQo+iKcfahpPtTV/quz/hqq0wND490UY/4EHkmr0AcH8V6H4/6jMHK2cfv/ANLLOmZmaBg8XqgUY6Mf1eLE8zf/ACghGf4RYJ7mMQTeqnl8v/DSn61Cfyn/AOsi4hH5ifp/53R8Pho7XMYnamSf8OG+PPM6pTx5JmpYvH6ss62Zmxht4/2ogSdn/wCI6DHsq3+j/wACBwX1vAB8Fa8zSsX8LkyLXj1R45HKcPu5al9UgswOytxzIkfZ3f8ALP7v+e/3f89/u/57/d/z3+7/AJ7/AHf89/u/57/d/wA9/u/57/d/z3+7/nv93/Pf7v8Anv8Ad/z3+7/nv93/AD3+7/nv93/Pf7v+e/3f8t/u5R9CR5J//AUeZCY4J/q/5b/d/wA9/u/57/d/z3+7/nv93/Pf7v8Anv8Ad/z3+7/nv93/AD3+7/nv93/Pf7v+e/3f89/u/wCe/wB3/Pf7v+e/3f8APf7v+e/3f89/u/5Z/dTcSRpn5f1cEWaahrEc3heX3cnRa8PFWZ0GJ/h/5wA/JVuW+t/+Bsf+nR4Iej/8ppzmcB6vnybp7qn4Hf1S5g4IC9V/MT++KmgO0H/9Y8cPF3/EmnAXykfuxfDySFU/Gz+7Bg+Xb3Th/MP/AOfuR8vao6/x+72V/wAe7/PNe7v2/n/mzx+ko9u/bSubpDj0o653dKB1PD5b80D/ACVr5AbMmkArIxUHs4rSrzPHu+sJPj/9OYIjuuR4uavM/usBPQOjm8AcBpECuy9UaH8lP9XHujDnV0pYj/Q9LqP3R7u7/wBhW9jfWfxVv7a9JfP/ALoO/wDH7plBOP8A9DNVAV9HM4eKsn/4+1cATfR/7Vw7i6PVDlDPkfN7ll5F+WP8+Wi7Er7f/l0P+BLU0jLXn1QAAQH/AOQ8VFhJPIv/AMDf/gb/APA18qwkn/4Asq0qCn/wN/8Agb/8DR8JPhT/APIAoSRoZ0To69NCiOAv5KPMyvs/+35Y+n/TSHOB2qHI2PJPF8OEHZeGkX2H+qcivPijnP2ea0Uh/wDo6hN6SOAWTiehdz2mqhUBK1FTrh4K3PWEtkpT5S/bSYgdWJtGFLE3g7adMHB/+Q02pHVMT+P/AM6WiYFPij1/+S4MnI1RB8HddRJh+KxASyVo89+mk/iSF+aStjn2UC0hJdT2mbLxfQvaxwCqQYSfP/6VuKB0eWl1fT/awAPr/koA5RzdUp8uv/5Tee0f0T/87MrV3lmH9/8A5eqfoxoCIHH/ABCie63U9OFzSVwMw/8A6B//2gAMAwEAAhEDEQAAEPPPPPPPPPPPPPPPPPPPPPPPPPPPPPPPPPPPPPPPPPPPPPPPPPPPPPPPPPPPPPPPPPPPPPPPPPPPPPPPPPPPPPPPPPPPPPPPPPPPPPPPPPPPPPPPPPPPPPPPPPPPPPPPPPPPPPPPPPPPPPPPPPPPPPPPPPPPPPPPPPPPPPPPPPPPPPPPPPPPPPPPPPPPPPNGPPPPPPPPPPPPPPPPPPPPPPPPPPPPPPPPPPPLNBFPPPPPPPPPPPPPPPPPPPPPPPPPPPPPPPPPOAGJBNPPPPPPPPPPPPPPPPPPPPPPPPPPPPPPPOAFLLHEPPPPPPPPPPPPPPPPPPPPPPPPPPPPPPPEHKEMLCAEPPPPPPPPPPPPPPPPPPPPPPPPPPPODJGHHKHGLFNPPPPPPPPPPPPPPPPPPPPPPPPPOEFBOJMLDBKMPNPPPPPPPPPPPPPPPPPPPPPPPPNGLJJKCCFPLHJCPPPPPPPPPPPPPPPPPPPPPPPLKCHPNAFLOBPGPEFPPPPPPPPPPPPPPPPPPPPPPGCMHLAOHMOGLLKHLPPPPPPPPPPPPPPPPPPPPPLHGJJPDKMMPFIAGPv/AP8A/wD/AP8A/wD/AP8A/wD/AP8A/wD/AP8A/wD/AP8A6noYsUowIM48sVU//wD/AP8A/wD/AP8A/wD/AP8A/wD/AP8A/wD/AP8A/wD/APrDzyyQAhCDyjhT/wD/AOdf/wCJH/t/+5z/AL/2/wCtP/8ApjyhAwDzxTQj1T/91VHexdZCNlclJNQpehQH/wD+A8wMMYQs4cc9U/2VL0JrXus/NG8Q0/c5oS0f/wCkLPHMADOMNOGFPv8Az9AD9fz/AN8XV8X7gB/X9/8A+uOONOPPOHFFDFPv/PlaP1/P/fF1fF/2XON//wD/AK80IY8k0gMsU1U+/wCc2YP1/P8A3xdXxf8A7e50/wD/APryCShjgwzTTz1T7/zzyj9fz/3xdXxf/tfrL/8A/wDvLFJACLKICONFPv5XtAP1/OvfF0VF/wBjttL3/wD604Ig40wUkUUcU/199SWVqN21IG3RU9XuMS1//qs8MwQkkkAIY5U+2okUo++7Umc1l/8Aw1A1/F/P6iCFLIGKMENBMFPj73uuHv7i9/zhf/7inrlFf/6pLOEOLEPLFLDVP/8A/wD/AP8A/wD/AP8A/wD/AP8A/wD/AP8A/wD/AP8A/wDqs0UcYI8skEwkX/8A/wD/AP8A/wD/AP8A/wD/AP8A/wD/AP8A/wD/AP8A/wD+BBSSDRzxzySwjPHDDDDDDDDCD/ljDDDDDDDDDewwjTxzzzzywxhAgQAhzzzyRNj/AITX888s8YEoAMsM8888888888IA0UE88889/wD/AP8A/wDkfPPLFGNCHHPPPPPP/8QAMxEBAQEAAwABAgUFAQEAAQEJAQARITEQQVFhIHHwkYGhsdHB4fEwQFBgcICQoLDA0OD/2gAIAQMRAT8Q/wD5IA9nF96+9fevvX3r7196+9fevvX3r7196+9fevvX3r7196+9fevvX3pLDZ/1f/R6u3/8n+mP/o9Xb7uTjVh+CIBHXzO9HT2BuDjzAPMuZ8zni0Dv4kSDm/i3Bn0mPk9/pj/6PV2+6vhgAwt28iLn8AAMepAOrYJIPDYb8/733FdwH4Iw+v4WDsjXx+8pFrz+mP8A6PV2+bPiLMMI183qB152TmpYm1O3Pw4nq0Ednw8brogT6fMn0Ynxvnxx9X3+mP8A6PV2+d35/wCiZU0X2y8/rrouybu/P/RPV3eBv6pubH+1rRG7GFl8TKvf6Y/+j1dvnd+f+ibs+Bv666Lsm7vz/wBE9Xd4G/qnztun3hB+D+mP/o9Xb53fn/omVdiQPn9ddF2Td35/6J6u7wN/VPn5SqT1Ii/B/TH/ANHq7fO78/8AR+H+uui7Ju78/wDRPV3eBv6p8YP3wAYefZL+D+mP/o9Xb53fn/onjmScmBczPP666LstDsnG/X/RPV3YjM39U3Zc/wC2F18R5olmJw+/0x/9Hq7fAi36/wCJii2HN4U0lfWuyT6eDOPH+B2ADCUDWBBIAgBhKCun1+fbL7/TH/0ertnn8bifDxZb383H+PnCbEWnDAfkiAazT9WDJQNbf8d8eo9/hLq78enwnN48/pj/AOj1dszr4GLQ1lV1lwer5qX+kr14i04bkjEmwOC1XEA6WdvX+AgJz59vJC/I2uPJbJ69/pj/AOj1dv8A+T/TH/1Ofw//ACOYZ+Uf/U3Bfcb7jfcb7jfcb7jfcb7jfcb7jfOzwGPlvzL7jfcb7jfcb7jfcb7jfcb7jK73/wDj6Fi4H5/58/rixaf/AJ5N/jCf/wCAf//aAAgBAhEBPxD/APkgPyc32r7V9q+1favtX2r7V9q+1favtX2r7V9q+1favtX2r7V9q+1fahoa/wBH/wBej/8AJ/qX/wCvR7kD7H8Cx2vfxBxePG5LIPPm6eLB/wCXnHywAGnzA/BfzYg363wA9/qX/wCvR4Qn5ZVdfZkwHfgBFp3MO0tMhTqFQcn9rlHXxa/E7+aRXh+txbp02XwefXB9IgHz5/Uv/wBejxx8zbrrMfi9+GPThiUQ1Cz/AKs38ub5soO4w/LwcO2HL2earsTPlfHgL6N35/Uv/wBejzq/L/b4A4b6LPn9Nd11edH5f7fOh7P6IuJVz55mExH0EgDtgEe/1L/9ejzq/L/b50939Nd11edH5f7fOh7P6I8587PWVf4P6l/+vR51fl/t8EZ/YxBfn9Nd11edH5f7fOh7P6I8/OAS+SIB+D+pf/r0edX5f7fw/wBNd11edH5f7fOh7P6I8FP2yq6+ffJ+D+pf/r0edX5f7buAgzYG7vn9Nd11WL0wj6D/AD51JQHn9EXO8R4ej+8ojtn3zD+6EeTr3+pf/r0eMeP0/wA+ITkjCJjhG+g3VffnpfRX7Sq6wK4RRP0hVd/EqtYFfxF9h5yHs9/qX/69Edvncj8vDp8Pi5/z8KXIB1yTHyPEWHcB/Ut2BXCDPdfPHrFn5xz+Hx4cPlG5z5/Uv/16PC+TP62IMCAGEex2XDWB/WA48A48kexo9RHUQTGddgxE7/wMB8X82IXwBbGThsQd+/1L/wDXo/8Ayf6l/wDqt/n/APkrfzn/AOruu+0X2i+0X2i+0X2i+0X2i+0X2i+EGeKR2Dfk32i+0X2i+0X2i+0X2i+0X2i+CP8A8fLX0i6/L/Z5/QtjY/8A6AT+Og//AID/AP/aAAgBAQABPxD/APlVx/8AsW8WDxYbBEB9h/nr/wDYl4ut2Hb1H/Gi/E9IdFRMBInD/wDsQDQEq9F01iQHQ5/x1Huxd7fcxX4E0mgMyddWh6PXXFOT/wDYbhYu8gsD5P8AO8r5p3tg/a8f7L7aCmqR8D+/1TlclvL4T6YH/wAKo7NQIif35Ps7/wD2FEkUiRkckPfz4/NA3qHOB6n5w/PdKEIF24B8u/Fb4vh6R6aHyUcqzzgd+hI+5uj4x74T6HO+LmMnLz6effj8f/sG8XGhacez16qFWbbPgHyfVcqOHAjr0LAjyZdB4H6/u/5L/dakq66j57XPr9GSKmVMm/p34pRnCDgeIfofID1WaToDG7jy8e/dCcB/9j1/j0v/AOwDxeih5P2+qvDJIPF3HQ6P4jYaElQuLwr9h6l7sS7kOCPPtf0R1Z4BYDE9r4H7/wCHRsqDYy5+Y5/Nbsj44+fR2SnMH9Qvrj4ikCGQPB5Xr/5Ri0ROnl+e48n3Y8BN/wDBP4/n/wDXzxYUA3L+31VgFPKcx8e/pjVDSAgQPT/b/wBp54PB0x9/xN0QJ1F8rwRj7soUoDCdPjEp8eL/AJJ/dQnKonyv8I8ceLAdBw5h2PTVmlpHPrw8e6kpiJvkH/P5v4JiR6T3Wj5Uutkfw+SskH9Hk+Xvx/8Ar1uIH9Pv6USRfPN/5R1E9ZDknddTyvta1a8C56gumr24+PYM9ZQZe7yvK+a0CQsIzHT+T3xf/nrODEDJPZ09V32PLs9fFIccAkSzX/C6np9h55K7IgIzIjxFPCrfyCP9d04jc8eBun+8elGI4GkZ5zp9ffx3/wDrp4uE8Mg5P5fVPnnvD3u/8PhWSpkfaf1B0YYUmgBKuAWabkOez0fz8UIwwCALzGOztpEN6HB4Dtsv/JShqSkpf3Oz4+AGwJE4T/hhgQiSJQxuhMzdvT0/VOaIVlyfX/lIwrMqCHG+fD9PVfZzYjHOdP8APPo7/wD1w8NWKY2E74+fArIBplSS53z5e+PbKMqZflf9eCtL3EQNg6evL9U6wEAdB/wkwJS4HmxD7Mg8t14Hf6f8x/qmXDpe59vMOcM5cVbSpvBf548eApQyiRP+DvLCNDOca9HT6d+efIV4sSHl6jGxPXg0pwFCZDzHk7Pv4/8A1s8UCy8A3fDH9Xh8aWd1z9v/AJ83krZxGP4h8v0b4p7SwBx/wrAyiApyXQ6T14vfj8UY5Ebjr205g88uv83/ALvMK/Bs9Dx5HfXpwAEI4PT0xx6fFcmMpbZ34GxIws3F+Tef+Lxk69NKBLKd/wDHi7Xf6V2eX13cmg8U+nr+H9//AK0eLhk3x+31/NYTdlUvb7/g/Rz/AMCoGPdhxHfy+fmvFPBlA/D6LkzapIOnyOv48xcxkZRITn7HHEod2fGEgZZeV5Xrxf8A6KrZI4hvcJ0l1kChOzw2Ep4ilJ3O/K7N4sQKWNB8e3viigISIyJ681qyvH/A/wBf8FGBiZ7ukeA8E9/D2WN4M7PF/f8A+s26JrO2xITUkxen4dfn2mLgoX3WvH4/XB/f/GKACVXCsJpYB+vt74rF5Bz5/g9GUAMIA/FhGoSXoOj1c7hgvpBf/gVI5yrEHYcfI/WldEDE/QX6lz1/0yhBHISa6SRldXs8vjPU7WQqXY9ffdlIQHdDD9gn3SJplKJ1z9e65sxvQjn4f5nxUrLQ/mX78ffuwRZI/wC//wBZRTFK/wA7rBlxJnoeZ5fx4qRbChw7Y8FMxnv/ADn+drpDYDmJHll+0H1WSRdFIHFnEPntfOeqAAAAwP8AjVSDYhswkI7FA+Gt0SJ3PVB7fLxnwXS1IFwSexOx/wA6vSK+CeTrsk89cOYDh/pP/wCFyQE+IZX5Cj6s60/g0EiESSo3XofZ9nJ8NJUF/sR/EVuPOOBeB88fPxTrf/1g8WBriOMz4Tg9/NKY0F9cr/NzeXM+qfbMvyeKgSsBq3ImZ8K9vo5rxSq/Lav2/wD4YMJ9r4LHnxmnlPn/ABvASWU1CegOvn+sv/yNkCjweR9/yclIDaTsfY1T3VNTx/ifmxWXgFP7Pj/8DYvG2cdsHZeXmgUJI2RnCbyPH2/hUcIZHz5fLx7ivoudd6H9b8e//wBXvFbljY57BRYMT1Xj+U+59XjEEp0HT7fyuIyCPqvDZHEbqTdgOuU+I/8AwPFlU8lz/oL8bRKHj0/bYj4ljAeV/ujAoNhD/s96+i/5bRV8o7XhPN0DU5H9fyceTuyEBOqnv/fFBZOnIN/ofrxVYJ4yHo5+StVHZ+n/AI2TsJeXT8TWww1OrsfdaQKY7HhH+H6smQIJPhn5P5sAOR6heL8O/M+LHYRE7HZ//Vw2FkcActDloOSvq89x5qTJBXrGnwGT3FQsKZ9OD+/v/jKEDk19FZBAi9PA+iP3/wAa18jrn4uulPCvP9rS27Jk8i/j6fNOBPaQ/wA81wjEtfy9r254L0I0Gp4Du+5SJjGmQ80aYGcx8J/dQSeQoabwfAc/Pj+P4vU9VCruYj6OPtQcH3v9p8knxYn2gnuMqIkcepshZpjEJL7KyTkkXzyM/NkqMHkbMKeHy6/xP4LAhJJ+h36GnuaqFcJcr4/DJ+P/ANXI76Icx5/PF4JqN4mfAc+4uupScg1/iKcoQDgDCvhzRB9JkcT7sCRD8ggidv8AnoYgFp/dheUleBZGd4kn3yP3B80J8yUfo+gf8zQPL4Pg7qiB5An7P64uvS4HXwXsYawOR9vne2OCuqC+ZUk+nj6s23aBvoftM0VINq/s8n/AD/jUmB2ghfnzRIMS+luV7MpTfkIh5lFMOlDwirw90MM0SY4F/RYXATxPhHqwuxs0pwzjkf8AlP8A9WcK1wB1g5QccmtPyvfdlf8APVawZfY+X+T8VoX4g8saIhKp6gT/ABRhNFA4Wgejs+rDIJ4U4+PH/UEhJrxYegWbvy+Cys8XRvZv+OeUGVjJkvw5+f8AiuYS7ID09n+RXkvAsvwmlKBbKYXzmP3ZHQ3Zh/I/q+d0Rn6efqaf9f2gJIlGdAQLMCsE/Efitn29T/FT1P8Azv8A/WQEALyhzeDFnXT9B/mnL8lW+JDMYJJPsk+6PYDqA7/1sA/+isOPurwiu2EPgx+60a1Lm/OH0FAsfmj+jugJyc2Pt/gX/wCtsp3Jy3w/7pvkFYfvs9NgIh1x/l8n4sDIYY5HwnI+mL6hRNH+rBRnieLwKw/Lf3TQ94SfZS/k8E/JQd4ZfdfOHPhF/r+GqwzCeRmRPc1CSZkuX5rb8LJdAD2qB82Zv06OiDVHM5OgX8d/lt/zr+7/AJ1/d/zr+7/nX93/ADr+7/nX93/Ov7v+df3f86/u/wCdf3f86/u/51/d/wA6/u/51/d/zr+7/nX93/Ov7v8AnX93/Ov7v+df3f8AOv7v+df3f86/u/51/d/zr+7/AJ1/d/zr+7/nX93/ADr+7/nX93/Ov7v+df3f86/u/wCdf3f86/u/51/d/wA6/u/51/d/zr+7/nX93/Ov7v8AnX93/Ov7v+df3f8AOv7obMT0/wDtSuCERdrdenOgObwCkMAI/YlCgJPYaUJBZfcvKva1yUgftSiXwQ+C6YSJIuB87F8SS+iPdL1H+ke35vqH5E/7poosE6vwctmZZ5SPPT+HxUYP7KB0eiCzEOXKfBf8S/qm+FmcQ7HE+v5pyrmfml/X814oR4oJxPEnJ6cpcIrw/JGP6qk7PTXi8aXiN+2pmfuysIA9v8/mfNWDRhq4D0czQAoAytCAw7BA/Ifj/wDWJzZJGY9CPog+qSchCersDAIHKezj3t51h3ThR/nXj/gO95CX89f8IPfq9Q7lPwHB9zYPTEKyHy8fBnqvF8ZJJPuX9VNwAQTL0PPx+u72AxPgPHyUr/dHj3H+bxZTLmnwHN/n1eAHST/8+P8A8RqyyOEs+RB+AiD+a9f/AK0pI2pEg55AyfxRU9UAHH/4WlEXa5b8FHHpPP4/8vx8bjyR/nxt4j3jK/19fu//ABNgCxhiE9wwi/JNEiAxHn2pJ+SpDjkPpBKPosmib+UlP0kqr0Y1D09fDduiCSP/AOHcoAHpz9or1/8ArSkjeKllgHwGL8zTn/8ABvERVAVc44r+S8/BYvqxf1p+0fdB4QF+ukA/PzQoHxgmDyLB+mmZ4YWE9S4D6B/4YETnVB1v8kp44qGmTCD2d/5lln/mSfHa5QHIgP7/AHUiJjr9v/VEpUk6/wC0fTQEx7HX9n+bT6H5R+v+PFQZZDsvmfEePc0PgyHY8P8A+VSjPGQh8R3mocEvVOOZP/xhQAq8UhMRik/hMEdOzj/8L6r7+QXBx8TqSEgpIP8A+E5nxdADWR+dQ7jiSdi51vuZn4fH/wCEm5EACq+IN/FHxkBq007OE5HHj/8AD800vKfh/ZPJISaTH/5COW0yeA5pY1+APEPDx14nv/rbyKQfuvfMcQ/By/qo6aZmfCDvy0fS4AH0g/uk7TJA/wB/uy4hx+VPVAjyZdHvgf5li4ZHMdmXh6InxH/KPWqgSfBv+PEVESDLJX5+H3+Yyx0ykJ+j+y8ApgoP1JPpLwj8z+yf5p+/E0OC/kowdcCP5i5F1WjMTHlj8FGCboC8h/vvmwFA8ACA/wDyaRHnxn/ofhwsTtAk+3kXteajYZoEy5R/b5DMDjmT/wDCCoJWAEs+vdIMXm8Oje/J9nhPvGAPFk7/AEkjZpykL109+Tk+xf8AnG1qqg3WdH8f4c464kA6jwkEJxF4Suc4f0g/Jp2H/RkNQDX+18v22LEdP5elnme557skAxpRevL/AFx4vv8Az5/6CcUASr1RcEEkHSn7H9uItAkP/XOJHE5sNZ7TjjePPh5h5/5/mVUuYM5chfqNGfpJj0R6TkTTq7qkRc9+sn55O4//ABI3plCBiQRj9UOVT3B0/reuaPuFJE+GOnHPTXisW3lJfto8O8QXhxNePuBh9EfzZG05+gxBT5WzqZ4X4PHtq10yWH49r7/FHMBhSB7+X1x5/wCAAghCJIl6lOU+uOqSaDMlE/Q/5tdj+i9np+T8UBxsST/8Dxe9pj3/APRcmvX/AORSzlrP9rleHju+Sk5vKva9rz/wyiB9NVKZvygj35fIZwcBM+P+gqAq4QSzSAK8CQ9G/c+R8OV4WTmsI8WT+OExsh5SF649+Tk+xfx53ipnCHhR2/z9NSRAgCADg/5CRaOJ59Iwj0g3tGWOX6Qfk07CjBEhGr9r7+2xYMQdwf2vK9vNyqREFIHkTs9VrvnUq/ufD1x4n/P/AGnGtAJV4+6IgIKQPEn4/wBuORUyxnzg/DT+zssELAPVbx/GzDzW3QQRy5j/AFGggAAcAdRWxpzBo8gekYR6QuyeI8j9Z8d8nYf/AIkbgtfFYnvt/K/P/wCBpMpzCrurxQPJOfJ/FOKjMFV89j+qJE9HHq90CACACA9H/Wpm7mUWAAv9J0fo3uDYr05ifw+6AcuAy36f4vvOLn8/99/IfYkfiP8Aj1/+Kl9xSAiWPHy9/Dx2cDGxo3Pt8ryr/wB4UCOPiypaSY5ch35fIZgcGzfqfXmjw49vgF5X5BE88Qk3/jxWKNfKfOq3UfxzWp4VoAXbkZMTqdan8aAgAMI/62BgWcTz6R0TRJKvRPjqPKIchfWA4wf18A/veXXXz/zj/iwiDCB5EcSswJIMvA+/U6Q9cz2/iujpdnydA+eMerhFm8LpYCwFhOnrydk8c2D38TEHGDZde9gxJCDADxTr/glFig6TE8B6R0eq8E/S/BkNGMke8P8A8KN4ZscGKr7WR+H/AL7dhFP+7sF4gh/KftPiiDrhvxpf4I90gToQv5iX5LQvCwQf9k8tjoPCRHkXEob4Z/6hP1f/AG3/AGUPk3pFB4uJALCORKPzL/H4wfVNEN0/gH8iie0aH6bhuJz7z6YfqiMIyea9f/ipSZgxBv8AavwcpoMAaDft8r2u+bgaWbaT4DHtXjkeel4/7tETNfXbA+SHfl05MkHiDeQ91iK4nLXS7P45LEvYAY/D5PHb0yf9OMCVWAPNlOo3C+Fjg9v8OZbvchX31HnHu8WadgTy9eTk/C14ogfVJnnLEx8/7P8ALgCAwDCUzPPO7vNNi0rAfL/P250zXijK2TdGo/wO3xWLNnye3+uDLsBNCO//AEPTtjzJre+H8Pf/AFclIcBqr0e7F6VkF/EuDvl6Di0kNPUdiSJ3MUrwJXk496fw49KR/wAgJowHXKea+enp13Htl9vL7/zn/wDEjcLtuDk7zX3rc17qAPtmf1YgV6EH2/pWru8//kP1SwUCA0g8V27s/Hyk0k/n/wC1DYV/5eM+6HZ+lHlRh/wfMH3r9OX3yfxJk+gj88If3T0PjL9Pk+iKT8G5+o/zUD6kP2Udn5I/n/8AALZhHCPNbsCW56fs4frzXr/8FLup7pjkIQnhSE7EzDxY+RFw9vavKurrz/zkrx1n6pecR4RxFLPfO7h4+U9crPC+P+PFZCTzcw0bBILB0SsHt8f8/R/x/wCNX/4eA2vDf8d5f9eLD4s5eD/+BHuNwlwL/tHlXKf+HSUPoQn4bL+uae/7kP36/wCQgNidXH5Q+yxWyf8AAXCMfsZ8qGSZ/wAf8/n/APEjeKlgElz2p7cH3TUkA4A6/wDwaCP5H+Ksnwg/kXJ9E39Tp9IX/rPzYa3wN87OH1ZiE+Pp88v98cX2aVsuk0fSVK8yXgfr+T7KKEvnmJ9PH+OKnBC4mQ/3+7N82MIHxOn5imeEyCPw/wD4G6YFhcr1/FlEmXtiP/wUnh//AACun4v+F8rLzr8K+8h4RxGlNugwH29vHJ+F/wCPN/Wfw/5+k/h/+R4DeLw+r/lvL/tw4/8Axq5M7YssD78N7T/jhXleOE5br8K/R4ufgSj3fABfqnQ7IoEE+/N8WFOnzoHA/tET4Hn/APGjlKInqbNyUdsvL/Ho/wDwuDTlAD7bI5GDkX54/E3y/kH/AK/VUJL8ylfbwfz81KZM/sP+38XoJIcr5fL/ANa2oXqBfk7svPjPc8Qsn0tg3nggPgdPzdkTpf8Ax+24/QD/AEP7oYXS/OkyWH5Xmf8AE0kwcSS/N4EiX4r8nb8pP9//AIKTw/8A4BXT8X/C+X/ON8MmBR8Io+m9M6pxXm/rP4f8/Sfw/wDyPAbxeH1f8t5f9uHH/wCJXOSeKmPKR0sfS5RprYZsLuE5PZyPmxdp1gIIZ6QBHQ+a1jiyO8G4I0+NGfNQ98/5/n5//Gjb2FM8w0ffH3RaISffFQGnMjPos4Cw9f7WHbpP3ItejugH9v8AVPplP4Mf5s+x4SFXzp/LReb85T9GtNCvn0+Dg+qf9XouFn/Pj/8ABDCeEkqqm7yfxibEX05n2QR+Wyae899HB9BSyw6X8y+6PFGX3Sgj5yCP/wAFJ4f/AMArp+L/AIXy/wDwXnVeb+s/h/z9J/D/API8BvF4fV/y3l/24cf/AI1cUZOetpdtY5Q5/D8j4p/+DlsqbYLyf2iJ8Dz/APkAzKX5oaHxwA+AitEmj0v2BsijuO/cO/upzt5X7RP7q454H4RBowK6CD/rX5N2R/zoVZvc/wAqfAaJEF+Yf3dRI6xfpGb2Mf5mH7sQVHTD4Xv92HQv/wBJvqkwrgKlAABAf9ev/wAFJ4f/AMArp+L/AIXy/wDwXnVeb+s/h/z9J/D/API8BvF4fV/y3l/24cf/AI1f15uQSJXB/mVqRP8AxregOw6Bv5jPmPN2d58ur/nf/wCQDQxPX/UEhJPFR8/ERrxV1F9j9f3eqLphHgev1RUKOXn+381K+Er/AEI/my4YEjP4iY+6Ai73x8Sb6f8AH4rxWwNiOPtebzpMjzDpPXf8FiA4s5+RGmCNcSWkn45f9WXj+Df4aXKs2VfqYqjqIRsvn/X/AF6//BSeH/opuj6v+F8v+3tj/jzf1n8P+fpP4f8A5HgN4vD6v+W8v+3Dj/8AIVybkSHI1kaEHgSfyJ9H/cE3keMbycfkfQ+f/wAtG8XmiMH9zg+6fIvpQ/8AKV+vP/Qv3f4PJ/uvFTOwlSclRL/sIpn46mTx5P8Ag0oGIj1+159df9K8Ukhdn/Mbvv8AjmkQOMR/3/J7smZ44/1Mvoq8AORP9uKLnpyyP0n92FwFI9A+qpSuRMD6gFkMTpR9Aj+aRcpR/QG/eT3UkAQ4E+jr/wDBSeH/APAK3S7VCQYlm/8A5q2a5LBghPxshM+f+PN/Wfw/5+k/h/8AkeA3i8Pq/wCW8v8Atw4//JV0/wAZ4f8AMP5J4P8AvKoLBEA9jt9ZgCRH6kY9fP8A+SjG65iwfZ2WVGHoftJfxPloGMFFoHOmfwVYTxZlF/KyohEme4PHpVcJ9Sn9FSYnOFH9/wCtPdl8XwcB9DXDjBDHvz/FUNrPH1Bn3TmvH/OdmuBx6O6eOc7qNeFOV/zjmlhC4xc+BvhqCqP5PwXagu5f7YaQJeUCog8h/ICkfuuzzXhD16nD7aDKAgPB/wAev/wUnh//AChTzf1n8P8An6T+H/5HgN4vD6v+W8v+3Dj/APIV/vBIXK9BK+iwv8XkDl9rq+V/42UMc3LuOMwDX0R/7/8Ay0YECCEeGz0jN2a8fnn6e6JDHoY/Mo0vD6F/KiV5u/20miXrkUrSMheXn5F1rxWIoqRD4uTNwwvQ8v5v+a/1ZJe7T4XT7KclPkRk31ikcx4vjIMx+n/bRyf5P6GJoiCIn/Hivkr5eUunt/iiyIHk/wCh1/16/wDwUnh//KFPN/Wfw/5+k/h/+R4DeLw+r/lvL/tw4/8AyFfz8zMfh/tRH/XhLqKec4t+IBPqbzp0OBRE6RE//KRvFQ0aD1RnPuObHK+PPin/ABAKoB5oL8wT/BWSfIM9knPtKPECrrAccGBhHHdyJfFfA7fbbD6/H/GfDISP1cEAlsH1w+Ch4XyUPi6P8iwxRSdPwq5oQNHCY/ZSc1kxPZ0fVORUZOkPbPb+j5//AAPX/wCCk8P/AEU3k/dVQCKIlHnv/jorAlJS4BOtNf8Ajzf1n8P+fpP4f/keA3i8Pq/5by/7c4Kf/iV/U2Ry5XoJX0XiZy+YNX2sq+VsWENbPIMg4PyP68n/AAyhrdNKMBz+B+U7/wDy0bxTw03GUHSOysoll+8D/NC4LGR/CxjIk69T+H+OaZbLFh8xye5/3cNhKZD4hJ8zTAFAEB9Gf9aK+APx8vVBUmz/APQL2/8AleJxCh+R4Po/XDtccp/yXVoUwPTj4z3Tq2Fw+n4Ov+CbbynivFMTHA58XxcNiJJxjY+//wAFJ4f+ini8l/wvl/29wKPFeb+s/h/z9J/D/wDD4OTJ9ebhjk9UQeDk+QPMV4vD6v8AlvL/AItk5/EQeYuOi+FP/wASubkdnPw/qVNeJpdRYYQHHwI9hcTZp3AJHqD9ac3hSpHV7Y/icfS1/wAPmgYROoT/APHDhIML5RGPuI+7BoL8n/V/nmvFhBOpN5Lj3SAxvLHlw+J91NOpDpPT08lEjBlGl5E0q+dYfyeB6g+6tWXEv9h7/wDlxwcqc/LhPi9/8n0+9fYvFcA5oj8R38v4oAAABWwSlgOrwVCK0cAng9eX/AObYkABwWMgPGL0XV7SPm795lWq8rTVqZE/K6Pg2rMJOR+s6j3rzFB2bp+m/v8A/BSeH/8AAKeG/wCF8v8At7gpW/p/4f8AP1/8K/8AODFw5Mn15upPEoQ58HR+nMwdCEYEYB1/x4rxf8N5UFKAzAeDy+iiQTO19p2vP/HivD/+Bv6z6Ml1fQSvosZA/fBq9rK+1/5zXpiQckw+w+jzW4AV0gn8WMEEBmPPoCfVi8G5BthMH+qPZfD/APHDQvIJzAB+qG7khv3nYxsb5nLHp7iZ93Z8c+rtATQYV5G6ojcfpNXvh9VGKYVCHj/ylzTgvB7evD0x9yZuc7XY+/8AgERJGtJJJgNv6s+jOM/oeH6v/wBV/u8abAgrYALwLrRnz+Kdocq/17qPTdDPKw759ZRApAAD7mforyR6TJ6GX+PikAoREJ+aGhzpv5YKSA5XMPTm/H5s2GyhfZ8TMejna9f/AIKXvxVmDkwEDyyGPH/eSltWTqlUdicPpPP/AB5GNcHVXgMzywUxpzZzglvfV0IAQfI8nJJ0kuieqI0B2U5/2GlgMaB8968PD/FnxT1eaa8eShB3wdH6czBsZRIRgHX/AOEAhZzgSx5finVHDlXadrze/wDjxZcNhy+AdqwAd3ZcNAAJ9sS+Os/7Kzx/pdPUmHkV7FD/AI7GBbssk8oSh2gd0gyQp1kYZ7nzP9X45osGV4OpHkQWYI+f+PFiUwkoNGuhlT4VTiGOK/8ATfeev/xI+DZmOrl0OvE78PquVB7Ie04+/wA0IH3TR+ST81YqcgY9hR8k4Wvrr+PVO60gH5EI+yocDVsHkfXR4oghyJ/mNeK6gKch1eclAyX3v8/dWlv4jwsj8BdVJELKfKlfz/xw9chI0RYyQX8D/VDtXMRz0BJYHnQn2lIZb8GP0oQ3WI/YnP2uchESHMGepd/ik4MSXZz9HB6K9f8AaX3FOTOMeH9j6OubEbMBq7Tte3v/AKsrgxlOXgPldlQMxNdfIc+xy5zgFgxAI/L4PHT2y/8AXighPIwdZOn9dON0KRAd/wCEwek9iN/zmweDQ94P7NHby+E3x3yeHh/MJlLxhWCesWkSTEAwA6P+NeOKNTyiD8CjWc0OvSBqMo9q9/8AGvFmqaTleg7VwO2s/P5Qce9+euDuf+PFg/jZfoNBKAAAEBR/5yUW5QmQ/wDpj9uU3Rk057T29T5oaDxwHR/m/wDea49NhgP4fDyfDYsQ51f5+c5x/wDwo3iwKH+Qfq4okRAYKZPSm8UujJ5IPvHftPi6zPiP+n90R0Z9og9Vv66D8yT+Jox7nw+eD8U6dcAg/wCaqQ4RD4TStIg8UfwTfs+/+MSzrCt7gGPXPecXly6iD97+qRHtFf4IuK67Y/oso9MTPoe7HDZu77WJn7p29MqhfxWRSOFNPt27QAWN9AeZsNIWVoHEno4nyvi6T4Zyhy/F8f8AaXJG/VYNgJh/HB1yO8pe5wrCcl0P/kiP/RljqRbf64PyLwcKJXdlelxCYEY4yIwrCUAPoPZ0/mGT/rxfd3T/ACnL0S3zde28gfy9vPX/AD/Ob+2emxcv1sxcLyGMfh8njg/o+/8AnNYwgah44f3wErZs7Yrwk8zwnszmA1MasCeXY8nJ+FOv+PFmo6Tleg7VwO2yUj2qD9789cHa/wDecXAFv8SfIyaf1CEgeH4of85uaZmoOI81/Q463hYoFlJXH0gxgQjw2cgGcH9Jwjo46R/3m6ssfh2XU49hfLkSzzMyJyr3Pvfx/wDhRwFPFcuc5zHT8e//AGFDJILh6/fD7C5YGf39zn5rJQ5EX8laSTI4vy0NqfDkfuJ/dmP/ALNnh8PZYkJev+9/F/LIv8pomn7g/X+qVRMGSeTNPJ1/yjx9Qfymqn3z/UVkFYolfLKtmOPIl9evf1vRnDjgB/14s20+HnP+j7pDygnGdr3Hr801jZgmOjwPFBMmiaP/AOGkuTAFh63QOuXnKRwcI4Tkuh2fiSG88LGyQacfxjxI8DhSekBf0eAIAyOAgvUea+5/cq+Q4oZYGBD/AGF0/mGSs9F37up/lOXolv10G54H8vbz1/8AhSbHE3v9w/jmkxiyDx3yeO3pkuTNkhci9cf29G3/AMiLefy999f8GW1+FH9dI4kzQfG3YE8ux5OT8K4cWTj7Qr0HauB21lnrVB+9+euDuf8A8H5rrZRpm9f2PLMmmbEhIjwje0kUpGi/av7Hp8zG8r8/5/jr5sxu/Vxx+N5/oTx050LJ0DOD+k4TkcYSvDLH9WWvgjS4Lh7C+XIlnmZkpyr3Pvfwf/iB6coJICWCz7bhTHp6V4s7BArC9j198WVO53AvH579x5p/0Vwwndg+UsHpf98ea+MXRH3OH9NTf8f8jUM/Hn8I/wCbFaGUQFbklIj8RHB+6fnx1+y7fVgjID6AsQeedT/D62leLI5OEPJ38+Kq4pgl/LHU+WljFzO15XCpfV9n1Ax/NZOSblhn/wCGl/nFEvKEPqRwO3PTlYM2dwcpOHhPo92WgA/0eA4Drgw//ArZ0Jql0eKH8ghK0SeRa9Y5hEv99FuB/L289f8A4nRKwF8Ms1lLp+/G1LkgZ4TA/LMR7yzlFqeWF/Pa8zkf9DK1/V/mQ495ZxzS8eA+WWDsLHYrfKW6H73564O5/wDxf5zFjrmkK3p/p/CgVWksOzfR4HUswzy89/5/jr5/7xsTZJzUXX+hPH20KTT0C/1fo402DlH25cHKvc+Xf/x00zAOYaQ/mKc5BEGPUOfx8WU4OEteVpP2UxNEdR8cweYgWmGWxWh38nf57/5IMJbIR3mL+OH531U4Qhx0n92MDk4B+XT6pQWYB9Q7P3QhBKJE/wCTr/if23l6pUW5Lr0Lgei827tZHk/2s4Id4X4OT8zdMhnCfA+XLC8JoiT88f8Alnk7BB/Ln8Xh3UDn78ruqMqOEa/z7oaAcbE/bKyA3cL+Rw/FTRFZSwEb/wDrSkD4qBMocR/quPBMB4mU0ODif+TW8Kh5Z/4fd8QeHP1uNVMEM5/jn3YPpMBBPySRQ6l0O/I/HDVTzDzr88PqLtju9mPa2+Mugk9Lo/cWRbNf0v8Ao+G/4l/VYmI4UftGhD6SP6GzAj0h+ovL19X86/dAA32n9f8AtlNBO5DzCD6bIBKScT0efBfb91CSInn/AK9f/rSlDQcv/UBKgViJ65qBD4FdPfru56iVUe04T5AP5hZ9it+4fzTGE9X/AA91CSHIj/c3Y9JD8oP5rmk8kY+yP7vyK9LXsNWkF8n+q5pjwAFeKnQhC8nv7fVWHJBpXlOr65/VlwBh/Nl36isheUL8Ln5L9Fe8Md8wS/gFo6Gcxsfxh92VOwkX4z/o+78hiaAEv/60R4zAUU50Ij+SzcTAw/L+n82NFfa+un6WuDAwPE6fkR+77OSf4Xb2fc2CQHNN6TfquHBHZXhGnsosic8B8nh9fZ3EU+DHhqkqPsV2VvR/r/8ABIcASiAsoUHEyT05+2/niNnyvmz1NlyfdlX7sAByAD6FXliwP7D/ACLtgRAYPrNDRSAIOU5w+qPJAn8gv+fxXiqBwnkcmo/OTMf/AKw6s2tM8H6EVJIvtzxb0NcuKDJ4Z4f9XNJh5A8wH880ww3YP2ZUa4MJ+ksQxcmP1Zk/dX2cTtPmfM2WCDA1/wAef/tCsEiSP3/+Fu40mCT91SWV7/8AKx9nyL+lD/VT4L8QF4WdYvnmXr5f/lcQ9E4fB/l8/BVKKhcfP2+poAh7EQfVaBwXEIRuPPT89SIh5UY832n/AOiKBAgQIECBAgQIECBAgQIECBDs0WECwuLANJOE48//AINgRshkWuGKi/8A6ICBAgQIECBAgQIECBAgQIECB5x9tR43RwzyRnpM+eqABABAGUcXOFJGj35nT8fT4YfmkjeCSPIfH92A69OsfsOv+HwH8lR+4W/qqv8AgfimoBO//K6r6YiJ+v8A8rhRDF0CPQ9/xZTfms8xPftpiBaBR89vgPtoAAj+Uo/hrDRLwg+FfwiwA7zQPzT/AJt27du3bt27du3bt27du3bt2/vf/hPJ5u3bt27du3bt27du3bt27du191BJws57jbg+Suyz8w/QRqsKwE34n+K9nbMQT6/2H5L3TsYF+RPsYuDhxOPAffv/AOp/+a8VKQ4Ax48/ipdQ9zoH6aNMD5EgD+D+66Kh2J/ypAAEHWXiaEkd7092ZUJOUTwR0f2+rP1M8D8P7f8A68G69h59tgxg6Hg/BNSZEvuNX8Hul5Fv+HLXrPgUHvyvNixXZp8PrdeiwMO46OGPlhg+fFK3fwo7+/4Dz/8AlR/+WmSf/kPFkQ1DMV3Hr+Ks4Yeb4+XmtQKo3SP1+7Ln8B5nj2U37yJ/kVVGFI/QPZ34fkvGPOSAc/1+7wyjwN78P6/i8mei4+14+alTuWxAwR2co+rGSDB/S/PX/wBoERJHqtzKcpXSJ9TFD8k/urcT0P8ASi5U+tc+eAJDx8f/AKHrOB8vo+aMsgxkHR7I59/NMvVByT25X1kZUBXOSX/O/hF5e2MSfh1LmcxSTOAEgMPgRlWPdPM+AHg48UjyM56P8Pr13JSDfaar9KxusgHaR+A/g6r0AkvD8PX9ZQbAgDr/APIQJWA7qflgSz93/Hf7v+O/3WH/ADfzcYzASAYR3R//AAYXiIEhq3/Hf7v+O/3f8d/upiKYAn/moYRmd/8AyATAhExPFl7Y3T78n9n3cAJEdxH+r7HqSFFmOkiTw/7VnAP+Yf4Pvr15UvEfTx4szzqPmfJJz3X35/eek7h/SUlv4jCb08/45oQcCN+4/wBFi3gyBEXkz6g83eaB6ex9n/6PlKwTAS/ikIlcF9pPP+HavCf2pfyx/DWABe9+OPwUSzCOAKuY5Lq4P7/N41dMk7gePm859Ox6T+P31QyjACAPimzcS7DB/X7op8kjB+PRRfDAdH/42iRBie7svZJZBfETPKu5EfUZxB/+Z1/uzcaCRC6cIEQyUTuTn/8AIHcMAxuuIvf1ez3zRUQdvSx/mhUmESRLNCUmA/Z9P5panJcMcA4fkD7s0QWZ5OSjamDpHupIW9z9Z+aRIzwoj7Jsa0NAfIcz9beLAmBCfP8A+kvFXGLPIuo5jusjfxwflK/UUj6ha/Ly/wDCJShOIeK0Aef+x4+v/wAri1sQFTJIAkcxAM+X/wDNyNiO5psC14SgQc9svUU5/wDyXipMk/8AonNFYsNSx4n/ADivG031VDT4eqUuejmXyEn7qYVUD+lHMPxT9df/AJ//2Q==;" vertex="1" parent="1">
          <mxGeometry x="-2027.21" y="1093.5" width="79.83" height="70" as="geometry" />
        </mxCell>
        <mxCell id="cCAjc8YfBACK6hqS6SB_-18" value="" style="shape=image;verticalLabelPosition=bottom;labelBackgroundColor=#ffffff;verticalAlign=top;aspect=fixed;imageAspect=0;image=data:image/png,iVBORw0KGgoAAAANSUhEUgAAAMgAAAB/CAYAAACql41TAAAAGXRFWHRTb2Z0d2FyZQBBZG9iZSBJbWFnZVJlYWR5ccllPAAAA3hpVFh0WE1MOmNvbS5hZG9iZS54bXAAAAAAADw/eHBhY2tldCBiZWdpbj0i77u/IiBpZD0iVzVNME1wQ2VoaUh6cmVTek5UY3prYzlkIj8+IDx4OnhtcG1ldGEgeG1sbnM6eD0iYWRvYmU6bnM6bWV0YS8iIHg6eG1wdGs9IkFkb2JlIFhNUCBDb3JlIDUuNS1jMDIxIDc5LjE1NTc3MiwgMjAxNC8wMS8xMy0xOTo0NDowMCAgICAgICAgIj4gPHJkZjpSREYgeG1sbnM6cmRmPSJodHRwOi8vd3d3LnczLm9yZy8xOTk5LzAyLzIyLXJkZi1zeW50YXgtbnMjIj4gPHJkZjpEZXNjcmlwdGlvbiByZGY6YWJvdXQ9IiIgeG1sbnM6eG1wTU09Imh0dHA6Ly9ucy5hZG9iZS5jb20veGFwLzEuMC9tbS8iIHhtbG5zOnN0UmVmPSJodHRwOi8vbnMuYWRvYmUuY29tL3hhcC8xLjAvc1R5cGUvUmVzb3VyY2VSZWYjIiB4bWxuczp4bXA9Imh0dHA6Ly9ucy5hZG9iZS5jb20veGFwLzEuMC8iIHhtcE1NOk9yaWdpbmFsRG9jdW1lbnRJRD0ieG1wLmRpZDphZDM3N2ViZS1iZGE2LTQzNjEtYmEwOC00MDk0NDZjOTdiOWQiIHhtcE1NOkRvY3VtZW50SUQ9InhtcC5kaWQ6NzI4RjcxMENGODg2MTFFMzlBMDBFNURDQTBFMUIxNjQiIHhtcE1NOkluc3RhbmNlSUQ9InhtcC5paWQ6NzI4RjcxMEJGODg2MTFFMzlBMDBFNURDQTBFMUIxNjQiIHhtcDpDcmVhdG9yVG9vbD0iQWRvYmUgUGhvdG9zaG9wIENDIDIwMTQgKE1hY2ludG9zaCkiPiA8eG1wTU06RGVyaXZlZEZyb20gc3RSZWY6aW5zdGFuY2VJRD0ieG1wLmlpZDo4ZjBhZTYyNC1kMWYzLTRhZDYtOTI4NS02NTFjN2M0M2UxZTMiIHN0UmVmOmRvY3VtZW50SUQ9InhtcC5kaWQ6YWQzNzdlYmUtYmRhNi00MzYxLWJhMDgtNDA5NDQ2Yzk3YjlkIi8+IDwvcmRmOkRlc2NyaXB0aW9uPiA8L3JkZjpSREY+IDwveDp4bXBtZXRhPiA8P3hwYWNrZXQgZW5kPSJyIj8+8iwHmgAAEVtJREFUeNrsnQtwFPd9x7/7uKdeJx16IYROYGweNpYwxo/ScAwk9sShFq0bxjNpkTptJ3XSAPVj7JAG7BZnxnWRKI07GTcWpE0m0yRF8ZCO3dpIpHYagwOSzcOAjCQeej9Ouofusbfb3dMeLKs73UrIFtz9PsN/Tne3u7d7/D/3+/328V9GkiQQBJEYlr4CgiBBCIIEIQgShCBIEIIgQQiCBCEIEoQgSBCCIEEIgiBBCIIEIQgShCBIEIIgQQiCBCEIEoQgSBCCIEEIggQhCIIEIQgShCBIEIIgQQiCBCEIEoQgSBCCIEEIggQhCIIEIQgD8Jm2wQzD1MgP6+RWJTe37u1WtR2VW5PcPNRFpibdb5/BZMr9QWQxauWHXXJzGZxFkaNBbvtIFBIkncVwyA/NasSYCYoc69XIQpAgaSWHEi1Oys2he6tTTaHa1L+hTnOv3GqSyLRZnYfIIEFiG5iOTe3wihySpo3IrVY3XSKU2qQjwbxVpERm9J94S9sIIkePevlhuz5Vkre3VTddskUkSs2UeatJC0qx0iG16tC9XK2XI4Ug2iikLezr5HaA1MgMQdL1OMg23fPdieQwWKDXpVi2Ni3bpWlaauV2SJe2KX83YvKuZiO41M9oVlM/bRrYrEZOh8FlxJtL9159ghS1Wd0WyiFv8/qjQ9dpHFNMa4RmXUdJVIvs0k0DteDX1zKJWr3B9XCo00oG2kiKzuzWTe9WxWg0sOxrOz7SvQZJRzmqdP+ZjSmmN0KtbpnbDQjSaLAja6c3ku4l6qzNCaJJvO0yKEh9kvmnkoQEuQ0F2a77j6ydBUFcumUeMiCIfvrtaqd0q38n6uw105Aj2UFPd4Jp3QYEkXTp3y7N+tYkEb6WBLn9BNF3VPcsCIIEubgRQRox9ZH7xgQdMxH6tKrWQLTpSLFcdxIxppOWnSRBbj9BbqgXDEw/0zoklSDuWapvXAZTJj01KZbrTiCzw8ByD03n+73dG53N+9nRYnC6g7rnW6fYa6bsVdtncLn6o/6PG1gPI+ec6Y8judP5P5EEmXv0HbkqQSTQSueZoaSuWVrfo5n0n5P2p7unOBCIDRs2rJRD6e8fOXLk+263u4bjuH+Tn9fIz9/9nFZR6fCdmg7sSpBiaWuLXdNYtuszEAQkyO2NJ0HBmvRXN8yFXjWLlnWlz+b0dbV3/bZytDIqC3IuSeGb7DNulmSCuBPUDW7qtiTIzdCqS0uqEtUDX/rO0n8pYnJqrHeGi/s/4JiNq5f/zFMZGgv8OuxpKz6RlWA/VVWyPJwgQW4nuhJ07GuClL+QV1S1YP6bCy8XPQCzBKEiAIc1hMgQh+JqLneszJu7lik/dMzc/UTPP3jPJKkLOudo2w4kKOpnGlmJDBVEHy2Uy2sb4k8eti5uyVvDLEOfFNtFEYWE4X4L5oUq0PNuN5wfPoyitaPLAsvf2duD048mSXVmu1A1mr51wvjeMWIWSLu9WHL90Kn7ha+J5/WPPrv8nwuH85YhwiC6LAwpS4Qk1/BLnMvxtbIdWM4+DO7RDhRU2mCyMBvX/8j1V+oy9CcozvaFU8nSt5YENQhBEeSmUY4VaE8AVP7eXCTmfkU5vsV28RCXRDBW4kfQL2DQ1oKD4x1gl4qwLBzC1cAZlMLCnTnreVKez6IrnGd7MIeaFBFQW8C7U+10ICiCGM3VPbpOWCuaxUJJ3mKuzQKu1YJwJIqI3EQmCl9OV0wO73ngyvshXDoeQP+5wCeYvFt13yyvqz46/TJFtNpG3ZYEudk0S5HjRe1rK/68uHH0fo9d+LIf0dUh2RI5NJh4MJg4TmK2cOi57EU4fxyMKwi2LBL6dO/wH+vqg6ZZrgFqdWlTCybvIdMLuRvTv/S3BnS5MAmio0GNJFiwJh/r7cvBhThI+SJEVwTRe0LIyjGhpDQbpfNzkOewwFlkR06uGSULs6UTjT0WnRxKx62bxuenumhJiUz6U9xfTFKYN+hei18UZUQMZdpDMHaeFZEhNUicHUr+XlbmcCMCFPTnwp8XRDZrgTQvesOEQlh+HhUB+V/La5eYgbf90MmxeZq5f73a4lEhPq9L7biOBJGhZYrtcGuiQPzCqW1qVDuqW/46XL8AiiBBkhIbqCHIRk7JmdQKa9AMU4sZEi+BcYcRzRMghASIERFSVNndG8SxN3owcCSgL5qnK4cWN1LvfWpIEj20rFelqNW85lIjyXbqypRizZili4tHI3J0EOcLYBeK4CrkMGEVEfZHIPpFsH75axhlcPrwoFaOuBjrZyjHbgPzdaqfscOg7HXq9NM5kt+kztNC3Z0iSEJsEXMl65RwJWsIOU4bsh0mKEfR4ZEgcRKinJxeWeW8ZaHl/PoHl7w9OOj714/bez66yY99US2w3bg+FrA2ZYuP/ztdmtQWH1u4Qrdsj7r8thTLb1Xl1z43wkznI0FuVXy24Llsv6V0YVuJXGcw4O8TsdpcgVbmIoajXrnuYMDI7cFFd9zxrS0bF15qH+p4dMv3P5qFj/ZoOvRs03qTndMzw6hyw3zpPuxPRgjyv6ELT/2e445jpcG8bLFSrjsKBOSINjwirsIJazvOeq5CNgTn2MuXl9/3EhW2RGYJgm52gHtQwqW8fjgrrTBnsWjyfYBoVE6tlJ1VponJyly5FXt/+kdtm+6+N//ke51/8dWvv/E2dRESJO3Jt9tXFXY5sqU7BYjjETB9LKrzKtA53oOFC5w43XsVUSGKcFAU2/q6Ags8eXtJDkIhI/ZiffLD3v/uL/FcZK/y4I5bwXbzKC8twGOW1XB25iFiiUCwR8EWSGxosW/1z6PHl//2nWf3v//W07+gLkIRJCM4I3Y/6Sn0H87usxdGF0Tw46u/QV6uGREuAi7CgeEmDhyaTRwfdTDPWOymw/1Xxjqpi5AgmSHI8wPHVrxS5iv4grkQdjOYYQ7FfC4qxwvh8GXheNl5XPUOQzk1i82T2G/+7mDphyf66qiLZDbpfPuDSa9t+c59J5xZ9mpYJEh2CUWLs1DGOtA23okxs3/S9JZee9dzVV+JZOVYmssqn/9L/fuZcvs6iiAZQntg4BsMW9hUYLUVBReN45Qwgm7nIEJSGEyEkVMtNnYuVrwyC2YHyv/p/f/56QbLsjepq1AESfsIorDi+ZIXFrvyXzaVM3AW25AzYsMD3BJYGROuRobxG5y9YfrBgcDZt37V+bD0E8mTLILs3LnThesDvh3cs2ePodpFN18ilOvrlWW13MRXoZwYea/muZGbktZi4gh9snW6dpBS3laKIOmEuYRhSlbbrz33ZwUxEvRhxOfDGculSdPPK7QvW1ld+HTbT/r/dorFKh19t/r3URgf1EE7Xyqa1M49XVnqceNZvUoHP5BiHkVad4pplG3cgTS/b2PGjawYDinnllxHNEs4Zm/HaVmOZLF0ntO25XNYtVa182ubPhI0w/i9RIDEp7xvncb8ninWSVnuITkKNpIgaUR/r/+kLIl4w5fATT364vwF2UuW7M7/xme8asqv8XpdU1ZMuSdigyYtit86wQhbNb/2dVNIM5W0idapTrM+tbIkNSRImjBQ73+v54rvlL5eYfipv4qiIvu6OVrlVlWealw/ObHKYCSp0aRnTQlenylKirZ5hlGJBLnVGRka/69JX0QKQaxW/p45Xu1O9Re8UxNJXCkK7fhVi/GR2+OSzMbADy2adaEIkk70XPbVD/QGerWvcaapvwqOY0pugVXX31R0qoGsH9eIFY88v9TUD1WzJG1ak5GCXP7eaP/lztHX9YIwXPKvQ5o4QnIrYOSX26F5b58uNfLMYlrk0IhLgqQTH36z+7sd5z3v3SCJZeLrYMMsTH4e5jETTD4efIBDcXZWbsPhPxxtP/1S76X2l9vmePVbNR3UlSS9gqb+QILntTe5Dtoo1JKu/YRHBnPu1OBri/Kcaxk/C/YKD9YhQuT9EAsFiCYR0Ozckv/k37raKhZ+mr0j22Hz3wKC1Gg6qj7V2Zog2kCTZtVqosxMjmMo82pvZLqPBElDcrx2q/lHudcM4MwSJDOPFRuciOZFMeYNIGwVcMU0OJFmRUXr35z7xbt9r/n7b+HNqtL8sicaCb4J14cz3ZpCEEUEt+75Ot0OgAN79uyhCJKOnN7f03jPC2WvOpFVoAxkzSjXq0eBPrsHXyxcCSFHxHHvhWvTl8zPtt4Zjv6gD/7Nt/BmbZ0ivdK+vh3Xx+fyTCFb8xSf1SDLsSOd+0hGC6LQu2So1+8YKzDbeDgLbbFqvE+U8MORdxJ+Q1l205fff+vpV/ILs5Rxe9+YwyiBJPl/PPVSosS2FMV1fPoD00zvWtXo1JLu/SPjBSk/XbQoZ74JwRUB+IYisSGBlCPrEq6XIMqIJ0p0iSEyXF6B/d7hfp9rDgVx64p1bWd3aWqT3QaWtW0KQRQB1mdy/8hoQSx1fL7Va7GIFxnYenNhU2qQPBFmM4c1C5bgaO7HMTFiTalBGGVfb3To7jV/90isJpH+cS5WW5v/62uM+LEPD1IPCeTQ1CuJCn0ikwX56y0bmY/XXGz2Zo8yjvZcBH1RCFwUtgoGQi9QXekC38/Ck+PD7wKfXpsvCsk7xwV4vUaCA7oOrz21JNXVkIoUHZq65UXSIQMFWfVU+QPzLNlfDQjhPkESI/lMVvWYJVAyHBz7wrLuMkv08QDEuwLgBzhwym5ei4RwhYB/H/w1FvmLIYjitWGBFIZHgj+bw7RKO0p7HSbfAyVZZElEp5pCudWoRIJkmiBPPFN9uKSn4DFGYOSOP3FcQzJJCBYEYRZNEIMSuI8tiN4dglSsGe2dlzDMezFi9U5caSiysXkj/VzgtZV/cuUhvPp5SuHC5Osz6jB5D9VWXcc3wkHNZ7hB4/dmjiCPPLdsf+kl52NKta1IIfyZ3Nl/bAdvY2F6SJZhSO7wbYC1hwebZYKUK8aaMmZvVJAjSVQEwysHRyQw0kT9EZQifUVleS+1vLm90P0HDckK4OadO3emXL89e/boz7FvNrBZniRyuDQCTefAnzJto0YwEkRH2p5qUu53/mnkcd/EEXE5bcK4HEXkyCApAzY4o3JaFQZzn4CgXX7s42L3LYxFGHnSiF+ILUNiJwa3js0nP/aGPMc7Pul/2Wzlqz/nzVE6rnK8oTKJADW6qGAU7Rm+NaRDBkWQsbt8NsciueNb5QhgxsTZhmbltgcMGB8LKUcEt1iOEgXye90izPksVo8vxTvsR8oR80nLGxwcb790yfe9jU/tV/YO6Xdf6Uc8N0qq+ToN7l1q0SxnugNaK+Lt0xT6HvU1ulko0njQhk1Nd0Xml+fwfLMtFhkE9ziYoxZw4zykBRG57gjfML2J4fGkby3+0/d/cvblBSswMamEsIgT53tbRsfCT155ZeyGU+Rp2B9KsW5bImExNjyJIkbJKhtYZZST+8OQSgQIiyNYGaqI1RrRiIhIUIB3xI9j/gvYZFuNfEs2BFs0Nhwpw/HCtys3vaeXgyBBbmsGev3/oTwWsw48FF4Kc9iEMBuBr2IM5WEHFnidCI+FEfaGIQQEMHJAORXqwtHhsxjsGo/2Xw50d7WP/WrV2OKmh1Ytfoa6CtUgacWJbT1/b32dL72rpOzrweIQO+DzgRcmaguzxwTGwUiXPx0bKnDaHFk5Jl4pxL3jgcCFwU9azp8ffq5vr/+0Mu2W7z7gvJDV+zp1FapB0mvD1IHjvtZ4/xNb5z34RkPPkf3d3sFsk4mrnJeTPbpz0aa1na0D3/7WxZ+ftJjYKt7E8sPDwQ98PwhfMPoZVIOQIARBNQhBECQIQZAgBEGCEAQJQhAkCEGQIARBghAECUIQJAhBECQIQZAgBEGCEAQJQhAkCEGQIARBghAECUIQJAhBkCAEQZAgBEGCEAQJQhAkCEGQIARBghAECUIQJAhBkCAEQZAgBEGCEMTM+X8BBgCF1YS2mmpiDQAAAABJRU5ErkJggg==;" vertex="1" parent="1">
          <mxGeometry x="-2400" y="1170" width="110.23" height="70" as="geometry" />
        </mxCell>
        <mxCell id="cCAjc8YfBACK6hqS6SB_-23" style="edgeStyle=orthogonalEdgeStyle;rounded=0;orthogonalLoop=1;jettySize=auto;html=1;" edge="1" parent="1" source="cCAjc8YfBACK6hqS6SB_-21" target="cCAjc8YfBACK6hqS6SB_-15">
          <mxGeometry relative="1" as="geometry">
            <Array as="points">
              <mxPoint x="-1849" y="1200" />
              <mxPoint x="-1924" y="1200" />
            </Array>
          </mxGeometry>
        </mxCell>
        <mxCell id="cCAjc8YfBACK6hqS6SB_-21" value="HAProxy" style="shape=image;verticalLabelPosition=bottom;labelBackgroundColor=#ffffff;verticalAlign=top;aspect=fixed;imageAspect=0;image=data:image/png,iVBORw0KGgoAAAANSUhEUgAABZYAAAUIBAMAAADKLJgHAAAAHlBMVEUHSG4Kotgvd7sHdK8IQWQeY5oTmtYJPV8DqNkAbaeP02rMAAAABnRSTlMAif1oR7iaGmPsAABgNElEQVR42u29S48kx5Wt63XCjKGaVUIiwZ4dlJrzlDJLVM1cSndFc+as8lCoZiJOi7jDQDMTiTMToe4GhwTUdS/q396IfMbDzWzvbdvczT3WQpNiV2XGw/zzZcu2PbwoIBX95mxX/p8N/wQEDacvf9rRj94fffET/WchaDws/wNtB02E5b+j7SCwDEFgGYLAMgSWwTIEliEILEMQWIbAMliGwDIEgWUIAssQBJYhsAyWoYE021tgf94/y7/Y+9FzXBFIKgZ1fbD8ClcEAssQWAbLEFgGy9AUWP4JLENgGSxDI2LZgmVoGiybb8EyNA2Wa2QMaBos2xIsQ1mzfIfp439Unh9qd9JG8AOAZWgYlp8QNo07YXSxD5ahzFhudoKEa+C3Szl8GcqfZWfKaPfALsEylCXLu2g6UsaBXzdgGcqe5e6UcUg4WIb60i9YLFt3mugY+IXqHWAZyoXljpRx5NUGLENZslwFyD226mBR7kuwDA3BchNAtz7Oz2AZGgXLBymjI3QEi3JgGRqC5WMw6zI0GGzAMjQKlvfw7SzSgWVoEJZfccoYh7Gie/KkAsvQOFjeGe7V3V7OYhkXBOqH5U6PbX0JI1yUA8vQECx3hojHaNEWIpZffP50Ath3eIY2FKWdAV1onNb997UnYRCKcg357SGIHIJrdhnjyZHda/Mb8ttbXAwoShXZQ11/vf3zthCy3DIsHILIwaGlWuhhyrAlb8DYzS9CBqQUMUK9vPtvWw+F/qJcTccegsgRI+SMbtQWpeQOOHpDBGbIp7tq1ysiTP7RnxN0W9ZCli0rW0OnqZ9oJ8wejLe8w6/GM35r2SPGroDuCRmMh1FAp8my9cNFgrIuCt/gr6G/pMfDX2DdBlj2s1zSE4GzJNf400lDHPn5PRwsg2U/y8fwNOzge2/lpuUPGY/frAHLkJBlG7TKIMuP6cJ9kBHjFS1YhoQsV4yhWuVJGL67wFJHft53B8tg2c9yQwHM2//XHVQTWe4CtwHLkIhly0Gv8SUMT8pwem3FCddgGSx7Wa4YdYduJFtC1m4YN4cFy5CI5cafGsIs147sTGHZssAHy2DZx3K31ToygfUO/Hwpo6KO/HwhAyyDZR/LlgOZpfxkJ4mmiLxlwDJYDrHM6vwr/8DPkzLIr+cbKYJlsOxh2VlgaGh/2AVuV8roZNlwRoRgGSz7WfbsEyExVhPttvOecb65BcsQm2VnLbcTvpJiwd1+2zDqFa7eAiyDZQ/L7oU8LQUx14EYJeWNPCviGrAMuVn+b1bE6PwrS0oY3YxXjD7B9Vc1WAbLd6pbFk4d3mipY7eOvzH0kZ/jHquWfwDLYPk+Y5hlSY8YXaZb0RJGZ8rgrO3s+mBmWSFjgOXnvHxIs3cfXnCNvvX9dhskl7Pfe0sy8jJY3hv71W1JtcZj2w0+zcHzt0d3hvdO2P9k5iEegWWwvFfH2I3N/v37R6SXtIHfw1+Xfhumn2X0dP+BZbC8X5MzTzSHDm/zWqsN/PKhrTf0kd/ej+/0JGAZLB/Wlx9jc+iMoNrn023o3Q9orRgjv+e/r3YTPlgGy8dzJfeIhM5uO/Bty0gYxz9iGCO/x/e+H/KBZcg777ftuoPHXbVOZzWUo7JatxEHE8rmw5n64GYDy6er39wfVvXtWeeDE+plgKfZlXVaaUt5/zvgH4/M+uLb3QO0vj8LoVgdz+3cn8H1Oc7gOl25LLSu/SHjs++P9d09RWFbfUwZs+8d+mvgV513msEVPV2V7l7ca82fuTB8ZaiHcbZClrd5HixDVJbvRleVh2Y3yzX1rU0pYdl4R6Y4oRksO5jYnwkksfx5SX7vms/yY/HCwpchYl7emY1gstwy3vw9k+XwTA58Gb7cFTEe+al4GYPx5pbHMmGGHb4Mln321jkIVGGZlTFIK5/A8gmrovxpxyCwb5Yr2opUPGkKLIdS9NEgMC3L/8cx5AsGfbAMlsMjqINBYJ8sd5BM7FCgk2e5+6SsPaL6Y9l0l1IsI/5DJyFDihjHg8DeWHaWuBuwDAVZ9jzG4Ynmnlh2T9awzoaGTpVl34TDY4ffC8veJSEWvgwFifCb2z3NPbDcOeQL9B5gGb5Mixg7g8DkLJs6NBvesG9D6NRYDq9p2PT9qVmuw+s6LHwZCrBMqdFWf07K8t9aApRd/QdYRl5m99P9zvtRQ4YBy/BlVsTIheUKLE9eLx42cP5SxHI1GpYtm+XZxZ0uwchY9AvG9nojLAXkwPJxOjaslsFm7YmxXMq6abAMZc8ycZdRFixbbtYHyyfFcjMilo87FbAMltmVABWWi0iWj248sHzKLB9mTupG5jxYrpAxwLKT5WpULFv4Mlh2skxdnPOnLFg+OoQcLJ8yy40oYhS/y4PlitergOUT8uVqZCxbsAyWHSw3I2PZlGAZLHfSS1+b42T5vFeWD26+EizDl4ljp/xYtmAZLHde/mZ0LBvW5wfLJ8MyY/lvLizv4wtfPmmWK3dVYBQsV/BlsNzBQjVCli3Hl/8NLJ8Ky80IWd770AGWa7B8KixzHpCQD8sVmeW6RMaYNMtGFDEyYtlSx66b5w7+HiyPTF/uXbGGzHIzSpZ3n61S+lEGyyNnOfCQMkN0tWxZ3rkFTQBlsDxyll/5n+lrRXHZzTLnmWjO50h9x/kolsLy/dNgwfLIWS5sQ/LlRoXlN/SXMdcqLD/3JyaAMlgePcuF7xHVRhQxPBmD/AzhTV1BheXnm9AGUD5gGaSMkGUfzEYUMTwsm2tqNmgKHZarkC+bx+ADlsemjitm2mDarJRY9keafcB0WLbHt+Pssgvl4g9fguUxquy2pjs9nji30eeP//Ht5p8LlTrGkpgwdln+bvPuXzx9qF+SP8cftr/X9TlcX50fp6DB1RRumON3Uc8uH/X+N2e7uhvT0RKGuyCh0D94UAbL4/bl/WuqcyKAs/xhw6x0hR4JYkGWtd4IyseX966qIsudw8pwyqg7cDLn+ix3DxTA8rh9efe6arJcEl03lDAK0ZNzAiw7PghYHjvLz1dWkeXuPFEHaGmLflhuC603goaT1y81We7+Y3/KWJT9sNzS73NoZCw/Xt30LHtThqsCXSmyfO5BGb48MpYLj2EqslwzBnf+hFEUV7ost5z8BeUrZ7F2qcvyle99WAlDVGD2sFwXYHnavnznpIosO83POWMya4o+WPatcarAxyR8edv9K7LceN6Ga9iaLHsHn2B5Ir68oexPeiyv3X+15AZpwXycbH+LAR9TYbnQY9m7NLphFjgEE39g+QTk7Ub1MoYXv65B3lIWWHRZtuADLB8P5LyxYMlJGD2yDF8elcp+WLa8BBJYqAFfhrhY9MXyUcpYRnQm8GX4MocAbZYPys+hJUdXYBkajOUQfXtLL4JLQeu+WC4ByFQyhh7Ll6Ef2E0ZwSX6FixDWr58rnrLHHhxeOsUWIa4V6tHlp9TBmFLqy37YRmLi8CyhOWnAd8y9lMrfhMsYB4Ty0UvLFNmnR9SBuUIGMNm7E/wZbCsw/KMAsUdxbSjudgsfwaWJy/bD8u0wdq2lvGmyIllZAz4sozlTcogHjLX9sQyfBm+LGO5sC0R0kqN5bZUfR8oT1829Z+1WKZOOq+IRlirsXxZLasSLE9BzotlttdYzZcvaT9mW+KhzFaN5S3HVd1WYHmqLFftXd+rxjL5qGViXtZj+eGbVHXdZc9YXDQidXWvG5sqlfMyjdDtbAktPbAn/ghjP7O5gSuwPCGWzW5/2y/LjPqyScBylz1jMX42+jL4PKTmAOS6SlHHIG02fZz3o2DKnvij1+TM7mCw05d3n41xdyg6lAXLpeMi6rJMmvZ7XPVJevRDOpaL3cGgDbGMp5kMw7KXiYfRXhqWKV01Z51capaf0oYBy+NhuTwY7Q3Hcrs3BKT/dCKW7weDywosj4Xl7RjKOKurfbLM2lfCL/wK57BNV60OLOfJcnUw2kvDcnjab8ba78ef+JOyXN6NI/Z7LbCcIcvGO3+ryHJ42m/fisMpw/bD8uPYeG9m8EuwnBvLW5ADcwFaLAdHaszzMfgs/ymO5eK+XlmC5QxZfihbWCHLzDLCmpMwSLUMJssz6Sqp5mAwuLVnsJwRy8+jPakvL0vW5wihzz1Pjj3xt5SewHT0NpsBxl/AciYs783tSX35klUTC4HXBW4gZfCOrV2UaiwjY+TC8na0t4eEkOXSclJGYNqvs2wRmqXmvP/mw0pZbsByniwfly0q8dhvwejkLTdhdA0H5Sxv7xX48rRY7pjbk7NMWzZBYZn/vBImyzFPxKpCrfojKBu6juGxHSLL5lqHZefEiD9l0Cf+7u4VsHzqLP/h7Enfb//Zq2RRlk0QuBM8328r8rG19/fKi7Mdfb7z3wVYngjL9J66ZZcanuWb9vMtV27lGdz7KWfku7BzcAyWx+jLfurJKcP3DKlrf/0hmuUuczdg+aR9uWGyRnyXJRtEHsudH5FRnLZg+SR8uaAW5hpRwvCnDJq3dg8s4csTZNlEsmxI03/udwkvu3DeBjRvfVNyOwr48omyTEsZ7qFW+CBEd7GE8s6uj0dnGb48Gpbp1/ScnWjD0ZZwJ7idn3JMc1uAZbBMdvClnGVSHcTJO4HHZRHPcgmWx8EyfRWwMydQni7iyg+kd3Y5fyX+Tc7OV7A8PV92Z97w9F8lThi+oBCc+PO8/iW9CcHy5HzZCnpyPzmGao4OJmvhPUDzdLCcp2abZQffdi49MBosB1NGI/Tzp6zA/UTB12c8g7hxvPfs4l6X4Ktv2Uh/srLO3IMDY/x1LWDZ+/qMEwnKSF+H1GXKdCw/D7J++/peyz19tfnnYkeshLHD5YMRVveqH/+j81gEf2dhI1nGI3kGVZOQ5ae6wCPLfvESxrOPvqO8+FeUEG/j2g2PFh5WFdl0BL3y45kAZJYtz9nuXZbBcuBWifRlnMqcYWBu4m6Fo4EWmWXu0YZ3a5BILP96995SYLlCxBhHYC61WH7o06kscza+Pr8+meVgGLdRXxwRI8fATDeYUOnpHh8iy5ZvbNuUQWY5GMZNFMuIGDmGDPolDYaCO6sjstxKPn5JZjl8q8QtYEZFbvCQEcVy2EnfkFnmJ4z7lEFkmbBChLGxxCAujyJkGE2WtymDxrKMBdMSWSas3DMxi/ERl4dXlZblbddOry8LVJNe/Nck149ZwIy4nGNgZjyJkXLx6zIpywXpxb9qC1WWbUQwg5IF5jLCYUgXf5kDy4UuywZxeRSBOX6L1MFPvR6e5V+nZhkRI8vATL8sxGT9biwsR2wsQUUuy8Cssa1kT78dC8uVnGVEjCxDBlgmqBTXfqAeQwZjyaciy19lwPKVmGXE5TxDhtby5fGxzNhY0iAu56jD/rE8WZblC5gRl/MMzA1Y5rYZIkamgRm+zPZlA4jyDMx0X67BMiJG1iGD7svEEc+70bAs/OqoyOWjUsjy1cRYlm4sQVzONGQwLuglWOb0T1AP2ruGcbvexs2ycGMJ4nKmgVl5+fKoWJYtlENczkmVLPxNjWVhaR1xOdfAbMAy05cRMXINzPBl7t2PiJFrYIYvM30ZESPbkKG9RWpMLIs2lqAil23IiNhcMXqWRd8dcTnbkAGWed8dFbncVAlGMrPJsSzZWIK4nG9gZozlJ8ey5IklsOV8A3Mp4H8qLEvqkYjL+QbmBixzfBkRIyv9ZvOUv7Pvzx707dmTpsPyv+qw/Junpvniu7PvdwSIMtEX3zt0DpaJLQWIcme5PDmWA9/4d2B5rCwrVbDGw7IBy9nm4PMcWK5eD8/yV1U5FMszgKigL3/alT7LhC1S1eVy2eZQx6jeLJdhnkMrTCQsU68CNCTLgRnfLT5XVT4Zw1wFeQ5tLAHLU2W5IXCcPC8bVl42AX9OzfKPoFKmnwZheYPLallVfY39DHvs5+MZLIPlR0yu6g5MMmP5mecKLIPlrgvfzXGmLLt4Bssnz7K52pQrLl0xNFOWn4L9Ds8tWD5Jlh8G/X6Oc2f5gOcKLJ8my2VRbTkOlm1zZ3mHZ7B8kixXb25uWtKmoneKqzJTsXz/jVarqwosZ8/yj5osb12srUvi5xgLyxvVe4VxsDxxlp+utp0gy3bvG4Ll6bJs9q4yeUfF2Fh28wyWJ8HycTV20iw/JakqjmVT/QUsa7P8321dVZWM5c00yOp4GmTyLN/xfLnLM4dlU1V11VYVfDmJLz82b8lgeVs+7p7OI7P8ekQsd33RZ55pLG+aecc4wHLKjFHttbWHZf80yBRZdi7Gv+f5d4HdZOagZcFyP3l52+73Ju1k2T8NcnVKLN/z/GfnLt+qg2Kw3O/Ybxs7/iyb96umyLJ/Y8nvBHc9WM6yJrevyymy3MhYPkdNDixnxnIBlk+S5QYsg2WwDJYhsAyWwTJYpqkFy2B5IixXYPkEWTZgGSwPID92QpbLKbJ8pc5ysTPbP7sEi2C5L5brFCwbEKgnk4Dl2SRZtilYxiNNFGVP3Zf/N1iejC+X+izTHzpz6izjaZb9BebULFfPutjq3cWOllu9/mr5Xsry8t3r5b1yZRmPmlJVNSTLh1odv9YPEd9tcXSjmuvDu4jsjP7N5TKW8fD3/gKz6wJ9l4jlZQfe8m7Y3BROlrXT2GeupmoQl7MoZNQZsGzl9C2aDFh+4+MVcbmvwGzLL0QsX4k/y03Hn91KL7i57fhDeWTxbyxxsnzuySaIy32xvJmKlrEsT4FdpC2kVjq/1mW5kbFcuE8kA8s9hQzTFkKWL1VZNjfSgWRJdH6Nio+HZTfMGPr1NPhri95Z7k6zC9kIqTtoLwdg2Tn9jaGfti93u8Zd+8tYbnVZFhrzqsmGZUeLYKakn8B83y/KWBbbjVkzqAy91k2RD8umRVzuRVVnCaMYgOXZmpEWAnIkk4W8nVo5y90wg+U+AvPjmL1nlu2aMYoT2XLxte49T2W5swqCiNEDy08N//nZgb5Iy3LDGcb5bdnxK4tELL/YNM73Zx066Okw9Eurw1Y2bdTQzqizLJgvcVn5Qm6GV3Hf+6gyh6FfD4O/QNmzDl3Tc+kHmbtoWKy5r+Ry8giWQ997Hvr9EnG578Ff6JrNmmQsO36zurq5rFgQOhN2BMsh9lrmzYCZkuSBOfwQqMBFm5XKLJtP3fq4PNT7h6XPbz5u/sW6XeJZJkSrFnE5tfaCG+EZUJbxcrwBW8liOaCeWZ4TXqIFyz0GZsrALfAz8hzYB8tNKpYps527o2pswU5cyDCk+ed2vCzbCJbL+OrNzk9h6Jc4MNOWUswTseyYyMiEZX92mhNfpMHQrx+Wa+4FUfblHlheJ2KZuqDqyd0Rl5OGDPJzrNs0LK/Ss2wiWPYNG2dkNB8aGTMlSQd/5MdY+3GtxR9jmZ7lWQTLjc6XvocZcTmRKh7K/sta5cxyxOZVbyrgrNmuwXLiwMxaRnGVhOUf8mZ5LcwfneAjYiTSJrwZ1m4Qn4dfTpXlRitXbdsaQ790gZm3sck3hFLeIqXLcpGGZeZ3Ni2GfulY5g7YalmsHJ7liDO9WlE31f2VlmAuldjLxzxXb7IsV4qlm7oEdInGfvyLsdZn2VUvU2U54oCMK8Wv3ADmREO/hh/f6gS+3AfLywQsWz6XDZw5DcqSYbX7+qlvXc2FZasXMbbeUYM8fbWFpCjsChnybSWudT+qLK8SsNzIXgowq0s4DVWPk+WFPsuCiFEFCiOQDOW7K8FfGe66ghFbpPpg+Wt9lgX+2jyFO0gbZUk/2aqz7HD0maovl+osC5YrlQVgVlfEctqamSpHz7LjLhVEDPtcQQKCaiWMp7bkhwxHMFbfIpUNy74TUaUOb0tAqIRyG4NgO0aWIzZiO25eQcSojjMeFKk2aDr8kKG+RSoflkuliLEX6ACzzrjP1b7cgKLD8teZs+w4qTr2pkCZWbGEcdTvRYUM+aXpxZcjNmJ3syyIGJZUEIIEJQyxn84DWZCp5RhZlkQMUwDmRCUMaSGjO2ScGMu1wuugzKxWwhAH5k5DkW+RulFl+aOD5bUuy2uN10GZWauEIWd5Tg3RJP3QB8sRB2R03aaiiFEWgDlVCUMcDrouQZM3yxEHZHS1kCRiWKXYfZJ68dOu/u64BJJiWqvIsnOLtK4vR2xevdJx+cpVVJodXScoyHJnfV6yNXhenhLLlY6ddrfQ5pqAZT7LDmoFFHaEjAmzbAlOTVDpin1gmc2ya6Ah8ZgrPZadSVaV5ZiN2FZlyObMci1Y5rL8ny23kX0X5vAGkG8rGSHLoojhbGbzHixzWS4UWT5yJvmBPLYflm8UWRZFDHe9CL4sqWPohYzDioh8W4lzRk6XZcWN2LKqcAOWe2BZlP7K02H58LvNJd/V03GBZT2WRUsp1goR8p6M7Fk+xFA0xelJcmBZj2VuYL66qKrqTbWrUn+7nzLLEYcKHIxrZRHDgOU+WOaO2377mqCvyCyXvbDMOFTAHj7X9avlxY5+e/eY14rZaA1Y7oNlbmAmsfya+mqLflhm+LIlfb8GLOfIcnkKLJeDsuzr+8CyIst2SJadnf+kWPY1MVieCsuLk2C5Asv9sMwc/OmyvOqHZcZG7BQsN2C5H5aZgz9dlpcnwXIJlntiuToBlpshWTZguS+W7YAs3/TDsh2UZW8Dg2VNlnmBWZflH0bKMmuRawWW+2KZF5h15/36Ynk9JMve9rVgeRosuzcv6bJshmTZ2+9hLT6b5f/ytufkWZ4NybI3LtcvwDLXl2utwR98WZNlW4JlNsu+48tYgz9Vlt1+aXVZvh6Q5dLb8mCZn5d9C2+boVg2p8Cyp3XbAixLxn6es9iroVh218oGY/l/abNs/O0Oljn6zdnZ2bbta5XA/K4flmsZyyW39peeZesJy7vI3y31PweuNINoNQoZqix3zi2b6s3y9v/Kzl++vVlWVV4sOzs9nPMZA3OjEJh1WT5kwlzVq9vb2+V7oS9fvbn79fZwE9PNcCw3nrAMieWMzFmwXF0uNxzeLC+ruLy8tfXbA4Ne5scyHr8TCXP84E+V5cc18g92fPP+yU8jx37V1fLBoIdm2VDCMqQXme2ALG+wu91id1Ep1zHMg0G3l6V7zX9yli3Ccr+RmTFbosmyWSzvaHt/WerU5P553OPcG/TtZTUQyxXCcs+Ruemd5ccUcNF9sbVYfjDo20eD7p3lBmE5marIwKzB8uPo7NLd9WuyfBdmqov7KFNVvbKs9wxiiBiZbV8sPxXd7kZ5PbJ8/+aOkl06li3CckqYy6FY3iu6BcoLSVi+/xQXxyW7nllGWE4amcu0LG8i66pjlNcbywfn1pmnkl2ZmOUSYbn3yNykY9kzyrvpjeXzrhHhg0GXCVluEJZ7j8xVEpYfeXnvqCD8MCDLe/fZVZWGZTxudYDIbNVZfuzH33tuk+veWPYAtDunos2yRVjuPzKTZ0toLB+N8rop6o3l4KECj7OPV3/U9WWE5QEic6PJ8uvHolsxFpafSnb/ocpyg7A8QGTW9WXip1j3xjJ58+ofk7KMsNxHZLYDsDzrjWX6RmzVvGzEQ2woIjIPwbLtjeXZMCxbhOV+YJYN/lRZbnrz5etBWK6EA2yIqVY0+APLDJYbhOWeInMjiXKaLM+nznLpMw9IUfv1ITsAy+d9sUzfiK3JsvWOUKBkkZkY5sCyi+WLqx39YXMoydnn23+dnXc5B5QmMn+/p+/OHvXL1Cx7Hu80PpZffO/Qq3urQMLoIzK7LsL/mRDLy6FZBsq9RGawnJ5lhOV+IvNgLHseuZ45yyWTZVSWe4rM+iz/mujL/bG8GpRlhOW+IvNgLK/6Y3kxaMbAMoy+IjODZbN8rcjysj+Wv9ZledlyWEZY7i0yk1k2m0v4rh+WX2r7cqnKcnm1rMgsIyz3JyLLpl6Wuhnjh/GyvLGAZUlj+VcIy7mxXN+U2nl51Cw/3Nthlv8GwvJiuVo99KmKedm34Eeb5Tl1J8gfGXUMs2rLMMt/BWE5sWyexzpgebcmt9MwgXk/KAuWNxfs2X7GynKThOWieBoEguURsLwfCxVZ9m1c0mbZpmL5qX2QMbJnub7ZLz5p+vI0WN4MArfDYrCcOcvV0aSAIst2IizfpzCwnDXLpmN6S5Plpj+WyYcK/FG2HsOslmA5Y5b/1nYUZbNm+X9E2VyDZc/0KVjOrL6cguV5jyyb5CwjY5w0y+c9snwNlsEyWAbLYDkk3xoJsAyBZYd+AMtgOSHLBViGpsHy14zPaKpDXRxpufSsFL4By2A5HcurPr/kEiyfgMxQLC9zZPkdWB6xZvosf5Ufy8ROwP4HWAbLoWstj7AqIh4qsIIvj1jVMgHLJEx/6PNr0gaai2v9vPzvSxyP0UtWrusqgS//etXkxjLJl81tmWLsZ+q2BGupLXn7EL4ULFuCMdPPqldhmULTopXXMWbejFHBnJNaclsJ8vJyq3fBOsbieoQsb+/ARCxvaG595vzibFeg814/7eofHkuWjf3udbSCcn8uo9z21uNjeZuMtl/kqmMa5kGv7/9HwPJ9oHO99S/2Lhu2u3aw/KPLkktpHePewMJghI2Z/sw9DREOFSD0JcWcXw76a7eFgOV4ls1hewpYpjxzcbWB5+XH5aHeP3ndm3/e/+/l4ex05Dip40037/L2/Z7RVsdvSuhKfM81m9Fqco5xIFjms9yR2mb8wijFUbfhU32FEIll4ZsuSJmnjWTZYc5gmclyd2Djs0x7JNImfY6JZUubupnHs9xlzmCZxfJ9BU6DZdpjnWc3Y2L5nyvaqQPOkMFsxgNzBst0lp8qcBosEwdti+sRsfyROnPTajXjnjmDZSrL3ko9+yJQn7pobr8ZD8v/H3XEadUsYfe6gGUSy6EZVPZFqKkfZfF/R5QxqC/vChkz0dqix4sDlsMsm/DkKfsi0OvCH8ZUx6Cq1WR5aw3bKwSWgyz/F2FRC/ciMB7s/HKKLFtllu8Kpf8GljualDDvF3cR6uK0WXaEjFnM+mUDljv0IjnL6xNn2REyolhGxhiEZUbEmCjLNa8Z/waWc2W5Lk6dZXPOasZ/b8ByXyxbHsvrk2e5O2S4LaEGy32x3F5udbG3GPxsufnnVWzEmCrL3XBeXG30/vJRZbAiDZZZLP+dYMslC9m6AMvu+3l2LmwzsKzBcsspPPEiRvHNNFkunEZrmT8PljVZdnnMFdeSTonlmmcMzjUcYFmVZdeyr3kZHzEmy7Lrjnb2Zg1YTs+y0zEcl2UNlj1sztnNDJb1WG54hs2LGNNlueZ1cr6/ActKLNdMx+ZFjOmy3H1Pe4pvIRP4EixHsuyrfHb+3RosexrCCsYlD439F7AcyXLNHBUyI8aEWa65vPqbroUvB1n+T7Etdw5kmBFjGJZ7edMuNP3N6Qf993uX7Rwc32lvKvpXjdiWuy7Nuhesfh4By11NMS8ldTzKyBAK4RpaJ9DGRowps9zRsJfM5pS362nKx2soMcxjI8aUWT7mL2QNbmJhy7HGHFy+dfQDa7D8rIbtri1sOZUxhw+3bmPbfMos1+xey9V+sOVYYzZhMm1kxJg0y0dkrrneAFtmq5Ha8qGnr8Gyp8MjINltH7DlmFEK2Q3aSP+YMsuHq2IpvVYFW45UK3aDOi5iTJvlAwgpvVaXMcOWY42Z5gZ7O47Xk2aZ/6b7IYPWoFVoTALxjbll/6akL5w0y/shoxbw7xnNQGRjpoJZR0WMibM8FzBZw5a1jbnl3wVrsOwx2VnJ/52CdtwA5B1z0PNCEzXcnjbLu45A7rVqdvED8o456GPnOqrVJ86yFbTonhPDliXG3AhD2pMdr8Gyp1XNOd8dYMtC1dKxcxMRMabO8rMbW5GtwJajjbkW3AR1AZY9lYxWZCuw5Vhj5rnBgyGvwbLHIVhN+vTDsOVoY2a6wVoeMSbP8qMfz0W2AluONWauG9QRzT55luf8iPF0BWDLcjUyN7iz5DVY9mDJpdLCliN1nxP4btDI1yVOnuV7R7YSW4Etx6iVuUEtt5Dps2z5EePhtyoAGWnMAjfY/NoaLHtChqBNG8oWNchvzBI3aMRbH6bP8rZNBc1jS9hyrDGL3OBCPEp5O32WF85HCPhvAdhyrDGL3MCuwbI7ZJyLBnErsBxrzE1/v3UiLBetJIHZEtv8BvHl+gose1pHksBabL+Oz8sSi13PS7Ds1GwtuRDYfx1fx6h7uwNOhWXJaKItcC5GrC2LaqG13EOQMZwXAsYca8sSY17LdwufAstrvsG2O0RDUlsWGLPQzU+F5U3zNKILAWOOtWW+x9YRzT4Iy/2+qWC1SnvANMQ2kMf/YNrI3dBm3idWzZhY5q8ifP5xzGPLG11iB9KVoifC8t0ZL7xKxnMfh/VF4r7wuDHpv9eCZXfz1HxzgDHLtWusLGN+8Jw5WHabLKtB9856gTHH2TLLZB8vkyxkTJ7lh2ZhhAzrviwQ25ZZPlKLgsnJsGzZSOJsRFVb5uS0dbefgOW9O5xuDnXg/4d4tszIac8XSeQgU2f5qVEa4YWAMcfaMt0OpNWPE2F5HtGeMGYVW6bbwTqu0UfEsuhNW+YIpKPZYcw8VYXQDnYvEeNY1lNheYdDWiWjLqRXAnKnY5odSCt5J8Lyznj4UmjLMOZoWybawTrSQCbOMvcpW3UhvhKQp5kpdrD/m4JlXdNmebcJKc3p+BkYs8g9HB0k0UcasOy+1a/YzQljVrJlEprr2DafNst7+Ib397r9F8YcZ8uEzHD4A/yQMW2W17ykUFPGkJDElsOFiTrg0yfO8kHLhlrTN9cKY46z5bDPrqOD3aRZrnnm6lsDA2OOtOWQlcifon0aLK9Z5Qj/EhhsY42z5RCbNcGpT5jlo8ZrxbaMbawOXTzrPNR5VayIwQ8ZU2b5qC3mMbC+37lo0KN+2tU/5OORrtbn2seUWV7Ta26EEPGLvcsGnvks+4y2VhhwT5jljts6YpgNluNZ9njJmsn+ibHc0RLziLEdWI5m2Q1nt5MwQ8aEWW44xhBuNrAcz7Kz/WuGWzv1YbIsz0qO+4ZLbmA5nmWnMTugvQTL7maz8oobWFZg2WHMrubnhYzpstxyOjnCTAhYVmD5zkxmV4danp2d/ZI3WDwllh3N0Irvf7CswXLRfu/Qd10/fQWWu0sWs6P2O7vXK8oENVhWYdmyWJ6D5W4Dnrma8W8lWJbJsFkuWCyzQsZUWe5qBCfLfy3AskyzxCyzlnRNleWuzgksj49lC5Y772ewPD6WOSFjEJbTv2lnE4Dl8bHMCRkyrM5zZ7mzawLLiVn+L8oTsJksz0+e5VabZVP9BSyHWP57UbVtqcsyI2RMk+XuBpCzvL1E8GUCy9u2WlZenL/gscwIGdNkuXseT8iyqe+6TrBMY3nbhy0rPZbJIcN8miTL3VOfIpafrgtYprJ8d//XlRLL5JCxmCbLayWWq+Vz/APLDJafu7NolqkhY3YzyYzhWCrEZPnAW8Ayj+WtFdQdI0E2y8TpklUzIpbpz3hwrPhmsXw0hAHLbJYfRs2RLNNChr0Z09jvY2TEYLDcZShgWcLy8UiQzTItZKzOx8TyihoyXKuRiSw7xi2/B8silg9blM8yZTv24npUNbk3N3ERg8ayszwKlsUs740E+SwTnsNjbjcXrXrWxZGWn5b7+qDD8vN7Xu2829t/bv/9Zrl0vemCOKJdi1k2tXvaCix3MXS3l4HA8nNw47NMCBlbWw7ohz7bZd5Qbj55xAixbGpfib/4w85FA8tCE9uMBFks3zvbu+XyyGcvd1x4U48rMmP5nHb3mfsvULLjlZdlwkoCSANn1nqM376mqKAMpZZ5sWxWW9z+6PpKX91nkvv/KTksu+r6kL6+0GfZUkZS/bIc9sW7D/1H0vfjsPw3gDxqlleUxLfq80suCH38tjPRZ/mvIGzULF+T8MqN5a0xg2WwHLzWx/o6N5a3wz8xyy/A8jRZ1sNLS6QbZ1OXA8tgWZvlw9m7j0ezHO87qoKxgWZxDZbBsoDlOYfl2Olv4kBz9U76/cDySbN83iPLxAKg/Q+wDJb35hVoLDf5sVzAl8GygGXbJ8vUZXB/BMtgOXOWfwDLp8zy921iltdgGerJl+uONTSKLJs+Wb4Gy6edMcyqnQjLhsqyuE7zjYvlVyAsj7xsDleQa7J8PR2WzfJbsJz92O9gY887sNzB8iaNvQDL+dcxzLJNw7J3PKbM8mydkOW7FgLLo6jJ1Tfl2Fk2CVm2d0NksDwKlnetWZPlm/5YtulYrlt/HQMs9yjKfr+rxzGgJsvLHlluErFsHuuWYDkD1bS9qw9jQLC8x3Ldor6cj0xDnMO+LzZrsvx1fyzPk7BsVs8VSyfL/w7G+lJLX4+xnQfUZHnRI8vnCVjemxd1svyrBpD1o4qztmgzBlRluRwzyweTou68XJfArA9tj5TirJOrX4Ple5YPF6t4xn41OOslLBfMNZ99+bLy4yHI+2SpLB+tVPGwbFqQ1kdYHpJln1nmzbI5XkHoq8kZROb05bgCLItY7jBab30ZkbmPsFzcn5d6cVVfXO3J8TuqLDe9sUw+V0a+N/ex/c4e9e39/5w/uwaUNCw/g037JU2W7aRYPtKuFyMy9xCWO1u+L5bXvbG8GoBl6zYOKEVYflLTP8umP5aXQ7OMyJwyYZS+/7cXlmfTZvmgSRGZ+wnL5Lis68vXk2b5oKtDZO4nLN/NZU+Z5R+GYLny2wekFJbLQhSXM2e5zIplG2p0SEHHT/YagmUfYVNg+WgMgsicICwfRTdTDMHyTV8sk7dhq7J8ZBCIzPqqgt1hPywvT4xlROb0YZk+9COe6bpsLyuw3NHbITKnLcdx4jKV5duNwkCv+mKZfDyGLssdvR0ic9JyXEGfKaFnDFO9CQO9mDjLHc2KyJw2LDPiMi8vm+rCC/TXfbFMPh5DdzzQ1d0hMqcsx3HKGIJr7QHas6pYmeUwQKa6qper29eqLFe00QqkFpYZcZnG8q87SOkCOg+WTXV5n4dul8sLXV/u7O8QmdOF5T5Y3gP65hFoz8aSXliuqsuNFW8/0fL9ZVWS8zKZ5c7+DpFZqRxHHaOkYPkI6N5YPnyjh0BxR/H+Iy51We42CUTmZGGZM/SLZ/kJ6NWuQ/fG8k6geH9RlbI6RiTLiMzJwjJjpkSL5Qesvr5xAq3PcnV1dRgoktcxXINqROZEYZkTlzVZvouxLodWZHkTKFbdgSI9y44eD5E5TVguyHv9tnqtyvL6IHIsq0qT5VCg6MGXS14PCcW1Kycu67K8t+FvH+hIlg8CBfl4DG2WnV0eInOKsDwky9fOQaGU5b0KxZPLk48UUGe5YneSkDwss4Z+qVl++EAXSxnLrkAxHMtOn0BkjgjLJbsfHIxlcV52VShWg7FsBP0kJAzLrJkSZZY9W5d0a3LLwVj2GAUiM1Vnu3rl69E4cRks67F8F5lf7F0nYNul2U+7+nst6gaTs3wzfZY9g5Gtwfx+7zqB2zDL/1XKnCM1y8ueWL4ZjmXrLy2BZbYvF3myvOqJ5R+GY9k7GqlLsKzJMmvop8zyYvos+62iBsuaLLOGfsosO+u+RpVl+jbsBCx7q/fmL2BZkeVqQJadc8sTYtnvFfBlTZYbsAyWJ8JyOX2W6UcKJGDZ38BgWZFlXlxWZtm5SUrZlwdluQHLJ8FycwK+XIHlnliuhmTZ9sOybYZk2YLlnlhuwHJilr0FfLCsxzJvpkSd5fUJsOy1C7CsxzIzLiuzbJRZ5sbyfliGL/fky4OyPOuJ5fNBWbZguReWm0FZdk5igGUoOcsXWy0v7v/nQe8e/2OZKcv0bdhJWPaFDLCsxrIRvfg6bvy4ox9yY3n3M1RbtdWzLi7e3d/FzFdqwHIPLFvJax+eSjebJstdHMo2nLpr+FgnR9ALGsuV5LUPN1yZc/HHvOmF5a/l7XgIr+gkAM/BAl+CZS2WRTZz9Ng6ue0t+/HlCJbP/X0S7UVcv9QWYFmNZcmVkT+0dSiWY3y5LBRCRuPs4MAyl2XX3lVRXH5T6LG86oXlpbwdj8YCorOzupt/e0AGWGb7suNcEQnLHc4kZ3mRO8tHnZAoZFgXymBZkDHqhBEjhuUyd5aP/mStxPJ9O4JlLsuvHH2jBMK2GB3LN5osS0JG10Mr7xttj+UfwW1nzts52enHL18VkY9b9Q9+LjNn+QdNlkWjv+OnvD9cjt88X6XN/4FbIoStSlyed/xZJf5QrpUSGbMsKjFX4YsBRcEsYbDrIlzlzTJjGzYlUcwVbgmgHAtzE59zO3vYCF9uMme5IjYBLzDjUHx1mAUXpSb/Ic2vRsiyyFT3vidOXlbQfj1NskiupZacMmJ5tpa32GWwFfksA2UV7TWjjb0Z4ll2YabryxEsd967gtczcbcCFIBZEHPrQpdl0wfLMb7cKGUqGxW3oRCNjdKljWH5ugeWbQTLa3rvRBv8oRqnqNYxtpZHjIhesx+WI5ywoScP0gsB5SQwC9y0DpjOqbAsCBmVvAYCuflpxSyvtVl2TcmpsjyXs+zYMiPIvFZ6E0AEmNUiRswmqV5Yln88113Kt1dzVEaCVGBuZEO/2vt6IjmWY84yYdm1LXfOh7IBykm0NVh+MHAjmzfLEduwXSwL7t4GheVkMPPjstuM1DdJ5cKy5XZRHidAYTmR6pI/U9IW+iwvRsoy32MtShjJYGbz5/EVOctf98Fyoc8ye/RnWiSMZOM/9saheaF2YYOeqcry1ylY5oaMtkDESMYyG0DPz1dZs5zEl5npt45pJCh4lXgw+y5exGL8HlheyVvpSqkv2lbjLKBLpIq7NqCWXfIQy+fpWV4mYdkyURaeqQqF1RRMmFsh5wGWm6xZvpT1U91FDwTmRHG5ZF4P78G06htLZCx/7H6PiOMxKo0b+LGVwXKyuLzjGJERI3OWI44UaMJuG0a5jR5VQBT6yEsEmkQsr0fLMnGr1HOQw+AvjcqCB7PfhNQ3SWmyHLMNuxF3VR3jjIilsRDpItGuSB1B+lRZJo02auqrQVFDPwbMa/nA0P9BrsfLMqXEvNftITCnjMvUSxIwXpM1y/Ktq4FNBnMeygjMSVR1j06k0VB/Y0lh7yE31aEujvTwcMFPH9933xfJWA6GjAMLAMtp4zIJ5tBFS/CEvxX7Je01K5JTFMpOLbPZMPhLWcY4avQXm6OAvz070PcbnctzpU+OiQwrKKTddqMScTyGN1ptjrj+l7NfXh7q3GMRGPwljsv7MH/2vUOJWHZMMK8Er7joNuaIIwW8oeCFq6VeOXs7DP56YPnZgfJg2Ujmnc1tViy3zNeD4od++yPuvlnuXii/EL1g92/Nh2G51h1XQAz0HmDum+WFmi27fi3iSIEIlrvnUxGYtdVtD3UEy8pP31kIh2udxhzBci1m2bE0AL6cPi4/BzwZy8qbpG6F19zeUN+Bpispy64CCAKzui8XbphlLF+psmzFs85d5Y8Ilishy856PFjuIy7fMd7278tdCWAlpq/rLohg+VLGsmfuCSGjJ5a3MMtYtpos24jFQB23QQTLrYjlX7UpBskQfeh3/1dN3yx3VH9XERe84z74OsFN72X535N0YBAXPPunwVk2NzFf7njYuOib5b8maSiI7Q2pfflh4dvzbx6V3xYRR38vl+++2iyZ21tG927zz+XuSrsyMcuvZH0ipO02qVn+7WuHHlZuLt9t/0vK8muK/veALCMw66rUZ5m+seS3JNzyYNkkYBm+3FdclrJspsmy7K5/lWZkAfXE8jlYBsuZDf3gy+TkJGMZg7/ehn5SlpssWJ7psmwTsIzBn6ICxpD6Co2K5RQthdmSvuIyWN7RPEVLITBH62kf6uebf87B8jC+vLsh+OIcVMr0067+AZaHYZl6FSDfVU7McjtFlq/A8imyXE2R5Qosg+WJsHwJlk+R5SuwDJYnwnKtyvJXebDsG9BWV392tVRbVxVY7ovl/+z8mc3S4rZ2rsX/2PoW/toTYtlUb5bLtvqT567ftmTXQmmwrM7y349cpqqr9s5N3L5cXW0WFrsc51RYNlf16qERgj3YplEPgQbLSVk+sBD/FXqwpPIkWa4uN9/9kthSRSfQYDkRy9tM0R4aLeEK3Rn0VXVKLN/dwwdfmTGyeAIaLOuz/JwphGM/c2BS5KfvjIjlh0XZrmzFHSVvgQbL+mM/9zCOc4XuwuO9W5GX5b4bFct3d6yjsVCTy3PsF3GFqoutQdeTY3lzox7FCrA8bZYfrvvNsiVt1h8Fy/exInB/guVJsny3scRbsxsPy8+VmgQrvcFynyzLdso/jvmdNbtRsHwXK57vRrB80iw7a3bZs3xQlwHLYNnHRq4sP3QmR68GlsHyTp99N8NQZsyy8YR8sAyWjw16h5aMWHZ1HY+6AsunybJ3re/OkDAPlrvmpMEyWH4wueBHuK/ZZcDyr7efowy/2iVYPk2WaRtLTPV6eJb/taS9WguW4cs+jWg9RgOWT5NlC5bBMlgGyxBLu6c/nb06aZab4Vi+a/0vH67Cr0BlWt2z/LeH5v7umf/y1Fg2CViG+ldDs6Zps0w/u3B7n19cXV3V239dAZ+cZHcvEhGjcnIsl+xbH4fe5ydDjIyCKz8elunPxnq+5XHofbYRg+HL1B55PCzbkt9eOPQ+O1suBSzn4MtWlWX6+5aC34H6jcscn2nAcoFHUWanCiyzWN7pkxCYc43Lz4NAsExjGSEj17h80izX9AYrJA0G9RqXOTYzOZYrSYMhZOSlUmQzl6fLshH9FtRrXOb4cjU1li/pbyurfkB9RgyOL18psvzrHFhuZS1WgqCMhn4ylqupsdyIWgyBOdOIwXGZemosr2W3MQJzRrZcyli2U2O5kbGMwJxnXObMyZ4wy2WBwJylKrB8z+S5jGUE5jzjcoKNJeNhuRQ2Gab+sozLLF+m/ejrsbAsWYqPwJxxXNbfWDJFlhtpm0FJVRZCX54ay7aHNoN6jMv6m6ROgGWEjCwjBmeBTXOqLB/2SKjK5aFKzHIxGpb/NTHLCMxZRgz1xfg2A5aXpTLLhdwAoGQ6shhllk2b9PxlYsZ4Q3kt+vFDNiJqQ73FZe2NJW9oGeO1MHH+LxrL5lqVZSMs6UC9xmWOLxPW+9qGmJeXso//jjj2s4T77lLOMgJzjnFZdwHz1g9pLJOc80iLmlrHWJQKX8fddyEwZxiXdTdJLel1DAJsx5++IdfkTMu/rRm+jMCcYVxW3SRVl3SWC0HKWDLqy+GU0cTcxAjMg6skOLUb1WANo2CwbNiZc3OrMOZKgsYfxTICc35xWXNjyb3TkuvL3JSxvVVoLJ+ThqpNhAMgZGQYMRRZfmCTPlfS8j789lbhsDxrErKMNcxDq6JdKIfmftIf2KCzbFkd9d3yaQ7LAeNnbCtpou4EqKeIobex5NFlGXPYNSNl3BfxWCz7h5fiLVLUog6UUp15QiljPHHJYNkwUsb9tPTs4knLrb5a7uiIZW8RW74UH4E5z7is9fSdrrxgqmct7v79BOKl+7forx/uVHzGz3jCQ0n1BWjQuKyzSSrosNbntrQahiQnLOVVmdDtjsCcXVzW2VjyppTdB9SpbIfBBnOC5/Vt5D2MwJxdXOZsLCmZCYBwH9B6etfrW/FvxrOMwJxdXNbYWEJx14afAsIJhsBTrcAyN3FBiTS78OOkwPIy5j4g1DKcQzgbcR/UkR6AwNy/fv/Trqiuw7l6pDJxI6k1hHICZTm967cjluJv9GKvVfGw94mwTBu/VZJaw73czk1aTu+Y/qvA8uRYjt4kRVu86bZBsxaxSO7mHSlD9oQHsDwRX75koka8Zfyv4FsiRDsNvDtl0Occ4csT9OWKiRr1bbxYLSUhnHCzRC1fBstj9+WrCHuzosGdf2hILost1Vn+BVjOkeUy5qKSl7p5J0XcKcNbsiMvD+rawxK1fBksj5LlF2dP+pezXZUFZ3GQ923cxC6lXh+85cDy6bH8u+8dOmct2vRv73NOUpc6LN/dEy8ePvjdnfjFd8935St++QYs58hyEcFycEkR2Qe7U0agdM1geftKL1zf5BV8+eRZZm1y8v9st8Mv+YMyT8qQsgxfHg3LjZRl3tlDgTjSdV+E7pVLzvsvE/ryOTAbuS/zTmsJmWjNTRjM1T3mGizDlx3ihOWCcFLMNaH4EMFyYb+Vsdw1OK7+DSxPyZeZx1sEB2qHNQvNU7T834THsqnatoIvD89yXVWKdQxVlg9GeuF6H/cUr8+ELO8Zcl1XJTJGJr78eDWoQVaN5WAk2ac3PKPIOBXgTsK8bPcMGXk5r4xxd1HKnlkmzJXv4kuo99l+WDZ7hgyW88vLzyZjemKZkAh2UgblEP6iJ5Z3DRks5zn2q+rlJj73xDJlpPa8gJSyKroflqvFQSYDy7nWMY7i85AsPyFMWhVdp2e5WrZV570OljNkedOHmqpu3Tx/1ifLj9GCNA1TpWXZVMu7VqnA8mhYtodj9EQsk9C7H/LRVkW3CVne3t6+zw2W8/Tlp+tXLY+rz3os0zbxbzEmLiVtErG8va93bqYSLI+P5e74rMYybai25Zi40CMJy8cNAJZHxHJ5aEt78VmN5TkR+Ya478qos9wdtBqwPFqWD65qz768SRnEpaTsA938LDsLOvDlPHVFvlhP8VmNZSp7SyLLVo9l98iXEmWuLgBWLvIwsTGrP6mxfE5ElLhdhX1orJPlv3kr7CUIGY/86Kj5MvHErGvq2E+P5VfSWx0akS/3z3JdUE9brPthGecsg2UZy4y5kgosQ0NlDMIMiGHMYbc9sQxA4MsSI300ZMrMX9MPy3guyZhU9cRyOOA+VzAIKQMsQ4OxHKZix42DKcP0xDIyBlgWsLy7AD+IKn9MBl+evkxfLAfo21+AH9pZYntiGb48JtmeWA456ZJVp+D7pXCPFACBL3MT7qERB6ay52AZ0mKZf7ilF87jMpy/llH3xHIJQKafMZRZXhLo3tUV++0/A8vwZS2WfWx2mbA3ZVz2xDIeFTwqlsueWK44CWOrN6qMwZfBshrLV5yEcffJrnthuYEvnwbLf9Jj2R3MXcViTxFZkeVlCV+einyXq+6DZbf/Oqeyzbkey698FROwPBWWbflZDyy/Yebogn9grT8tuWHG8uVxyd1db6Y3FFl2cSF5hrBgmYTvm9RgeeK+vJ2p02T5nOe9vpShzLITZizHmIYv30GmyLLjjfzze44src2yC2awPAlfvvfL5CyHjhDoXjB3pc2yA2Ys+RyXHHMYbdEHy+HtUJ0p41Kd5e73gS9PgeW2UGe5Ittu0LgbfZY759jhyxNguS70Wb7iJwwX7ilY7oIZvjwuGQ/KCiybyztdnJ39y9mezgvayQBdMSQJyx2fBsuXR8/yc21hj4Dv7hj84rtHEknyrRumPGPn3rx/t/cxHj7JVqUiy8d3DVgel6wH5T3mS9EF9rBM3Uy9+TzxzwB6sSX/24c74POd/z73dAEl8Bi3LzuW9DyxbLVYXlI/Yav0PKunr2CIeQYsj9uXXavTzBERkSzX5NexjQ7LNjime4T5xb1nv7+4EyDJX4/nu+9GT2fHb2QjLyfLv2IcCVfrsFwVwa7lAWacfD9WlneumHvywhZhEjgs/40TDv5fFZaboC8/NgBYHj/Lnnk4U4hChpPlv3I+qYov24LA8n0TgOXRs+ybUjaFKGS8UJltUWG5IrF81whgefQst7R6RzVOlhtiz7IZMoDlsbPcEusddpQs7wAcSEmmAcsjZ9l/GJApRCEjH5ZtQU785i9gedQsvynJLFdjZHn3Bix5dzlQGWEdgzRyYoWMbFje82KwDJaJfXSOLO/df2AZLPMDczYssz4/WD4dlu34WG7gy2C56/LTQ0YuLJsCLIPlzsvfjI1lC5bBcje91dhYbli3Ilg+IV+2I2P5IBTBl8EynYbMWLa8T/97sHxCLDfjYrkqWBEJLI9Nv5fnZXLI0GH5i1iWG7AMll2+TK3K5cGyLcAyWHZGzCYLlmURAyyfNMtHPlyNieXDG8+AZbDMDsxZsHz04Xksg5SJs0wMGVmwfHTfgeVpsxywtmAGzZjlMgg3WD5plu1oWD7uU+DLYNlPSK4s24LL8ou943VBygg0u9gRlwdaYE7MMul+qoR9CjRNmUIEhFmmZbmmnErXsH0ZOjGWwyHD1JXOGVzujGGWwTFox+cEy6csS/K7fW1NMzXLW+sv2R8dLMOXQzl0P16URR8s398zrIiBhwODZU5gfgCsD5Y3WaZlRQywDJbpIaNuy6I/lr1BwxZgGQrmicobL/pkeefuIX1IsAyWSSFjt8fvjWVnbG7AMhRmubOrrvYMskeWu4NG9/0Glk9YJdHzDuu9fbLcSXNFN2volFm2vngxAMsdH6CBL0OUi2+Cttg3y4f1OUfFAiyfsJrwH29mrI9/QIflP3PWye3dUbYAyxDp4lehMoL7+X4MnCxzzedOfa5h3ZrQCbNsvTUEry8znrvastcvP95YrkkR+DIyxlF/XvpM2cuyJfNUC9biP9xbtgDLEPHiNwd9OiMv18S33twvkn0ldzS7ZiYrXFGw3BEy/IsuL67eX1xtVB75uyGG1o3lzy4vf3O3Xenbna1Ln38f2L606SwasAxRWTZlaGvHfmTdexwVqaff+6myM6w733rRgmXIC+QuFNchIOvCyR9l+Lfn3gcfI2js1tVngGWwfJRJqyAVjZtlSsqoPU5cE967O8tjYwlYPgqkwY7+IEgYHowHv26JvcXe3x+FoKuLizekzefQtPTl4/kZR0dFPPTfAW+tvPgFU0brjQaBX7d7H/ReL/YOBXmFC3yKLG/14w6UjzPWFT3udkSOkhO2j0aglngf7W4OAMtgeZ/l547bUqzROV7j3QlN6E5x/vjT5wXLYHmP5d1e2x9am1DmaOgJI/xqnvvosR8By2B5l+X90VRDH/l1VBBqxm93HHJYMqL6/SEHYBksP7F8WOWydJy6frqlZ23moXbNcd2lBMtg+Ynl49kHjzd2JAgbtm6nZVtCHvd/rroFy2D5geWuGeuGPvLrIqwms1iR7hYv5ubPYBksb/XfnZNoFXnstlVJxbElvVFFjxgY+4Hl0IHjltPLdyDWnTI6/rSh/Zg3+oBlsHw4V0IJGTXxh1ta1O5+n4YTMcAyWPazXHF6+YpmocQfc/cKFViG+Cxbzh9bkoF3RQfLyRIuvwbLYNnHsgOnlszycaBo6bdMxUIcLINlH8vdHuha81wSRnCdSdux6NiyogdYBstelg155OdCvA0O/JixvAHLkIRly6Gp28SbcDrhlEuck5FgGSx7We7CzFn4bYJAOn7VxbIhjxPBMlgOslzRE4HrL9pAwvCs+2gZ7w6WwbKfZUsoTZCHcDXr9wre+jmwDJb9LB97puWQt2elrnDiWRLX0H8WLINlP8vHNDVslh+dvOX5eaeTV2AZkrJsqSM/T+6tfQnDux/q6CUbsAxJWT6kybcRzzuGc+ds3xaSljpMBMtgOcTyAWmGtXdp18yrQsKyJUdrsAyWQyxXVJh8hx/XnmzC2e/dgGVIzrL19fnU/GHatpCxXFF/FCyfsmYXTzonOqOfO49pL0rJbx2+o/dHcY4cFFJ1VJHgU2nKVsjyXk+AE2mhKFniMM0/Ge3+u0rr7SEooB0KbSFjeTvwqyVljGKvchI6yhaCAmpoIz83lnc4mkbG8o5v46BwSCtkBH3RgWX9ZM5dCr3o8+8hYkAxmp19+cWPDw94+u+zV/Rh4jGMLTNkHyKMiAFFiVW2Nd5KRHfKCD406uknLK4G1BvL1p0w9v+LxfLjPYCKHDQsy7tu3JJzya7O/p+z5+dZYkIP6idjlO6E4Rr+hQd0e5/gH7gkUB8sB89HrMAyNFaWTXDJaAmWoRxZLt0DP8fwz4BlKEuWqyCpLbuMAZahIVi2AXKPh39gGRoFy111i9rv5GAZyoPl/UzROdF38IdgGRoDy93LPPfNugHLUJYs76HpWhjXgmVoZCy3BPOmrH0Dy9AQLFehhHHwN5S1b2AZGoJl4x/4Pf3VZsv0b7ZLhT4nrBcCy1DfLO/86AZQ334qW3L4BMvQgCyHfrQFy1DOLP+C/qMGLEMTYbkAyxBYxiWBwDIElsEyBJZV+JyBZWhYls/BMgSWwTKUQubpvPHtnPO5FstfgmUoY/XC8t/RzhBYhqCBWS4eltTdC2dwQSNmGYLAMgSBZQgsg2UILEMQWIYgsAxBYBkCy2AZAssQBJYhCCxDYJnM8v16oV+h7aD8NHtauo+2gCAIgiAIgiAIgiAIgiAIgiAIgiAIgiAIgiAIgiAIgiAIgiAIgiAIgiAIgiAIgiAIgiAIgiAIgiAIgiAIgiAIgiAIgiAIgiAIgiAIgiAIgiAIgiAIgiAIgiAIgiAIgiAIgiAIgiAIgiAIgiAIgiAIgiAIgiAIgiAIgiAIgiAIgiAIgiAIgiAIgiAIgiAIgiAIgiAIgiAIgiAIgiAIgiAIgiAIgiAIgiAIgiAIgiAIgiAIgiAIgiAIgiAIgiAIgiAIgiAIgiAIgiAIgiAIgiAIgiAIgiAIgiAIgiAIgiAIgiAIgiAIgiAIgiAIgiAIgiAIgiAIgiAIgiAIgiAIgiAIgiAIgiAIgiAIgiAIgiAIgiAIgiAIgiAIgiAIgiAIgiAIgiAIgiAIgiAIgiAIgiAIgiAIgiAIgiAIgiAIgiAIgiAIgiAIgiAIgiAIgiAIgiAIgiAIgiAIgiAIgiAIgiAIgiAoWqa6V4mmgMaM8XJ1+6ybFkBDowS53uX4iecKLQONjOQukO/VwpwHD3x70n49r9gXn/0OVW8kU2nWaXX/qxi1tnC90tmRfsl96RfHryE3g7efOtTIL/Tilq8li2cjeIebpV6YrYPv1spaif0JO9/86W/n3R9O0A6Oe7f4/kjfcV/6s+PXOBdfmQ9dLP/cL8t3I6ekLOuFWdK735SSVlozP4oVsbxW+8q5sWy6UP70z95ZJrlZHMsqNNc6X6aTsxuNpr4OtdM1+zvPXS+UGcu2k+VPQ7BM7f5MxDvclHEor8jvdC34DswPF3oNVzRQ+tJNbiy/7Gb5fBCWaZ4RwzLd/QWDPs53UQgZNkTq3MWgUsTIjeUP3Sz/PAzLJN+MY5ndk4vf+IYN4k18S1+HPy83ZDgjRm4sd6McEZjjWKb0s5Esi3OGUb1r4kNG+BV0QoYzYmTG8szB8sfBWA5fz1iWRWUp0dvepAwZBGdXCRnuiJEZy464/OlTORjLQdLiWZbAzMrKhO48OmQQbgaVkGHdL5IXy29dLDfDsRzKAAosC2LGSvRG1+lCBuX3VwojhoXb3PNi2YWyfPC3UCAtOcv8AaD0azWpQgbJ1xWm/jwRIy+WZ06WPw7Isqg2m6L6x58iYXATGTJIt4KJn/rzRIy8WLZOlj8NybJ/dKLCMm8AFPOWZZqQQfvt+JCx8HyrrFj+xs3y+ZAsey+pDsusjnaVogeIChlEV48PGZ6IkRfLHz6pB2Ydlq/Ts3zd13dqUoQM4o0QHTJ8ESMvlt0oi2dLdFj2RQAllukpwybqAWIsk/q7q8j72BcxsmJ55mH507As36ZnmdzTpuoBIkKGpb5PbMjwloFyYvmlj+VyWJav07N83dc3ahhf5Eb+mRp6YzVxXdI6P5bf+lhuhmXZbR1qLNPcSWNqhjOkLMV2yRi2XmtEjKxY9qH86X8GZvk6PcvXfX0hR3CYS0OGpX+bedT6Iv+9mRHL3rgsnS1ZJHdNPZYpHmgTvpE4ZCzouSEqZPgjRk4sWy/Ln4Zm+To9ywRjXqV8I2nI4FhtTMjwR4ycWP7Gz/L5wCzfpmc5zI1N+kbCkGE5dM4jpv4C04YZsfzBz/LPQ7O8Ts/yuh9bdpEmDBkLTmow8nFvaKYlI5b9KAtnSxRZvknP8m1PtuxiRxYyeN9kJZ76CxWn82E5EJeFgXmRPAGostz0Y8usKsNaM2LEhIzQyqR8WH4ZYvl8aJav07N83ZMtO25MUchgHnokDhnBxRz5sPw2xHIzNMu36Vm+7e3LNGohg/s9pCEjOP+dD8shlGWzJYvkCUCX5SbtlF+INkHIsNxfkYaMYDUvG5ZnQZY/Ds7ydXrCrvv6Lowb80YzYohDRni9aDYsB+OybPC3SO5luizfsmdw97R8OL91Kb1r+Cd+8ulfiab+wkvssmH5mzDLzeAsN+lZbrgX81l7Jy1XwT2BpUrIsPxUMhdN/YUnDLNh+UOY5Z8HZ/k6PcvXwoJcx6GhtWRihmuzgqObjaS2TljIkQ3LYZRFsyWL5AlAmeUb2civ84zFwIEwKmxKxnGSkEFYYJcLy5bA8qfhWS5pjC09Wkm6/sA3cR4WU7PjDDMzCCKGLGQQ1iTlwvJLCsvnKiz7nyVSr5j9smFHP1OtBGsyVqLih2HHGZ7Rip4OIQgZlLWiubD8lsJyo8JysKV51PBZ9r/HNRvKa+m3UaBTs1Rc8qc8ixxZpqAsmS0RsOzlRollX+/PjRjX4tsmPmSIIoYrZKzZWfE6R5ZnJJY/9sSy5/qXWiy7b5iSV1y+lt+Z8SFD+AAqw576o9yMmbBMisuSwZ+MZXc6Xaux7FwpxJspv4m4a+JDhujmEoQMSsTIheW3NJab3lh2OfO1Hsuu2LBmRQzKt6lThQwrmcCThAxKxMiF5Q80ln/ujWXv4ahKLHOOClzJFjwH7oTYkLHgz3nIQgbpy+fBctdj/T6qzJaIWQ5tlNRgmV6bMtKw7P91BqGlZsTghgxSxMiE5a6Zkn++1QjMcpYLohFGsOy4X0ryrBf5QP159Ir8tWbEcH2gJiZiZMJy19Dv55casyURLBMzXQzLhnpFFzEJw5NR4tZkiCOG65tfs2ylzJLlLgs+txqBOYLlgtbcMSyTzyMU1zACvXTcws+I1OO4uWIiRiYsd9bfjEZgjmGZ9pToKJaJ+z5trC07nZ1ummvNiMELGbSIkQfLs+55EY3ZkhiWaTvZolgmWts8ZuDnHf6VdNPUjBi8kEH86Fmw/LI7TbxVOLo2imVSXxvH8oIUHfjrF6jmtqabZqkZMTghg1rAy4Llt93TIi8VZkuiWDaUbjCOZUO6oLFp2Z1TGOckXFNekN64c/L9Sb0Ls2D5Q7cBzxQGf1Esd3rHWpXlgnJBbXRa5o62VoR7JypiuNx2HVGLzoFl41p6oTD4i2N5np7lBeEyzW/jsOEaIS1kyJbIBRC9iZgjzIFl62L2Q/xsSRzLhtDVRrI8JzjuKhYbT1JZS0OGjY3w1HuLvHYjB5ZfurLEN/GzJXEsFwRDiGTZEFhWGPk5QwHjKOYbwahVIWSQB745sPzBhazCbEkky4tw3x7JchG+niauYBCAh2GapWbEoIYM+jKkHFh2rlSexQfmhX4/qMzyKojEXGPk54SnlIUMG99X0EIGfXloBizP3HMi8bMlkSzbcGPHsrwI/v5CY+THvSlCESI6YlBXo9Br6xmw/NK9sy9+tiSSZZOe5Xnw91c6EYOxAC4cMozGcHRFCE+Mlc4ZsPzWPSUSP1sSyXKRA8taEYN1VwRChtUYjlJqjYwdKBmw7DkJI37wF8vyKohRLMs29PtGK2Lw0oo/RCw0+gpKyGBM3w/P8syzSdVEB+ZYlhfJWTahHnSuFTEcbsr52VIzYlBCBmcJ0vAsW1+xInq2JJbluaRilp7ltYzlgpMMfBCpRAxKyOBsch2e5W98OeJt7GxJLMs2OcuFZFKiFLK8YNwXvpCx0OkrTDBALOgRIwOWP/jGdy9jA/MEWI4vfsk83uO9Rms4GgoZrK1Uw7PsPdMlerYkluUwqUOwfC1l2XBezI2R1RqOhrbusFYIDs7yzD+8iz29aPwsGyULdPPJCSQ3mhEjHDIWnBWCg7P80u+8HyJnS2JZLgZnea4Yl0kLTPym2GhGjOASQNbesMFZfutPxN9EzpZMk2Uxyrw7wwWSWsQIhQzeJoTBWQ6cGW4jj64dP8sLxbjcTUfDnVpZ6EV4f8hgRYzBWZ4FAvEscrZk/Cyv6JUHITtrZshQjBiBkMHbfj40yzZUqIgc/I2fZdWhH2W5dDBkKEYMR8i4lkSMwVn+JlRAjpwtyZ9lw2e5jGCZFVm6Q4ZixPBvEOBFjMFZ/hAa20XOloyeZaM69Ov0wRseaO2t6u21cnsvL2IMzvKnUM3Nxs2WjJ5lqzjrxy+LdK9SU/1I7pDBPUphYJZtcGhn4gJz/iwH1nzOFftzvs/PiSwrj0bvPxIzYgzN8suw636ICsz5z/vN2SyvY1jm5W/qQ2VjErwzZDAjxtAsvw2n4bdRsyUJWFZeWxQYjC04vaw6y8SQoZ56tk1gmBFjaJYJT1d9GTVbkv86uRWb5TKK5RWLj3nqiOFg9oYfMQZmeUYIw3GzJfmzHOhHV7pljM4WWXPTrO7d5XjJFTNiDMzySwqnUYO/BPtKdPdIhSbibrVZZgbwVeqI4Xo4gGHfNcOy/A2lePwhJjBnv9/PslmOJMfyPu88dcRwhQz+gZDDskzCNGq2JME+7FKV5cDZiNEz5LEsm+QRw/N8ZN5dMyzLnyj1tqjZkuzPx1j1zTL3FcMhI/ID+Z5bz7p2HSxfXPH0JzHLlhSFZzGBOfdzi0zgihn1Hp2bWuapIwa9ih2IV98nEZHllzTH/RQxW5LgPLlCk+XQ5nyrXV5ms2ySRwx6yFjny/JbWhKOmS3RP+dT9/zl0ElCCVjmVvkWqSMGPWSU+bJMNNyY2RL985dVWQ4eiTzXt0Euy6GQ0cSzbDQixqAsU4OwjZgt0T8XX/UZD8HHYSZgecGtWAcIKxSksoJpSJZfUhmNGPzpP69E9dk7wU67H5bLiARwrcHyQiFiDMryW2p2iJgtyfs5UuHT0hb6PshuEps6YhBDRmiSaEiWyYi+lc+W6D/fT/NZlbdDsMy3+uQRgxYy1vmybMi1tpfy2RL9566Weiwvwk6XBcuL1BGDFjLKfFm25BgcMVui/zzsQo1lQ7hmC+3lGBKWbeqIQQoZwS8+IMsMt5XPlkSxTGpRMctmRei1E7Bs+U2SPGJQQsY6Y5YZKVgemGNYnpP6VDHLK4r/5MHyInXEoISMMmOWP9GrE/LAHMMyzR2ELDtdef+3F/r0CKYSbcL5a2rICH/v4VjmhGD5bEkEy3NaPpSxXBMTaAKWjSD0JlqFzwkZ64xZfsng0wSP0UjAMjEfSliuVtS+NBOWF6mWyNFDRpExy285ueGTdLZEzvKCaERdZ7VUPi1XjIu2OhmWTfQKpuFY/sAZz4kHf2KWLbVJyYtvibrOkeVV+oxRRK9gGoxlw6qziQd/UpYN2Yi0WV5nyLJJP/YLhYwiY5Yta/5DPFsiZNlZZSiTs1xmyHIPNblAQ17nzDLTaaWzJTKW3QWzIjnLRYYsJztOgBwympxZ/sBLwB+EgVnEcs2xB5MyLucxV2KTbpAihYwiZ5aZlYlvhIFZwLKvYLZOznKTIcs9rC0KtOR1zizPmBXjl8LZko7L0PoKZvWSO49qUkaMPFjuYc1n4H2anFnmsjkTzpYsVEG7KVKzfB3+/L2z3MNa/NDFKnJm+S03MwhnSxZJSdNnuUzPMnvNZw97pAJNeZ01y5+4YznhbMkiZZjVZ/mmyJDlHvauBt6pyZnlGbvGJgzMi5RhVp/lRm8OXo1lK7jBlUNGkTPLlj33YWWzJYvUEUOX5aIHlrkv2cNZL4G2vM6a5W/YLmtksyWL1BFDleX1QCyLp+P6CRll1ix/4B9FJJstWaSOGKosK4RbdZat4A5UDhlF1iwLqhJvRbMli9QRQ5PlhsRyz+fJrYTtohcy1lmzPBMEhpeiwKzJcpmY5WvaQG2tzvJNVMRQnceOeflhWJZwKZstUWT5pkjMcknr4fs9f7mHZzwErhd5onMYlkV5QTRbskiaAFRZbohp9Vqd5euoiKG6WC7m+w7D8ifJOE4wXlRluUjLMjmN9/qMhz6eiab1fTue8XDG1Bdslmei+to3ktkSPZbXaVmmJ5ibPmnp4VmVKVnmvj3/2TuyeQ/Rby1S27IWyyX91dV78XVcxNAMGaNjWeSwMjdfpLZlJZZLxsBefQp7XcR+ufJkWRYlX1nKXqS2ZR2WS06RKg4c1sPi57F3+uRZFq7flFQ/FqltWYPlm5LVyTfaLLPupLTz2GNj2Qo3okqq0kos3xQJWb5hfoE4E1wxWDYKHcu0WX4pPCBAcg8osVwmZLnlfoG4ohzHVDtb7yblPPbYWH4r3IdqBNlEh+XYB0YL84Ujsd4ow3LLixhlypAxNpa7kPy4JOgTf8y4SJwwIlm+qQRlhyhuLOPr2e7GWCRckT8yljtra2J97IHlMhHLYZK7eYoJp3MGLIvuUbBNGDJGxvJLVZY/pWf5ukjEcinMBDEeyMnfrg+dMGSMjOVvdFluUrN8XaRi+VrIckwhY0V/OevKWwlDxshY/qDL8s+JWb4pkrFMMmbl/pxB4cJVaDfpQsbIWNZFOVABiWY5VGeIYnktM9IbVVacd5T79ksXMsbFslVm+VNSloMo01rfyqfLFqrYzOkse4Z4i2Tz2ONi+aU2y+cJWQ6jTGx9uTHPVbMp487wAJsuZIyL5bfaLDfpWL5Wa/25eLHkXNUC6YnF+BL+KtU89rhY1kbZP1sSxXKr1/qGt/Eq0NXLLZD+Yt4q8jxVJWNULM/UWf6YiOWbUrP1F1LnN5rjLEs3eW8mNqlW5I+KZfW47B/8iVmmzMlxWp/yIHd6OUHanS/Idmr8Y9VUIWNULL/VZ7nRZ3lZqbe+2JhXioF5RSYw8DDweaJKxqhY/qDP8s+6LN+0VYrWt1JjXuh154y8svIn4lQhY0wsG32UvbMlHSB4H4papWv9lbAsN9frzudkAE2oHJ4oZIyJZZuA5U88ljVKR5LWnwvnS4xezWBxG/Vhr0M/sD4pll+mYPl8FCyL50v0Jibob78K3UCJQsaYWH6bguWfx8HyQjhfotadW/ILmXAPkiZkjInlFCj7AnNOLEvnS9SWWC7IEWce7gvmet3FOFmeJWH54zhYlpbl5krdOSMWrMK3T5qQMSKWk8Rl39G1WbEsLMsZpV38dCc1lEHqSm9MOkqW36ZhuRkHy66yXOhq3ep053T4FpQ3TBIyRsTyhzQs/zwSlucyY16prH239LcmUW9UPtVoWTZpUPYM/vJiWViWm4s3pYTTujhipAkZ42HZJmL501hYls2X2FsFCzT0pLKg/WSKkDEell+mYvl8JCwbmTFL1z6HbXlNfrtGat8TZflDKpZ/HgnLwvmS1W10AczQk7qlMprgbIHxsJwKZXdgzo1l2XzJ/DY6MS/oOWVBzQ4JQsZoWJ4lY/njWFiWleUitnH776HriIihV/geI8vJ4rJ7tiQ7lmXzJRF7a723UBMTMVKEjNGw/DYdy81YWJZhuRDvsOIXthf0j6c1uz5CltOh7Bz85ceyaL7E9Us34s/o/nXGp9MPGWNheZaQ5Y+jYVlUljO3USljxXhPy0nm6gcYjYVlm5DlT6Nh2ZkXRDSS0qlz02NkxPAcBTp1lr9JyfL5aFgWGbP74WThr1PfMiIGMzZoh4yxsPxB9IhKYlb5eTQsi+ZLPKeJhr6PveUEFKbTaoeMsbAseqI79YX+OR6WrSQurKQwW94vrnhwaoeMkbA8Ez6ikljbGw/LovkS3xNQS0nA6E7o7MqEcsgYCcsveTtCPGK8UpYsS8py3iPLW/6wz+G27IrxQl5dGTHLb5XiMsvhs2RZNF+y8p61VPJvAI2IoR4yRsIy/wENrMD8PyNiWTKNF3jMenv8u2blP2tMZ/JDYTnq6FieqQ39OBWRPFmWlOWCz0XZP8/RVKvAz6tEDO2QMQ6WpU90J1eqR8SyaL6EcMzjsn04Fa9ehX9YJWIw5wknwvI3jNm6kOj3RaYsS5Yx21tV0Q+JLgXhv5k0yx/04jIjr2TKsmskdyMe/bFV6kQM5ZAxDpYV4zJjHJkry3OBMc81UaYvkQvN4qmGjFGwrBmXGbMlubIsKstpsqy4T0QzZIyC5ZeKcdnxaudjYlkyX7JQZJn8+uFasWbIGAXLejMlrNmSbFk2AmM2eijTzxIILxSyMjsfL8uqcZk+W5Ity6L5kkVSWxYzqRgyxsCy3sIi3mxJviwnmS+JsmVhxIj4xXGyrLewiFetzpdlZ4mt6MGY6fa6Ft+W5VRZ/kY1LjvKIs2oWJYsYzardLYcEXvFd8EoWdacKeHMlmTMciHZW61SY77RTgp6IWMMLCsP/cizJTmzLJkvUZn8a7TNVS9kjIBl3ZkSxmxJzixLynIaqzKu9StraiFjBCzrzpQwZktyZll2GlH88K/Un/FQCxkjYPmtclwmF/myZllkzCZNwjBR1qoWMkbAsnpcps6WZM2yzJhtioFf7OTdSmkeO3+WtWdK6LMlebNsBfMlsSmjZLwoHcaEzyDMjGX9uEx9zbxZFs2XxNUyGk5IaGJaQdTU+bP8VnmmhD5bkjnLorJcTGS+Zn0QRjMohYz8Wf5A3jfN+NakDJ45y6L5kojIfJMMxeibYSQsmwRxmThbkjvLC5ExiyNzyXL6Jq4ZJIvlsmfZKi8sYsyW5M6yqCwnhrlM6Ko6ISN7llMM/YizJbmzLH56w0ITZQ0QdUJG9izrz5Q4C30/j41lqTELihlN0oCgEzKyZznBTAk1MGfPspPJslB25iaxp6qEjNxZnqkvLKLPluTPsmy+hA9zmRrDuUaJOXeW08Rl2l6V/FkuWHs/9lQzinHlEPGA/yq5s5wmLtNmS0bA8lxUYuZNmgiON+TXhjXcPXeWP6SJy6TZkhGwbOQsU/dMtYKwwp+z00jdubN80aFzDYy6Xvhy/0eqYxXKLB+/A/NuqbpF++U6Ml84P0Cp0RLs5jYaHwQaqwI031RoImgsMjVIhiajatmdk9E/Q2PE+eAs/GUFS4ZGnDZOecD0/wOHAoqiEdVAOgAAAABJRU5ErkJggg==;" vertex="1" parent="1">
          <mxGeometry x="-1901.38" y="1102" width="77.72" height="70" as="geometry" />
        </mxCell>
      </root>
    </mxGraphModel>
  </diagram>
</mxfile>
